SplineFontDB: 3.0
FontName: CiraSans-Regular
FullName: Cira Sans Regular
FamilyName: Cira Sans
Weight: Regular
Copyright: Digitized data copyright (c) 2012-2014, The Mozilla Foundation and Telefonica S.A.
Version: 003.111
ItalicAngle: 0
UnderlinePosition: -50
UnderlineWidth: 50
Ascent: 785
Descent: 215
sfntRevision: 0x00031c6a
LayerCount: 2
Layer: 0 0 "Back"  1
Layer: 1 0 "Fore"  0
XUID: [1021 118 1829452967 11825360]
FSType: 8
OS2Version: 3
OS2_WeightWidthSlopeOnly: 0
OS2_UseTypoMetrics: 1
CreationTime: 1404754821
ModificationTime: 1414958062
PfmFamily: 17
TTFWeight: 400
TTFWidth: 5
LineGap: 0
VLineGap: 0
Panose: 2 11 5 3 5 0 0 2 0 4
OS2TypoAscent: 0
OS2TypoAOffset: 1
OS2TypoDescent: 0
OS2TypoDOffset: 1
OS2TypoLinegap: 400
OS2WinAscent: 0
OS2WinAOffset: 1
OS2WinDescent: 0
OS2WinDOffset: 1
HheadAscent: 0
HheadAOffset: 1
HheadDescent: 0
HheadDOffset: 1
OS2SubXSize: 650
OS2SubYSize: 600
OS2SubXOff: 0
OS2SubYOff: 75
OS2SupXSize: 650
OS2SupYSize: 600
OS2SupXOff: 0
OS2SupYOff: 350
OS2StrikeYSize: 50
OS2StrikeYPos: 316
OS2Vendor: 'CTDB'
OS2CodePages: 2000009f.00000000
OS2UnicodeRanges: 00000287.02000001.00000000.00000000
Lookup: 1 0 0 "'aalt' Access All Alternates lookup 0"  {"'aalt' Access All Alternates lookup 0 subtable"  } ['aalt' ('DFLT' <'dflt' > 'cyrl' <'dflt' > 'grek' <'dflt' > 'latn' <'CAT ' 'MOL ' 'PLK ' 'ROM ' 'TRK ' 'dflt' > ) ]
Lookup: 3 0 0 "'aalt' Access All Alternates lookup 1"  {"'aalt' Access All Alternates lookup 1 subtable"  } ['aalt' ('DFLT' <'dflt' > 'cyrl' <'dflt' > 'grek' <'dflt' > 'latn' <'CAT ' 'MOL ' 'PLK ' 'ROM ' 'TRK ' 'dflt' > ) ]
Lookup: 1 0 0 "'locl' Localized Forms in Latin lookup 2"  {"'locl' Localized Forms in Latin lookup 2 subtable"  } ['locl' ('latn' <'TAT ' > ) ]
Lookup: 1 0 0 "'locl' Localized Forms in Latin lookup 3"  {"'locl' Localized Forms in Latin lookup 3 subtable"  } ['locl' ('latn' <'TRK ' > ) ]

StartChar: .notdef
Encoding: 1114112 -1 0
Width: 666
Flags: MW
HStem: -350 52<178 489 178 543> 48 72<305 325> 403 48<309.5 345> 998 52<178 178 178 489>
VStem: 123 55<-298 998 -298 1050 -298 1050> 280 70<74.5 95> 290 50<173 218 165.5 257> 381 54<307.5 353.5> 489 54<-298 998 998 998>
LayerCount: 2
Fore
SplineSet
543 -350 m 1xbb80
 123 -350 l 1
 123 1050 l 1
 543 1050 l 1
 543 -350 l 1xbb80
178 998 m 1
 178 -298 l 1
 489 -298 l 1
 489 998 l 1
 178 998 l 1
324 451 m 0
 410 451 435 396 435 336 c 0
 435 266 407 228 340 218 c 1
 340 173 l 2
 340 158 327 149 315 149 c 0
 302 149 290 158 290 173 c 2
 290 257 l 1
 362 261 381 281 381 334 c 0
 381 373 370 403 320 403 c 0
 299 403 285 400 268 392 c 0
 263 390 259 389 255 389 c 0
 240 389 231 399 231 412 c 0
 231 439 285 451 324 451 c 0
315 120 m 0xfd80
 335 120 350 105 350 85 c 0
 350 64 335 48 315 48 c 0
 295 48 280 64 280 85 c 0
 280 105 295 120 315 120 c 0xfd80
EndSplineSet
Validated: 1
EndChar

StartChar: A
Encoding: 65 65 1
Width: 573
GlyphClass: 2
Flags: MW
HStem: 0 21G<6 102 6 6 467 467 467 567> 173 77<177 392 177 415 154 392> 610 79<285 285> 669 20G<227 347 347 347>
VStem: 6 561<0 0>
AnchorPoint: "Anchor-11" 0 0 basechar 0
AnchorPoint: "Anchor-10" 140 689 basechar 0
AnchorPoint: "Anchor-9" 287 689 basechar 0
AnchorPoint: "Anchor-8" 537 0 basechar 0
LayerCount: 2
Fore
SplineSet
415 173 m 1xd8
 154 173 l 1
 102 0 l 1
 6 0 l 1
 227 689 l 1
 347 689 l 1
 567 0 l 1
 467 0 l 1
 415 173 l 1xd8
392 250 m 1
 285 610 l 1xe8
 177 250 l 1
 392 250 l 1
EndSplineSet
Validated: 1
Substitution2: "Single Substitution lookup 30 subtable" ordfeminine
Substitution2: "'c2sc' Capitals to Small Capitals lookup 23 subtable" a.sc
AlternateSubs2: "'aalt' Access All Alternates lookup 1 subtable" ordfeminine a.sc
Position2: "'cpsp' Capital Spacing lookup 0 subtable" dx=5 dy=0 dh=10 dv=0
EndChar

StartChar: Aacute
Encoding: 193 193 2
Width: 573
GlyphClass: 2
Flags: MW
HStem: 0 21G<6 102 6 6 467 467 467 567> 173 77<177 392 177 415 154 392> 610 79<285 285> 669 20G<227 347 347 347>
VStem: 6 561<0 0>
AnchorPoint: "Anchor-11" 0 0 basechar 0
AnchorPoint: "Anchor-10" 140 689 basechar 0
AnchorPoint: "Anchor-9" 287 689 basechar 0
AnchorPoint: "Anchor-8" 537 0 basechar 0
LayerCount: 2
Fore
SplineSet
193 755 m 1xd8
 169 804 l 1
 369 911 l 1
 409 834 l 1
 193 755 l 1xd8
415 173 m 1
 154 173 l 1
 102 0 l 1
 6 0 l 1
 227 689 l 1
 347 689 l 1
 567 0 l 1
 467 0 l 1
 415 173 l 1
392 250 m 1
 285 610 l 1xe8
 177 250 l 1
 392 250 l 1
EndSplineSet
Validated: 1
Substitution2: "'c2sc' Capitals to Small Capitals lookup 23 subtable" aacute.sc
Substitution2: "'aalt' Access All Alternates lookup 0 subtable" aacute.sc
Position2: "'cpsp' Capital Spacing lookup 0 subtable" dx=5 dy=0 dh=10 dv=0
EndChar

StartChar: Abreve
Encoding: 258 258 3
Width: 573
GlyphClass: 2
Flags: MW
HStem: 0 21G<6 102 6 6 467 467 467 567> 173 77<177 392 177 415 154 392> 610 79<285 285> 669 20G<227 347 347 347> 758 70<261.5 308.5 261.5 325.5>
VStem: 6 561<0 0>
AnchorPoint: "Anchor-11" 0 0 basechar 0
AnchorPoint: "Anchor-10" 140 689 basechar 0
AnchorPoint: "Anchor-9" 287 689 basechar 0
AnchorPoint: "Anchor-8" 537 0 basechar 0
LayerCount: 2
Fore
SplineSet
285 758 m 0xdc
 205 758 143 807 135 881 c 1
 196 894 l 1
 210 854 238 828 285 828 c 0
 332 828 363 854 377 894 c 1
 438 881 l 1
 430 807 366 758 285 758 c 0xdc
415 173 m 1
 154 173 l 1
 102 0 l 1
 6 0 l 1
 227 689 l 1
 347 689 l 1
 567 0 l 1
 467 0 l 1
 415 173 l 1
392 250 m 1
 285 610 l 1xec
 177 250 l 1
 392 250 l 1
EndSplineSet
Validated: 1
Substitution2: "'c2sc' Capitals to Small Capitals lookup 23 subtable" abreve.sc
Substitution2: "'aalt' Access All Alternates lookup 0 subtable" abreve.sc
Position2: "'cpsp' Capital Spacing lookup 0 subtable" dx=5 dy=0 dh=10 dv=0
EndChar

StartChar: Acircumflex
Encoding: 194 194 4
Width: 573
GlyphClass: 2
Flags: MW
HStem: 0 21G<6 102 6 6 467 467 467 567> 173 77<177 392 177 415 154 392> 610 79<285 285> 669 20G<227 347 347 347> 840 74<287 287>
VStem: 6 561<0 0>
AnchorPoint: "Anchor-11" 0 0 basechar 0
AnchorPoint: "Anchor-10" 140 689 basechar 0
AnchorPoint: "Anchor-9" 287 689 basechar 0
AnchorPoint: "Anchor-8" 537 0 basechar 0
LayerCount: 2
Fore
SplineSet
161 759 m 1xdc
 121 804 l 1
 257 914 l 1
 318 914 l 1
 453 804 l 1
 414 759 l 1
 287 840 l 1
 161 759 l 1xdc
415 173 m 1
 154 173 l 1
 102 0 l 1
 6 0 l 1
 227 689 l 1
 347 689 l 1
 567 0 l 1
 467 0 l 1
 415 173 l 1
392 250 m 1
 285 610 l 1xec
 177 250 l 1
 392 250 l 1
EndSplineSet
Validated: 1
Substitution2: "'c2sc' Capitals to Small Capitals lookup 23 subtable" acircumflex.sc
Substitution2: "'aalt' Access All Alternates lookup 0 subtable" acircumflex.sc
Position2: "'cpsp' Capital Spacing lookup 0 subtable" dx=5 dy=0 dh=10 dv=0
EndChar

StartChar: Adieresis
Encoding: 196 196 5
Width: 573
GlyphClass: 2
Flags: MW
HStem: 0 21G<6 102 6 6 467 467 467 567> 173 77<177 392 177 415 154 392> 610 79<285 285> 669 20G<227 347 347 347> 780 114<165.5 198 375 407.5>
VStem: 124 115<821 853> 334 115<821 853>
AnchorPoint: "Anchor-11" 0 0 basechar 0
AnchorPoint: "Anchor-10" 140 689 basechar 0
AnchorPoint: "Anchor-9" 287 803 basechar 0
AnchorPoint: "Anchor-8" 537 0 basechar 0
LayerCount: 2
Fore
SplineSet
182 780 m 0xde
 149 780 124 805 124 837 c 0
 124 869 149 894 182 894 c 0
 214 894 239 869 239 837 c 0
 239 805 214 780 182 780 c 0xde
391 780 m 0
 359 780 334 805 334 837 c 0
 334 869 359 894 391 894 c 0
 424 894 449 869 449 837 c 0
 449 805 424 780 391 780 c 0
415 173 m 1
 154 173 l 1
 102 0 l 1
 6 0 l 1
 227 689 l 1
 347 689 l 1
 567 0 l 1
 467 0 l 1
 415 173 l 1
392 250 m 1
 285 610 l 1xee
 177 250 l 1
 392 250 l 1
EndSplineSet
Validated: 1
Substitution2: "'c2sc' Capitals to Small Capitals lookup 23 subtable" adieresis.sc
Substitution2: "'aalt' Access All Alternates lookup 0 subtable" adieresis.sc
Position2: "'cpsp' Capital Spacing lookup 0 subtable" dx=5 dy=0 dh=10 dv=0
EndChar

StartChar: Agrave
Encoding: 192 192 6
Width: 573
GlyphClass: 2
Flags: MW
HStem: 0 21G<6 102 6 6 467 467 467 567> 173 77<177 392 177 415 154 392> 610 79<285 285> 669 20G<227 347 347 347>
VStem: 6 561<0 0>
AnchorPoint: "Anchor-11" 0 0 basechar 0
AnchorPoint: "Anchor-10" 140 689 basechar 0
AnchorPoint: "Anchor-9" 287 689 basechar 0
AnchorPoint: "Anchor-8" 537 0 basechar 0
LayerCount: 2
Fore
SplineSet
373 755 m 1xd8
 157 834 l 1
 196 911 l 1
 397 804 l 1
 373 755 l 1xd8
415 173 m 1
 154 173 l 1
 102 0 l 1
 6 0 l 1
 227 689 l 1
 347 689 l 1
 567 0 l 1
 467 0 l 1
 415 173 l 1
392 250 m 1
 285 610 l 1xe8
 177 250 l 1
 392 250 l 1
EndSplineSet
Validated: 1
Substitution2: "'c2sc' Capitals to Small Capitals lookup 23 subtable" agrave.sc
Substitution2: "'aalt' Access All Alternates lookup 0 subtable" agrave.sc
Position2: "'cpsp' Capital Spacing lookup 0 subtable" dx=5 dy=0 dh=10 dv=0
EndChar

StartChar: Amacron
Encoding: 256 256 7
Width: 573
GlyphClass: 2
Flags: MW
HStem: 0 21G<6 102 6 6 467 467 467 567> 173 77<177 392 177 415 154 392> 610 79<285 285> 669 20G<227 347 347 347> 787 69<150 423 150 423>
VStem: 150 273<787 856 787 856>
AnchorPoint: "Anchor-11" 0 0 basechar 0
AnchorPoint: "Anchor-10" 140 689 basechar 0
AnchorPoint: "Anchor-9" 287 689 basechar 0
AnchorPoint: "Anchor-8" 537 0 basechar 0
LayerCount: 2
Fore
SplineSet
423 787 m 1xdc
 150 787 l 1
 150 856 l 1
 423 856 l 1
 423 787 l 1xdc
415 173 m 1
 154 173 l 1
 102 0 l 1
 6 0 l 1
 227 689 l 1
 347 689 l 1
 567 0 l 1
 467 0 l 1
 415 173 l 1
392 250 m 1
 285 610 l 1xec
 177 250 l 1
 392 250 l 1
EndSplineSet
Validated: 1
Substitution2: "'c2sc' Capitals to Small Capitals lookup 23 subtable" amacron.sc
Substitution2: "'aalt' Access All Alternates lookup 0 subtable" amacron.sc
Position2: "'cpsp' Capital Spacing lookup 0 subtable" dx=5 dy=0 dh=10 dv=0
EndChar

StartChar: Aogonek
Encoding: 260 260 8
Width: 573
GlyphClass: 2
Flags: MW
HStem: -232 70<439.5 462> 0 21G<6 102 6 6 527 567 527 527> 173 77<177 392 177 415 154 392> 610 79<285 285> 669 20G<227 347 347 347>
VStem: 324 80<-129 -99>
AnchorPoint: "Anchor-11" 0 0 basechar 0
AnchorPoint: "Anchor-10" 140 689 basechar 0
AnchorPoint: "Anchor-9" 287 689 basechar 0
AnchorPoint: "Anchor-8" 537 0 basechar 0
LayerCount: 2
Fore
SplineSet
527 0 m 1xec
 425 -44 404 -78 404 -114 c 0
 404 -144 419 -162 460 -162 c 0
 481 -162 497 -160 521 -155 c 1
 512 -225 l 1
 492 -229 475 -232 449 -232 c 0
 372 -232 324 -189 324 -131 c 0
 324 -67 368 -20 462 16 c 1
 415 173 l 1
 154 173 l 1
 102 0 l 1
 6 0 l 1
 227 689 l 1
 347 689 l 1
 567 0 l 1
 527 0 l 1xec
392 250 m 1
 285 610 l 1xf4
 177 250 l 1
 392 250 l 1
EndSplineSet
Validated: 1
Substitution2: "'c2sc' Capitals to Small Capitals lookup 23 subtable" aogonek.sc
Substitution2: "'aalt' Access All Alternates lookup 0 subtable" aogonek.sc
Position2: "'cpsp' Capital Spacing lookup 0 subtable" dx=5 dy=0 dh=10 dv=0
EndChar

StartChar: Aring
Encoding: 197 197 9
Width: 573
GlyphClass: 2
Flags: MW
HStem: 0 21G<6 102 6 6 467 467 467 567> 173 77<177 392 177 415 154 392> 610 79<285 285> 669 20G<227 347 347 347> 750 50<270.5 303 270.5 320.5> 912 50<270.5 303.5>
VStem: 173 61<838.5 873.5 838.5 885.5> 340 61<838.5 873.5>
AnchorPoint: "Anchor-11" 0 0 basechar 0
AnchorPoint: "Anchor-10" 140 689 basechar 0
AnchorPoint: "Anchor-9" 287 689 basechar 0
AnchorPoint: "Anchor-8" 537 0 basechar 0
LayerCount: 2
Fore
SplineSet
287 750 m 0xdf
 220 750 173 797 173 856 c 0
 173 915 220 962 287 962 c 0
 354 962 401 915 401 856 c 0
 401 797 354 750 287 750 c 0xdf
287 912 m 0
 254 912 234 891 234 856 c 0
 234 821 254 800 287 800 c 0
 319 800 340 821 340 856 c 0
 340 891 320 912 287 912 c 0
415 173 m 1
 154 173 l 1
 102 0 l 1
 6 0 l 1
 227 689 l 1
 347 689 l 1
 567 0 l 1
 467 0 l 1
 415 173 l 1
392 250 m 1
 285 610 l 1xef
 177 250 l 1
 392 250 l 1
EndSplineSet
Validated: 1
Substitution2: "'c2sc' Capitals to Small Capitals lookup 23 subtable" aring.sc
Substitution2: "'aalt' Access All Alternates lookup 0 subtable" aring.sc
Position2: "'cpsp' Capital Spacing lookup 0 subtable" dx=5 dy=0 dh=10 dv=0
EndChar

StartChar: Atilde
Encoding: 195 195 10
Width: 573
GlyphClass: 2
Flags: MW
HStem: 0 21G<6 102 6 6 467 467 467 567> 173 77<177 392 177 415 154 392> 610 79<285 285> 669 20G<227 347 347 347> 782 70<326.5 355 326.5 369> 830 70<217.5 247>
VStem: 6 561<0 0>
AnchorPoint: "Anchor-11" 0 0 basechar 0
AnchorPoint: "Anchor-10" 140 689 basechar 0
AnchorPoint: "Anchor-9" 287 689 basechar 0
AnchorPoint: "Anchor-8" 537 0 basechar 0
LayerCount: 2
Fore
SplineSet
229 830 m 0xd6
 206 830 192 814 176 784 c 1
 120 812 l 1
 143 861 179 900 230 900 c 0xd6
 284 900 308 852 345 852 c 0
 365 852 380 866 398 896 c 1
 454 868 l 1
 428 811 390 782 348 782 c 0xda
 289 782 265 830 229 830 c 0xd6
415 173 m 1
 154 173 l 1
 102 0 l 1
 6 0 l 1
 227 689 l 1
 347 689 l 1
 567 0 l 1
 467 0 l 1
 415 173 l 1
392 250 m 1
 285 610 l 1xe6
 177 250 l 1
 392 250 l 1
EndSplineSet
Validated: 1
Substitution2: "'c2sc' Capitals to Small Capitals lookup 23 subtable" atilde.sc
Substitution2: "'aalt' Access All Alternates lookup 0 subtable" atilde.sc
Position2: "'cpsp' Capital Spacing lookup 0 subtable" dx=5 dy=0 dh=10 dv=0
EndChar

StartChar: AE
Encoding: 198 198 11
Width: 816
GlyphClass: 2
Flags: MW
HStem: 0 76<535 762 535 762> 173 77<179 400 179 418 150 400> 311 76<476 712 476 476> 613 76<316 316 401 710 401 401>
VStem: -12 774<0 76>
AnchorPoint: "Anchor-11" 0 0 basechar 0
AnchorPoint: "Anchor-10" 0 0 basechar 0
AnchorPoint: "Anchor-9" 474 689 basechar 0
AnchorPoint: "Anchor-8" 0 0 basechar 0
LayerCount: 2
Fore
SplineSet
762 76 m 1
 762 0 l 1
 458 0 l 1
 418 173 l 1
 150 173 l 1
 85 0 l 1
 -12 0 l 1
 262 689 l 1
 721 689 l 1
 710 613 l 1
 401 613 l 1
 457 387 l 1
 712 387 l 1
 712 311 l 1
 476 311 l 1
 535 76 l 1
 762 76 l 1
400 250 m 1
 316 613 l 1
 179 250 l 1
 400 250 l 1
EndSplineSet
Validated: 1
Substitution2: "'c2sc' Capitals to Small Capitals lookup 23 subtable" ae.sc
Substitution2: "'aalt' Access All Alternates lookup 0 subtable" ae.sc
Position2: "'cpsp' Capital Spacing lookup 0 subtable" dx=5 dy=0 dh=10 dv=0
EndChar

StartChar: AEacute
Encoding: 508 508 12
Width: 816
GlyphClass: 2
Flags: MW
HStem: 0 76<535 762 535 762> 173 77<179 400 179 418 150 400> 311 76<476 712 476 476> 613 76<316 316 401 710 401 401>
VStem: -12 774<0 76>
AnchorPoint: "Anchor-11" 0 0 basechar 0
AnchorPoint: "Anchor-10" 0 0 basechar 0
AnchorPoint: "Anchor-9" 474 689 basechar 0
AnchorPoint: "Anchor-8" 0 0 basechar 0
LayerCount: 2
Fore
SplineSet
380 755 m 1
 356 804 l 1
 556 911 l 1
 596 834 l 1
 380 755 l 1
762 76 m 1
 762 0 l 1
 458 0 l 1
 418 173 l 1
 150 173 l 1
 85 0 l 1
 -12 0 l 1
 262 689 l 1
 721 689 l 1
 710 613 l 1
 401 613 l 1
 457 387 l 1
 712 387 l 1
 712 311 l 1
 476 311 l 1
 535 76 l 1
 762 76 l 1
400 250 m 1
 316 613 l 1
 179 250 l 1
 400 250 l 1
EndSplineSet
Validated: 1
Substitution2: "'c2sc' Capitals to Small Capitals lookup 23 subtable" aeacute.sc
Substitution2: "'aalt' Access All Alternates lookup 0 subtable" aeacute.sc
Position2: "'cpsp' Capital Spacing lookup 0 subtable" dx=5 dy=0 dh=10 dv=0
EndChar

StartChar: B
Encoding: 66 66 13
Width: 608
GlyphClass: 2
Flags: MW
HStem: 0 76<195 290 195 290> 324 73<195 299 299 308 195 299> 614 75<195 195 195 263 263 273>
VStem: 100 95<76 324 397 614> 436 97<472.5 550.5> 463 100<146 244.5>
LayerCount: 2
Fore
SplineSet
404 364 m 1xf4
 484 350 563 313 563 196 c 0xf4
 563 50 450 0 290 0 c 2
 100 0 l 1
 100 689 l 1
 263 689 l 2
 433 689 533 635 533 515 c 0xf8
 533 430 471 378 404 364 c 1xf4
195 614 m 1
 195 397 l 1
 299 397 l 2
 376 397 436 435 436 508 c 0xf8
 436 593 375 614 273 614 c 2
 195 614 l 1
290 76 m 2xf4
 390 76 463 96 463 196 c 0
 463 293 391 324 308 324 c 2
 195 324 l 1
 195 76 l 1
 290 76 l 2xf4
EndSplineSet
Validated: 1
Substitution2: "'c2sc' Capitals to Small Capitals lookup 23 subtable" b.sc
Substitution2: "'aalt' Access All Alternates lookup 0 subtable" b.sc
Position2: "'cpsp' Capital Spacing lookup 0 subtable" dx=5 dy=0 dh=10 dv=0
EndChar

StartChar: C
Encoding: 67 67 14
Width: 560
GlyphClass: 2
Flags: MW
HStem: -12 80<292.5 378.5 292.5 389.5> 623 78<295 371>
VStem: 55 101<245.5 449 245.5 461.5>
AnchorPoint: "Anchor-11" 346 0 basechar 0
AnchorPoint: "Anchor-10" 0 0 basechar 0
AnchorPoint: "Anchor-9" 347 689 basechar 0
AnchorPoint: "Anchor-8" 0 0 basechar 0
LayerCount: 2
Fore
SplineSet
341 701 m 0
 428 701 477 677 532 633 c 1
 480 572 l 1
 437 607 395 623 347 623 c 0
 243 623 156 553 156 345 c 0
 156 146 239 68 346 68 c 0
 411 68 453 97 492 126 c 1
 540 65 l 1
 503 26 436 -12 343 -12 c 0
 176 -12 55 113 55 345 c 0
 55 578 185 701 341 701 c 0
EndSplineSet
Validated: 1
Substitution2: "'c2sc' Capitals to Small Capitals lookup 23 subtable" c.sc
Substitution2: "'aalt' Access All Alternates lookup 0 subtable" c.sc
Position2: "'cpsp' Capital Spacing lookup 0 subtable" dx=5 dy=0 dh=10 dv=0
EndChar

StartChar: Cacute
Encoding: 262 262 15
Width: 560
GlyphClass: 2
Flags: MW
HStem: -12 80<292.5 378.5 292.5 389.5> 623 78<295 371>
VStem: 55 101<245.5 449 245.5 461.5>
AnchorPoint: "Anchor-11" 346 0 basechar 0
AnchorPoint: "Anchor-10" 0 0 basechar 0
AnchorPoint: "Anchor-9" 347 689 basechar 0
AnchorPoint: "Anchor-8" 0 0 basechar 0
LayerCount: 2
Fore
SplineSet
469 834 m 1
 253 755 l 1
 229 804 l 1
 429 911 l 1
 469 834 l 1
341 701 m 0
 428 701 477 677 532 633 c 1
 480 572 l 1
 437 607 395 623 347 623 c 0
 243 623 156 553 156 345 c 0
 156 146 239 68 346 68 c 0
 411 68 453 97 492 126 c 1
 540 65 l 1
 503 26 436 -12 343 -12 c 0
 176 -12 55 113 55 345 c 0
 55 578 185 701 341 701 c 0
EndSplineSet
Validated: 1
Substitution2: "'c2sc' Capitals to Small Capitals lookup 23 subtable" cacute.sc
Substitution2: "'locl' Localized Forms in Latin lookup 7 subtable" Cacute.loclPLK
AlternateSubs2: "'aalt' Access All Alternates lookup 1 subtable" Cacute.loclPLK cacute.sc
Position2: "'cpsp' Capital Spacing lookup 0 subtable" dx=5 dy=0 dh=10 dv=0
EndChar

StartChar: Ccaron
Encoding: 268 268 16
Width: 560
GlyphClass: 2
Flags: MW
HStem: -12 80<292.5 378.5 292.5 389.5> 623 78<295 371> 754 74<347 347 347 378 317 347>
VStem: 55 101<245.5 449 245.5 461.5>
AnchorPoint: "Anchor-11" 346 0 basechar 0
AnchorPoint: "Anchor-10" 0 0 basechar 0
AnchorPoint: "Anchor-9" 347 689 basechar 0
AnchorPoint: "Anchor-8" 0 0 basechar 0
LayerCount: 2
Fore
SplineSet
513 864 m 1
 378 754 l 1
 317 754 l 1
 181 864 l 1
 221 909 l 1
 347 828 l 1
 474 909 l 1
 513 864 l 1
341 701 m 0
 428 701 477 677 532 633 c 1
 480 572 l 1
 437 607 395 623 347 623 c 0
 243 623 156 553 156 345 c 0
 156 146 239 68 346 68 c 0
 411 68 453 97 492 126 c 1
 540 65 l 1
 503 26 436 -12 343 -12 c 0
 176 -12 55 113 55 345 c 0
 55 578 185 701 341 701 c 0
EndSplineSet
Validated: 1
Substitution2: "'c2sc' Capitals to Small Capitals lookup 23 subtable" ccaron.sc
Substitution2: "'aalt' Access All Alternates lookup 0 subtable" ccaron.sc
Position2: "'cpsp' Capital Spacing lookup 0 subtable" dx=5 dy=0 dh=10 dv=0
EndChar

StartChar: Ccedilla
Encoding: 199 199 17
Width: 560
GlyphClass: 2
Flags: MW
HStem: -241 60<329 356 329 379> -217 21G<254 254> -99 167<303 335> -11 79<314 314> -10 78<376 376> 623 78<295 371>
VStem: 55 101<245.5 449 245.5 461.5> 308.5 67.5 392 77<-155.5 -127.5>
AnchorPoint: "Anchor-11" 346 0 basechar 0
AnchorPoint: "Anchor-10" 0 0 basechar 0
AnchorPoint: "Anchor-9" 347 689 basechar 0
AnchorPoint: "Anchor-8" 0 0 basechar 0
LayerCount: 2
Fore
SplineSet
540 65 m 1x4e
 508 31 452 -3 376 -10 c 1x4f
 376 -56 l 1x67
 444 -62 469 -100 469 -141 c 0
 469 -207 413 -241 345 -241 c 0x8e80
 307 -241 274 -232 254 -217 c 1x4e
 279 -165 l 1
 298 -175 316 -181 342 -181 c 0
 370 -181 392 -170 392 -141 c 0xa680
 392 -114 367 -99 303 -99 c 1x67
 314 -11 l 1x56
 162 3 55 127 55 345 c 0
 55 578 185 701 341 701 c 0
 428 701 477 677 532 633 c 1
 480 572 l 1
 437 607 395 623 347 623 c 0
 243 623 156 553 156 345 c 0
 156 146 239 68 346 68 c 0
 411 68 453 97 492 126 c 1
 540 65 l 1x4e
EndSplineSet
Validated: 1
Substitution2: "'c2sc' Capitals to Small Capitals lookup 23 subtable" ccedilla.sc
Substitution2: "'aalt' Access All Alternates lookup 0 subtable" ccedilla.sc
Position2: "'cpsp' Capital Spacing lookup 0 subtable" dx=5 dy=0 dh=10 dv=0
EndChar

StartChar: Ccircumflex
Encoding: 264 264 18
Width: 560
GlyphClass: 2
Flags: MW
HStem: -12 80<292.5 378.5 292.5 389.5> 623 78<295 371> 840 74<347 347>
VStem: 55 101<245.5 449 245.5 461.5>
AnchorPoint: "Anchor-11" 346 0 basechar 0
AnchorPoint: "Anchor-10" 0 0 basechar 0
AnchorPoint: "Anchor-9" 347 689 basechar 0
AnchorPoint: "Anchor-8" 0 0 basechar 0
LayerCount: 2
Fore
SplineSet
347 840 m 1
 221 759 l 1
 181 804 l 1
 317 914 l 1
 378 914 l 1
 513 804 l 1
 474 759 l 1
 347 840 l 1
341 701 m 0
 428 701 477 677 532 633 c 1
 480 572 l 1
 437 607 395 623 347 623 c 0
 243 623 156 553 156 345 c 0
 156 146 239 68 346 68 c 0
 411 68 453 97 492 126 c 1
 540 65 l 1
 503 26 436 -12 343 -12 c 0
 176 -12 55 113 55 345 c 0
 55 578 185 701 341 701 c 0
EndSplineSet
Validated: 1
Substitution2: "'c2sc' Capitals to Small Capitals lookup 23 subtable" ccircumflex.sc
Substitution2: "'aalt' Access All Alternates lookup 0 subtable" ccircumflex.sc
Position2: "'cpsp' Capital Spacing lookup 0 subtable" dx=5 dy=0 dh=10 dv=0
EndChar

StartChar: Cdotaccent
Encoding: 266 266 19
Width: 560
GlyphClass: 2
Flags: MW
HStem: -12 80<292.5 378.5 292.5 389.5> 623 78<295 371> 781 125<327 365.5>
VStem: 55 101<245.5 449 245.5 461.5> 282 129<825.5 861>
AnchorPoint: "Anchor-11" 346 0 basechar 0
AnchorPoint: "Anchor-10" 0 0 basechar 0
AnchorPoint: "Anchor-9" 347 689 basechar 0
AnchorPoint: "Anchor-8" 0 0 basechar 0
LayerCount: 2
Fore
SplineSet
346 906 m 0
 385 906 411 879 411 843 c 0
 411 808 385 781 346 781 c 0
 308 781 282 808 282 843 c 0
 282 879 308 906 346 906 c 0
341 701 m 0
 428 701 477 677 532 633 c 1
 480 572 l 1
 437 607 395 623 347 623 c 0
 243 623 156 553 156 345 c 0
 156 146 239 68 346 68 c 0
 411 68 453 97 492 126 c 1
 540 65 l 1
 503 26 436 -12 343 -12 c 0
 176 -12 55 113 55 345 c 0
 55 578 185 701 341 701 c 0
EndSplineSet
Validated: 1
Substitution2: "'c2sc' Capitals to Small Capitals lookup 23 subtable" cdotaccent.sc
Substitution2: "'aalt' Access All Alternates lookup 0 subtable" cdotaccent.sc
Position2: "'cpsp' Capital Spacing lookup 0 subtable" dx=5 dy=0 dh=10 dv=0
EndChar

StartChar: D
Encoding: 68 68 20
Width: 644
GlyphClass: 2
Flags: MW
HStem: 0 75<195 265> 613 76<195 195 195 244 244 265>
VStem: 100 95<75 613 75 689 75 689> 488 101<234.5 464.5>
AnchorPoint: "Anchor-11" 0 0 basechar 0
AnchorPoint: "Anchor-10" 0 0 basechar 0
AnchorPoint: "Anchor-9" 303 689 basechar 0
AnchorPoint: "Anchor-8" 0 0 basechar 0
LayerCount: 2
Fore
SplineSet
244 689 m 2
 420 689 589 634 589 348 c 0
 589 67 414 0 265 0 c 2
 100 0 l 1
 100 689 l 1
 244 689 l 2
195 613 m 1
 195 75 l 1
 272 75 l 2
 380 75 488 121 488 348 c 0
 488 581 375 613 265 613 c 2
 195 613 l 1
EndSplineSet
Validated: 1
Substitution2: "'c2sc' Capitals to Small Capitals lookup 23 subtable" d.sc
Substitution2: "'aalt' Access All Alternates lookup 0 subtable" d.sc
Position2: "'cpsp' Capital Spacing lookup 0 subtable" dx=5 dy=0 dh=10 dv=0
EndChar

StartChar: Eth
Encoding: 208 208 21
Width: 656
GlyphClass: 2
Flags: MW
HStem: 0 75<207 277> 318 70<20 112 20 112 207 364> 613 76<207 256 256 277 207 207>
VStem: 112 95<75 318 75 318 75 318 388 613> 500 101<234.5 464.5>
AnchorPoint: "Anchor-11" 0 0 basechar 0
AnchorPoint: "Anchor-10" 0 0 basechar 0
AnchorPoint: "Anchor-9" 315 689 basechar 0
AnchorPoint: "Anchor-8" 0 0 basechar 0
LayerCount: 2
Fore
SplineSet
256 689 m 2
 432 689 601 634 601 348 c 0
 601 67 426 0 277 0 c 2
 112 0 l 1
 112 318 l 1
 20 318 l 1
 20 388 l 1
 112 388 l 1
 112 689 l 1
 256 689 l 2
284 75 m 2
 392 75 500 121 500 348 c 0
 500 581 387 613 277 613 c 2
 207 613 l 1
 207 388 l 1
 364 388 l 1
 364 318 l 1
 207 318 l 1
 207 75 l 1
 284 75 l 2
EndSplineSet
Validated: 1
Substitution2: "'c2sc' Capitals to Small Capitals lookup 23 subtable" eth.sc
Substitution2: "'aalt' Access All Alternates lookup 0 subtable" eth.sc
Position2: "'cpsp' Capital Spacing lookup 0 subtable" dx=5 dy=0 dh=10 dv=0
EndChar

StartChar: Dcaron
Encoding: 270 270 22
Width: 644
GlyphClass: 2
Flags: MW
HStem: 0 75<195 265> 613 76<195 195 195 244 244 265> 754 74<303 303 303 334 273 303>
VStem: 100 95<75 613 75 689 75 689> 488 101<234.5 464.5>
AnchorPoint: "Anchor-11" 0 0 basechar 0
AnchorPoint: "Anchor-10" 0 0 basechar 0
AnchorPoint: "Anchor-9" 303 689 basechar 0
AnchorPoint: "Anchor-8" 0 0 basechar 0
LayerCount: 2
Fore
SplineSet
469 864 m 1
 334 754 l 1
 273 754 l 1
 137 864 l 1
 177 909 l 1
 303 828 l 1
 430 909 l 1
 469 864 l 1
244 689 m 2
 420 689 589 634 589 348 c 0
 589 67 414 0 265 0 c 2
 100 0 l 1
 100 689 l 1
 244 689 l 2
195 613 m 1
 195 75 l 1
 272 75 l 2
 380 75 488 121 488 348 c 0
 488 581 375 613 265 613 c 2
 195 613 l 1
EndSplineSet
Validated: 1
Substitution2: "'c2sc' Capitals to Small Capitals lookup 23 subtable" dcaron.sc
Substitution2: "'aalt' Access All Alternates lookup 0 subtable" dcaron.sc
Position2: "'cpsp' Capital Spacing lookup 0 subtable" dx=5 dy=0 dh=10 dv=0
EndChar

StartChar: Dcroat
Encoding: 272 272 23
Width: 656
GlyphClass: 2
Flags: MW
HStem: 0 75<207 277> 318 70<20 112 20 112 207 364> 613 76<207 256 256 277 207 207>
VStem: 112 95<75 318 75 318 75 318 388 613> 500 101<234.5 464.5>
AnchorPoint: "Anchor-11" 0 0 basechar 0
AnchorPoint: "Anchor-10" 0 0 basechar 0
AnchorPoint: "Anchor-9" 315 689 basechar 0
AnchorPoint: "Anchor-8" 0 0 basechar 0
LayerCount: 2
Fore
SplineSet
256 689 m 2
 432 689 601 634 601 348 c 0
 601 67 426 0 277 0 c 2
 112 0 l 1
 112 318 l 1
 20 318 l 1
 20 388 l 1
 112 388 l 1
 112 689 l 1
 256 689 l 2
284 75 m 2
 392 75 500 121 500 348 c 0
 500 581 387 613 277 613 c 2
 207 613 l 1
 207 388 l 1
 364 388 l 1
 364 318 l 1
 207 318 l 1
 207 75 l 1
 284 75 l 2
EndSplineSet
Validated: 1
Substitution2: "'c2sc' Capitals to Small Capitals lookup 23 subtable" dcroat.sc
Substitution2: "'aalt' Access All Alternates lookup 0 subtable" dcroat.sc
Position2: "'cpsp' Capital Spacing lookup 0 subtable" dx=5 dy=0 dh=10 dv=0
EndChar

StartChar: E
Encoding: 69 69 24
Width: 535
GlyphClass: 2
Flags: MW
HStem: 0 76<195 481 195 481> 312 76<195 427 195 427> 613 76<195 462 195 195>
VStem: 100 95<76 312 388 613>
AnchorPoint: "Anchor-11" 291 0 basechar 0
AnchorPoint: "Anchor-10" 90 689 basechar 0
AnchorPoint: "Anchor-9" 290 689 basechar 0
AnchorPoint: "Anchor-8" 451 0 basechar 0
LayerCount: 2
Fore
SplineSet
462 613 m 1
 195 613 l 1
 195 388 l 1
 427 388 l 1
 427 312 l 1
 195 312 l 1
 195 76 l 1
 481 76 l 1
 481 0 l 1
 100 0 l 1
 100 689 l 1
 473 689 l 1
 462 613 l 1
EndSplineSet
Validated: 1
Substitution2: "'c2sc' Capitals to Small Capitals lookup 23 subtable" e.sc
Substitution2: "'aalt' Access All Alternates lookup 0 subtable" e.sc
Position2: "'cpsp' Capital Spacing lookup 0 subtable" dx=5 dy=0 dh=10 dv=0
EndChar

StartChar: Eacute
Encoding: 201 201 25
Width: 535
GlyphClass: 2
Flags: MW
HStem: 0 76<195 481 195 481> 312 76<195 427 195 427> 613 76<195 462 195 195>
VStem: 100 95<76 312 388 613>
AnchorPoint: "Anchor-11" 291 0 basechar 0
AnchorPoint: "Anchor-10" 90 689 basechar 0
AnchorPoint: "Anchor-9" 290 689 basechar 0
AnchorPoint: "Anchor-8" 451 0 basechar 0
LayerCount: 2
Fore
SplineSet
412 834 m 1
 196 755 l 1
 172 804 l 1
 372 911 l 1
 412 834 l 1
462 613 m 1
 195 613 l 1
 195 388 l 1
 427 388 l 1
 427 312 l 1
 195 312 l 1
 195 76 l 1
 481 76 l 1
 481 0 l 1
 100 0 l 1
 100 689 l 1
 473 689 l 1
 462 613 l 1
EndSplineSet
Validated: 1
Substitution2: "'c2sc' Capitals to Small Capitals lookup 23 subtable" eacute.sc
Substitution2: "'aalt' Access All Alternates lookup 0 subtable" eacute.sc
Position2: "'cpsp' Capital Spacing lookup 0 subtable" dx=5 dy=0 dh=10 dv=0
EndChar

StartChar: Ebreve
Encoding: 276 276 26
Width: 535
GlyphClass: 2
Flags: MW
HStem: 0 76<195 481 195 481> 312 76<195 427 195 427> 613 76<195 462 195 195> 758 70<264.5 311.5 264.5 328.5>
VStem: 100 95<76 312 388 613>
AnchorPoint: "Anchor-11" 291 0 basechar 0
AnchorPoint: "Anchor-10" 90 689 basechar 0
AnchorPoint: "Anchor-9" 290 689 basechar 0
AnchorPoint: "Anchor-8" 451 0 basechar 0
LayerCount: 2
Fore
SplineSet
288 758 m 0
 208 758 146 807 138 881 c 1
 199 894 l 1
 213 854 241 828 288 828 c 0
 335 828 366 854 380 894 c 1
 441 881 l 1
 433 807 369 758 288 758 c 0
462 613 m 1
 195 613 l 1
 195 388 l 1
 427 388 l 1
 427 312 l 1
 195 312 l 1
 195 76 l 1
 481 76 l 1
 481 0 l 1
 100 0 l 1
 100 689 l 1
 473 689 l 1
 462 613 l 1
EndSplineSet
Validated: 1
Substitution2: "'c2sc' Capitals to Small Capitals lookup 23 subtable" ebreve.sc
Substitution2: "'aalt' Access All Alternates lookup 0 subtable" ebreve.sc
Position2: "'cpsp' Capital Spacing lookup 0 subtable" dx=5 dy=0 dh=10 dv=0
EndChar

StartChar: Ecaron
Encoding: 282 282 27
Width: 535
GlyphClass: 2
Flags: MW
HStem: 0 76<195 481 195 481> 312 76<195 427 195 427> 613 76<195 462 195 195> 754 74<290 290 290 321 260 290>
VStem: 100 95<76 312 388 613>
AnchorPoint: "Anchor-11" 291 0 basechar 0
AnchorPoint: "Anchor-10" 90 689 basechar 0
AnchorPoint: "Anchor-9" 290 689 basechar 0
AnchorPoint: "Anchor-8" 451 0 basechar 0
LayerCount: 2
Fore
SplineSet
456 864 m 1
 321 754 l 1
 260 754 l 1
 124 864 l 1
 164 909 l 1
 290 828 l 1
 417 909 l 1
 456 864 l 1
462 613 m 1
 195 613 l 1
 195 388 l 1
 427 388 l 1
 427 312 l 1
 195 312 l 1
 195 76 l 1
 481 76 l 1
 481 0 l 1
 100 0 l 1
 100 689 l 1
 473 689 l 1
 462 613 l 1
EndSplineSet
Validated: 1
Substitution2: "'c2sc' Capitals to Small Capitals lookup 23 subtable" ecaron.sc
Substitution2: "'aalt' Access All Alternates lookup 0 subtable" ecaron.sc
Position2: "'cpsp' Capital Spacing lookup 0 subtable" dx=5 dy=0 dh=10 dv=0
EndChar

StartChar: Ecircumflex
Encoding: 202 202 28
Width: 535
GlyphClass: 2
Flags: MW
HStem: 0 76<195 481 195 481> 312 76<195 427 195 427> 613 76<195 462 195 195> 840 74<290 290>
VStem: 100 95<76 312 388 613>
AnchorPoint: "Anchor-11" 291 0 basechar 0
AnchorPoint: "Anchor-10" 90 689 basechar 0
AnchorPoint: "Anchor-9" 290 689 basechar 0
AnchorPoint: "Anchor-8" 451 0 basechar 0
LayerCount: 2
Fore
SplineSet
290 840 m 1
 164 759 l 1
 124 804 l 1
 260 914 l 1
 321 914 l 1
 456 804 l 1
 417 759 l 1
 290 840 l 1
462 613 m 1
 195 613 l 1
 195 388 l 1
 427 388 l 1
 427 312 l 1
 195 312 l 1
 195 76 l 1
 481 76 l 1
 481 0 l 1
 100 0 l 1
 100 689 l 1
 473 689 l 1
 462 613 l 1
EndSplineSet
Validated: 1
Substitution2: "'c2sc' Capitals to Small Capitals lookup 23 subtable" ecircumflex.sc
Substitution2: "'aalt' Access All Alternates lookup 0 subtable" ecircumflex.sc
Position2: "'cpsp' Capital Spacing lookup 0 subtable" dx=5 dy=0 dh=10 dv=0
EndChar

StartChar: Edieresis
Encoding: 203 203 29
Width: 535
GlyphClass: 2
Flags: MW
HStem: 0 76<195 481 195 481> 312 76<195 427 195 427> 613 76<195 462 195 195> 780 114<168.5 201 378 410.5>
VStem: 100 95<76 312 388 613> 127 115<821 853> 337 115<821 853>
AnchorPoint: "Anchor-11" 291 0 basechar 0
AnchorPoint: "Anchor-10" 90 689 basechar 0
AnchorPoint: "Anchor-9" 290 803 basechar 0
AnchorPoint: "Anchor-8" 451 0 basechar 0
LayerCount: 2
Fore
SplineSet
185 894 m 0xf6
 217 894 242 869 242 837 c 0
 242 805 217 780 185 780 c 0
 152 780 127 805 127 837 c 0
 127 869 152 894 185 894 c 0xf6
394 894 m 0
 427 894 452 869 452 837 c 0
 452 805 427 780 394 780 c 0
 362 780 337 805 337 837 c 0
 337 869 362 894 394 894 c 0
462 613 m 1
 195 613 l 1
 195 388 l 1
 427 388 l 1
 427 312 l 1
 195 312 l 1
 195 76 l 1
 481 76 l 1
 481 0 l 1
 100 0 l 1
 100 689 l 1xe8
 473 689 l 1
 462 613 l 1
EndSplineSet
Validated: 1
Substitution2: "'c2sc' Capitals to Small Capitals lookup 23 subtable" edieresis.sc
Substitution2: "'aalt' Access All Alternates lookup 0 subtable" edieresis.sc
Position2: "'cpsp' Capital Spacing lookup 0 subtable" dx=5 dy=0 dh=10 dv=0
EndChar

StartChar: Edotaccent
Encoding: 278 278 30
Width: 535
GlyphClass: 2
Flags: MW
HStem: 0 76<195 481 195 481> 312 76<195 427 195 427> 613 76<195 462 195 195> 781 125<270 308.5>
VStem: 100 95<76 312 388 613> 225 129<825.5 861>
AnchorPoint: "Anchor-11" 291 0 basechar 0
AnchorPoint: "Anchor-10" 90 689 basechar 0
AnchorPoint: "Anchor-9" 290 689 basechar 0
AnchorPoint: "Anchor-8" 451 0 basechar 0
LayerCount: 2
Fore
SplineSet
289 906 m 0
 328 906 354 879 354 843 c 0
 354 808 328 781 289 781 c 0
 251 781 225 808 225 843 c 0
 225 879 251 906 289 906 c 0
462 613 m 1
 195 613 l 1
 195 388 l 1
 427 388 l 1
 427 312 l 1
 195 312 l 1
 195 76 l 1
 481 76 l 1
 481 0 l 1
 100 0 l 1
 100 689 l 1xe8
 473 689 l 1
 462 613 l 1
EndSplineSet
Validated: 1
Substitution2: "'c2sc' Capitals to Small Capitals lookup 23 subtable" edotaccent.sc
Substitution2: "'aalt' Access All Alternates lookup 0 subtable" edotaccent.sc
Position2: "'cpsp' Capital Spacing lookup 0 subtable" dx=5 dy=0 dh=10 dv=0
EndChar

StartChar: Egrave
Encoding: 200 200 31
Width: 535
GlyphClass: 2
Flags: MW
HStem: 0 76<195 481 195 481> 312 76<195 427 195 427> 613 76<195 462 195 195>
VStem: 100 95<76 312 388 613>
AnchorPoint: "Anchor-11" 291 0 basechar 0
AnchorPoint: "Anchor-10" 90 689 basechar 0
AnchorPoint: "Anchor-9" 290 689 basechar 0
AnchorPoint: "Anchor-8" 451 0 basechar 0
LayerCount: 2
Fore
SplineSet
400 804 m 1
 376 755 l 1
 160 834 l 1
 199 911 l 1
 400 804 l 1
462 613 m 1
 195 613 l 1
 195 388 l 1
 427 388 l 1
 427 312 l 1
 195 312 l 1
 195 76 l 1
 481 76 l 1
 481 0 l 1
 100 0 l 1
 100 689 l 1
 473 689 l 1
 462 613 l 1
EndSplineSet
Validated: 1
Substitution2: "'c2sc' Capitals to Small Capitals lookup 23 subtable" egrave.sc
Substitution2: "'aalt' Access All Alternates lookup 0 subtable" egrave.sc
Position2: "'cpsp' Capital Spacing lookup 0 subtable" dx=5 dy=0 dh=10 dv=0
EndChar

StartChar: Emacron
Encoding: 274 274 32
Width: 535
GlyphClass: 2
Flags: MW
HStem: 0 76<195 481 195 481> 312 76<195 427 195 427> 613 76<195 462 195 195> 787 69<153 426 153 426>
VStem: 100 95<76 312 388 613> 153 273<787 856 787 856>
AnchorPoint: "Anchor-11" 291 0 basechar 0
AnchorPoint: "Anchor-10" 90 689 basechar 0
AnchorPoint: "Anchor-9" 290 689 basechar 0
AnchorPoint: "Anchor-8" 451 0 basechar 0
LayerCount: 2
Fore
SplineSet
153 787 m 1xf4
 153 856 l 1
 426 856 l 1
 426 787 l 1
 153 787 l 1xf4
462 613 m 1
 195 613 l 1
 195 388 l 1
 427 388 l 1
 427 312 l 1
 195 312 l 1
 195 76 l 1
 481 76 l 1
 481 0 l 1
 100 0 l 1
 100 689 l 1xf8
 473 689 l 1
 462 613 l 1
EndSplineSet
Validated: 1
Substitution2: "'c2sc' Capitals to Small Capitals lookup 23 subtable" emacron.sc
Substitution2: "'aalt' Access All Alternates lookup 0 subtable" emacron.sc
Position2: "'cpsp' Capital Spacing lookup 0 subtable" dx=5 dy=0 dh=10 dv=0
EndChar

StartChar: Eogonek
Encoding: 280 280 33
Width: 535
GlyphClass: 2
Flags: MW
HStem: -232 70<353.5 376> 0 76<195 339 441 481 441 441> 312 76<195 427 195 427> 613 76<195 462 195 195>
VStem: 100 95<76 312 388 613> 238 80<-129 -103.5>
AnchorPoint: "Anchor-11" 291 0 basechar 0
AnchorPoint: "Anchor-10" 90 689 basechar 0
AnchorPoint: "Anchor-9" 290 689 basechar 0
AnchorPoint: "Anchor-8" 451 0 basechar 0
LayerCount: 2
Fore
SplineSet
481 76 m 1
 481 0 l 1
 441 0 l 1
 339 -44 318 -78 318 -114 c 0
 318 -144 333 -162 374 -162 c 0
 395 -162 411 -160 435 -155 c 1
 426 -225 l 1
 406 -229 389 -232 363 -232 c 0
 286 -232 238 -189 238 -131 c 0
 238 -76 271 -34 339 0 c 1
 100 0 l 1
 100 689 l 1
 473 689 l 1
 462 613 l 1
 195 613 l 1
 195 388 l 1
 427 388 l 1
 427 312 l 1
 195 312 l 1
 195 76 l 1
 481 76 l 1
EndSplineSet
Validated: 1
Substitution2: "'c2sc' Capitals to Small Capitals lookup 23 subtable" eogonek.sc
Substitution2: "'aalt' Access All Alternates lookup 0 subtable" eogonek.sc
Position2: "'cpsp' Capital Spacing lookup 0 subtable" dx=5 dy=0 dh=10 dv=0
EndChar

StartChar: F
Encoding: 70 70 34
Width: 491
GlyphClass: 2
Flags: MW
HStem: 0 21G<100 195 100 100> 303 75<195 420 195 420> 613 76<195 455 195 195>
VStem: 100 95<0 303 378 613>
LayerCount: 2
Fore
SplineSet
455 613 m 1
 195 613 l 1
 195 378 l 1
 420 378 l 1
 420 303 l 1
 195 303 l 1
 195 0 l 1
 100 0 l 1
 100 689 l 1
 466 689 l 1
 455 613 l 1
EndSplineSet
Validated: 1
Substitution2: "'c2sc' Capitals to Small Capitals lookup 23 subtable" f.sc
Substitution2: "'aalt' Access All Alternates lookup 0 subtable" f.sc
Position2: "'cpsp' Capital Spacing lookup 0 subtable" dx=5 dy=0 dh=10 dv=0
EndChar

StartChar: G
Encoding: 71 71 35
Width: 631
GlyphClass: 2
Flags: MW
HStem: -12 78<283.5 367 283.5 385.5> 305 77<353 475 353 353> 623 78<304.5 385>
VStem: 55 101<246 446.5 246 461> 475 94<98 305 305 305>
AnchorPoint: "Anchor-11" 343 0 basechar 0
AnchorPoint: "Anchor-10" 0 0 basechar 0
AnchorPoint: "Anchor-9" 355 689 basechar 0
AnchorPoint: "Anchor-8" 0 0 basechar 0
LayerCount: 2
Fore
SplineSet
352 701 m 0
 445 701 502 674 561 625 c 1
 505 567 l 1
 457 606 416 623 354 623 c 0
 255 623 156 548 156 345 c 0
 156 147 223 66 344 66 c 0
 390 66 436 75 475 98 c 1
 475 305 l 1
 353 305 l 1
 342 382 l 1
 569 382 l 1
 569 49 l 1
 506 12 434 -12 337 -12 c 0
 166 -12 55 107 55 345 c 0
 55 577 197 701 352 701 c 0
EndSplineSet
Validated: 1
Substitution2: "'c2sc' Capitals to Small Capitals lookup 23 subtable" g.sc
Substitution2: "'aalt' Access All Alternates lookup 0 subtable" g.sc
Position2: "'cpsp' Capital Spacing lookup 0 subtable" dx=5 dy=0 dh=10 dv=0
EndChar

StartChar: Gbreve
Encoding: 286 286 36
Width: 631
GlyphClass: 2
Flags: MW
HStem: -12 78<283.5 367 283.5 385.5> 305 77<353 475 353 353> 623 78<304.5 385> 758 70<329.5 376.5 329.5 393.5>
VStem: 55 101<246 446.5 246 461> 475 94<98 305 305 305>
AnchorPoint: "Anchor-11" 343 0 basechar 0
AnchorPoint: "Anchor-10" 0 0 basechar 0
AnchorPoint: "Anchor-9" 355 689 basechar 0
AnchorPoint: "Anchor-8" 0 0 basechar 0
LayerCount: 2
Fore
SplineSet
353 758 m 0
 273 758 211 807 203 881 c 1
 264 894 l 1
 278 854 306 828 353 828 c 0
 400 828 431 854 445 894 c 1
 506 881 l 1
 498 807 434 758 353 758 c 0
352 701 m 0
 445 701 502 674 561 625 c 1
 505 567 l 1
 457 606 416 623 354 623 c 0
 255 623 156 548 156 345 c 0
 156 147 223 66 344 66 c 0
 390 66 436 75 475 98 c 1
 475 305 l 1
 353 305 l 1
 342 382 l 1
 569 382 l 1
 569 49 l 1
 506 12 434 -12 337 -12 c 0
 166 -12 55 107 55 345 c 0
 55 577 197 701 352 701 c 0
EndSplineSet
Validated: 1
Substitution2: "'c2sc' Capitals to Small Capitals lookup 23 subtable" gbreve.sc
Substitution2: "'aalt' Access All Alternates lookup 0 subtable" gbreve.sc
Position2: "'cpsp' Capital Spacing lookup 0 subtable" dx=5 dy=0 dh=10 dv=0
EndChar

StartChar: Gcircumflex
Encoding: 284 284 37
Width: 631
GlyphClass: 2
Flags: MW
HStem: -12 78<283.5 367 283.5 385.5> 305 77<353 475 353 353> 623 78<304.5 385> 840 74<355 355>
VStem: 55 101<246 446.5 246 461> 475 94<98 305 305 305>
AnchorPoint: "Anchor-11" 343 0 basechar 0
AnchorPoint: "Anchor-10" 0 0 basechar 0
AnchorPoint: "Anchor-9" 355 689 basechar 0
AnchorPoint: "Anchor-8" 0 0 basechar 0
LayerCount: 2
Fore
SplineSet
355 840 m 1
 229 759 l 1
 189 804 l 1
 325 914 l 1
 386 914 l 1
 521 804 l 1
 482 759 l 1
 355 840 l 1
352 701 m 0
 445 701 502 674 561 625 c 1
 505 567 l 1
 457 606 416 623 354 623 c 0
 255 623 156 548 156 345 c 0
 156 147 223 66 344 66 c 0
 390 66 436 75 475 98 c 1
 475 305 l 1
 353 305 l 1
 342 382 l 1
 569 382 l 1
 569 49 l 1
 506 12 434 -12 337 -12 c 0
 166 -12 55 107 55 345 c 0
 55 577 197 701 352 701 c 0
EndSplineSet
Validated: 1
Substitution2: "'c2sc' Capitals to Small Capitals lookup 23 subtable" gcircumflex.sc
Substitution2: "'aalt' Access All Alternates lookup 0 subtable" gcircumflex.sc
Position2: "'cpsp' Capital Spacing lookup 0 subtable" dx=5 dy=0 dh=10 dv=0
EndChar

StartChar: Gcommaaccent
Encoding: 290 290 38
Width: 631
GlyphClass: 2
Flags: MW
HStem: -12 78<283.5 367 283.5 385.5> 305 77<353 475 353 353> 623 78<304.5 385>
VStem: 55 101<246 446.5 246 461> 288 115<-141.5 -117 -141.5 -117> 475 94<98 305 305 305>
AnchorPoint: "Anchor-11" 343 0 basechar 0
AnchorPoint: "Anchor-10" 0 0 basechar 0
AnchorPoint: "Anchor-9" 355 689 basechar 0
AnchorPoint: "Anchor-8" 0 0 basechar 0
LayerCount: 2
Fore
SplineSet
352 701 m 0
 445 701 502 674 561 625 c 1
 505 567 l 1
 457 606 416 623 354 623 c 0
 255 623 156 548 156 345 c 0
 156 147 223 66 344 66 c 0
 390 66 436 75 475 98 c 1
 475 305 l 1
 353 305 l 1
 342 382 l 1
 569 382 l 1
 569 49 l 1
 506 12 434 -12 337 -12 c 0
 166 -12 55 107 55 345 c 0
 55 577 197 701 352 701 c 0
346 -77 m 0
 378 -77 403 -101 403 -133 c 0
 403 -150 398 -166 377 -210 c 2
 336 -296 l 1
 283 -296 l 1
 312 -180 l 1
 298 -168 288 -152 288 -133 c 0
 288 -101 314 -77 346 -77 c 0
EndSplineSet
Validated: 1
Substitution2: "'c2sc' Capitals to Small Capitals lookup 23 subtable" gcommaaccent.sc
Substitution2: "'aalt' Access All Alternates lookup 0 subtable" gcommaaccent.sc
Position2: "'cpsp' Capital Spacing lookup 0 subtable" dx=5 dy=0 dh=10 dv=0
EndChar

StartChar: Gdotaccent
Encoding: 288 288 39
Width: 631
GlyphClass: 2
Flags: MW
HStem: -12 78<283.5 367 283.5 385.5> 305 77<353 475 353 353> 623 78<304.5 385> 781 125<335 373.5>
VStem: 55 101<246 446.5 246 461> 290 129<825.5 861> 475 94<98 305 305 305>
AnchorPoint: "Anchor-11" 343 0 basechar 0
AnchorPoint: "Anchor-10" 0 0 basechar 0
AnchorPoint: "Anchor-9" 355 689 basechar 0
AnchorPoint: "Anchor-8" 0 0 basechar 0
LayerCount: 2
Fore
SplineSet
354 906 m 0
 393 906 419 879 419 843 c 0
 419 808 393 781 354 781 c 0
 316 781 290 808 290 843 c 0
 290 879 316 906 354 906 c 0
352 701 m 0
 445 701 502 674 561 625 c 1
 505 567 l 1
 457 606 416 623 354 623 c 0
 255 623 156 548 156 345 c 0
 156 147 223 66 344 66 c 0
 390 66 436 75 475 98 c 1
 475 305 l 1
 353 305 l 1
 342 382 l 1
 569 382 l 1
 569 49 l 1
 506 12 434 -12 337 -12 c 0
 166 -12 55 107 55 345 c 0
 55 577 197 701 352 701 c 0
EndSplineSet
Validated: 1
Substitution2: "'c2sc' Capitals to Small Capitals lookup 23 subtable" gdotaccent.sc
Substitution2: "'aalt' Access All Alternates lookup 0 subtable" gdotaccent.sc
Position2: "'cpsp' Capital Spacing lookup 0 subtable" dx=5 dy=0 dh=10 dv=0
EndChar

StartChar: H
Encoding: 72 72 40
Width: 680
GlyphClass: 2
Flags: MW
HStem: 0 21G<100 195 100 100 485 485 485 580> 323 78<195 485 195 485> 669 20G<100 195 195 195 485 580 580 580>
VStem: 100 95<0 323 0 401 401 689> 485 95<0 323 323 323 401 689 0 689>
AnchorPoint: "Anchor-11" 0 0 basechar 0
AnchorPoint: "Anchor-10" 90 689 basechar 0
AnchorPoint: "Anchor-9" 340 689 basechar 0
AnchorPoint: "Anchor-8" 0 0 basechar 0
LayerCount: 2
Fore
SplineSet
485 323 m 1
 195 323 l 1
 195 0 l 1
 100 0 l 1
 100 689 l 1
 195 689 l 1
 195 401 l 1
 485 401 l 1
 485 689 l 1
 580 689 l 1
 580 0 l 1
 485 0 l 1
 485 323 l 1
EndSplineSet
Validated: 1
Substitution2: "'c2sc' Capitals to Small Capitals lookup 23 subtable" h.sc
Substitution2: "'aalt' Access All Alternates lookup 0 subtable" h.sc
Position2: "'cpsp' Capital Spacing lookup 0 subtable" dx=5 dy=0 dh=10 dv=0
EndChar

StartChar: Hbar
Encoding: 294 294 41
Width: 688
GlyphClass: 2
Flags: MW
HStem: 0 21G<104 199 104 104 489 584 489 489> 323 78<199 489 199 489> 508 69<35 104 35 104 199 489 584 653> 508 181<35 199 35 199 104 199 104 489>
VStem: 104 95<0 323 0 401 401 508 577 689> 489 95<0 323 323 323 401 508 0 508 577 689>
AnchorPoint: "Anchor-11" 0 0 basechar 0
AnchorPoint: "Anchor-10" 94 689 basechar 0
AnchorPoint: "Anchor-9" 344 689 basechar 0
AnchorPoint: "Anchor-8" 0 0 basechar 0
LayerCount: 2
Fore
SplineSet
653 508 m 1xec
 584 508 l 1
 584 0 l 1
 489 0 l 1
 489 323 l 1
 199 323 l 1
 199 0 l 1
 104 0 l 1
 104 508 l 1
 35 508 l 1
 35 577 l 1
 104 577 l 1xec
 104 689 l 1
 199 689 l 1xdc
 199 577 l 1
 489 577 l 1xec
 489 689 l 1
 584 689 l 1xdc
 584 577 l 1
 653 577 l 1
 653 508 l 1xec
489 508 m 1
 199 508 l 1
 199 401 l 1
 489 401 l 1
 489 508 l 1
EndSplineSet
Validated: 1
Substitution2: "'c2sc' Capitals to Small Capitals lookup 23 subtable" hbar.sc
Substitution2: "'aalt' Access All Alternates lookup 0 subtable" hbar.sc
Position2: "'cpsp' Capital Spacing lookup 0 subtable" dx=5 dy=0 dh=10 dv=0
EndChar

StartChar: Hcircumflex
Encoding: 292 292 42
Width: 680
GlyphClass: 2
Flags: MW
HStem: 0 21G<100 195 100 100 485 485 485 580> 323 78<195 485 195 485> 669 20G<100 195 195 195 485 580 580 580> 840 74<340 340>
VStem: 100 95<0 323 0 401 401 689> 485 95<0 323 323 323 401 689 0 689>
AnchorPoint: "Anchor-11" 0 0 basechar 0
AnchorPoint: "Anchor-10" 90 689 basechar 0
AnchorPoint: "Anchor-9" 340 689 basechar 0
AnchorPoint: "Anchor-8" 0 0 basechar 0
LayerCount: 2
Fore
SplineSet
340 840 m 1
 214 759 l 1
 174 804 l 1
 310 914 l 1
 371 914 l 1
 506 804 l 1
 467 759 l 1
 340 840 l 1
485 323 m 1
 195 323 l 1
 195 0 l 1
 100 0 l 1
 100 689 l 1
 195 689 l 1
 195 401 l 1
 485 401 l 1
 485 689 l 1
 580 689 l 1
 580 0 l 1
 485 0 l 1
 485 323 l 1
EndSplineSet
Validated: 1
Substitution2: "'c2sc' Capitals to Small Capitals lookup 23 subtable" hcircumflex.sc
Substitution2: "'aalt' Access All Alternates lookup 0 subtable" hcircumflex.sc
Position2: "'cpsp' Capital Spacing lookup 0 subtable" dx=5 dy=0 dh=10 dv=0
EndChar

StartChar: I
Encoding: 73 73 43
Width: 600
GlyphClass: 2
Flags: MW
HStem: 0 69<103 257 343 497 103 257> 620 68<103 257 103 497 343 497 343 343>
VStem: 257 86<69 620 69 620>
AnchorPoint: "Anchor-8" 0 0 basechar 0
AnchorPoint: "Anchor-7" 0 0 basechar 0
AnchorPoint: "Anchor-6" 300 688 basechar 0
LayerCount: 2
Fore
SplineSet
497 620 m 1
 343 620 l 1
 343 69 l 1
 497 69 l 1
 497 0 l 1
 103 0 l 1
 103 69 l 1
 257 69 l 1
 257 620 l 1
 103 620 l 1
 103 688 l 1
 497 688 l 1
 497 620 l 1
EndSplineSet
Substitution2: "'c2sc' Capitals to Small Capitals lookup 23 subtable" i.sc
Substitution2: "'aalt' Access All Alternates lookup 0 subtable" i.sc
Position2: "'cpsp' Capital Spacing lookup 0 subtable" dx=5 dy=0 dh=10 dv=0
EndChar

StartChar: IJ
Encoding: 306 306 44
Width: 601
GlyphClass: 2
Flags: MW
HStem: 0 21G<100 196 100 100> 669 20G<100 196 196 196 411 506 506 506>
VStem: 100 96<0 689> 411 95<100 689>
AnchorPoint: "Anchor-11" 0 0 basechar 0
AnchorPoint: "Anchor-10" 90 689 basechar 0
AnchorPoint: "Anchor-9" 459 689 basechar 0
AnchorPoint: "Anchor-8" 206 0 basechar 0
LayerCount: 2
Fore
SplineSet
196 0 m 1
 100 0 l 1
 100 689 l 1
 196 689 l 1
 196 0 l 1
506 96 m 2
 506 -48 437 -102 326 -137 c 1
 301 -68 l 1
 392 -32 411 8 411 100 c 2
 411 689 l 1
 506 689 l 1
 506 96 l 2
EndSplineSet
Validated: 1
Substitution2: "'c2sc' Capitals to Small Capitals lookup 23 subtable" ij.sc
Substitution2: "'aalt' Access All Alternates lookup 0 subtable" ij.sc
Position2: "'cpsp' Capital Spacing lookup 0 subtable" dx=5 dy=0 dh=10 dv=0
EndChar

StartChar: Iacute
Encoding: 205 205 45
Width: 296
GlyphClass: 2
Flags: MW
HStem: 0 21G<100 196 100 100> 669 20G<100 196 196 196>
VStem: 100 96<0 689>
AnchorPoint: "Anchor-11" 0 0 basechar 0
AnchorPoint: "Anchor-10" 90 689 basechar 0
AnchorPoint: "Anchor-9" 148 689 basechar 0
AnchorPoint: "Anchor-8" 206 0 basechar 0
LayerCount: 2
Fore
SplineSet
270 834 m 1
 54 755 l 1
 30 804 l 1
 230 911 l 1
 270 834 l 1
196 0 m 1
 100 0 l 1
 100 689 l 1
 196 689 l 1
 196 0 l 1
EndSplineSet
Validated: 1
Substitution2: "'c2sc' Capitals to Small Capitals lookup 23 subtable" iacute.sc
Substitution2: "'aalt' Access All Alternates lookup 0 subtable" iacute.sc
Position2: "'cpsp' Capital Spacing lookup 0 subtable" dx=5 dy=0 dh=10 dv=0
EndChar

StartChar: Ibreve
Encoding: 300 300 46
Width: 296
GlyphClass: 2
Flags: MW
HStem: 0 21G<100 196 100 100> 669 20G<100 196 196 196> 758 70<122.5 169.5 122.5 186.5>
VStem: 100 96<0 689>
AnchorPoint: "Anchor-11" 0 0 basechar 0
AnchorPoint: "Anchor-10" 90 689 basechar 0
AnchorPoint: "Anchor-9" 148 689 basechar 0
AnchorPoint: "Anchor-8" 206 0 basechar 0
LayerCount: 2
Fore
SplineSet
146 758 m 0
 66 758 4 807 -4 881 c 1
 57 894 l 1
 71 854 99 828 146 828 c 0
 193 828 224 854 238 894 c 1
 299 881 l 1
 291 807 227 758 146 758 c 0
196 0 m 1
 100 0 l 1
 100 689 l 1
 196 689 l 1
 196 0 l 1
EndSplineSet
Validated: 1
Substitution2: "'c2sc' Capitals to Small Capitals lookup 23 subtable" ibreve.sc
Substitution2: "'aalt' Access All Alternates lookup 0 subtable" ibreve.sc
Position2: "'cpsp' Capital Spacing lookup 0 subtable" dx=5 dy=0 dh=10 dv=0
EndChar

StartChar: Icircumflex
Encoding: 206 206 47
Width: 296
GlyphClass: 2
Flags: MW
HStem: 0 21G<100 196 100 100> 669 20G<100 196 196 196> 840 74<148 148>
VStem: 100 96<0 689>
AnchorPoint: "Anchor-11" 0 0 basechar 0
AnchorPoint: "Anchor-10" 90 689 basechar 0
AnchorPoint: "Anchor-9" 148 689 basechar 0
AnchorPoint: "Anchor-8" 206 0 basechar 0
LayerCount: 2
Fore
SplineSet
148 840 m 1
 22 759 l 1
 -18 804 l 1
 118 914 l 1
 179 914 l 1
 314 804 l 1
 275 759 l 1
 148 840 l 1
196 0 m 1
 100 0 l 1
 100 689 l 1
 196 689 l 1
 196 0 l 1
EndSplineSet
Validated: 1
Substitution2: "'c2sc' Capitals to Small Capitals lookup 23 subtable" icircumflex.sc
Substitution2: "'aalt' Access All Alternates lookup 0 subtable" icircumflex.sc
Position2: "'cpsp' Capital Spacing lookup 0 subtable" dx=5 dy=0 dh=10 dv=0
EndChar

StartChar: Idieresis
Encoding: 207 207 48
Width: 296
GlyphClass: 2
Flags: MW
HStem: 0 21G<100 196 100 100> 669 20G<100 196 196 196> 780 114<26.5 59 236 268.5>
VStem: -15 115<821 853> 100 96<0 689> 195 115<821 853>
AnchorPoint: "Anchor-11" 0 0 basechar 0
AnchorPoint: "Anchor-10" 90 689 basechar 0
AnchorPoint: "Anchor-9" 148 803 basechar 0
AnchorPoint: "Anchor-8" 206 0 basechar 0
LayerCount: 2
Fore
SplineSet
43 894 m 0xf4
 75 894 100 869 100 837 c 0
 100 805 75 780 43 780 c 0
 10 780 -15 805 -15 837 c 0
 -15 869 10 894 43 894 c 0xf4
252 894 m 0
 285 894 310 869 310 837 c 0
 310 805 285 780 252 780 c 0
 220 780 195 805 195 837 c 0
 195 869 220 894 252 894 c 0
196 0 m 1xe8
 100 0 l 1
 100 689 l 1
 196 689 l 1
 196 0 l 1xe8
EndSplineSet
Validated: 1
Substitution2: "'c2sc' Capitals to Small Capitals lookup 23 subtable" idieresis.sc
Substitution2: "'aalt' Access All Alternates lookup 0 subtable" idieresis.sc
Position2: "'cpsp' Capital Spacing lookup 0 subtable" dx=5 dy=0 dh=10 dv=0
EndChar

StartChar: Idotaccent
Encoding: 304 304 49
Width: 296
GlyphClass: 2
Flags: MW
HStem: 0 21G<100 196 100 100> 669 20G<100 196 196 196> 781 125<128 166.5>
VStem: 83 129<825.5 861> 100 96<0 689>
AnchorPoint: "Anchor-11" 0 0 basechar 0
AnchorPoint: "Anchor-10" 90 689 basechar 0
AnchorPoint: "Anchor-9" 148 689 basechar 0
AnchorPoint: "Anchor-8" 206 0 basechar 0
LayerCount: 2
Fore
SplineSet
147 906 m 0xf0
 186 906 212 879 212 843 c 0
 212 808 186 781 147 781 c 0
 109 781 83 808 83 843 c 0
 83 879 109 906 147 906 c 0xf0
196 0 m 1xe8
 100 0 l 1
 100 689 l 1
 196 689 l 1
 196 0 l 1xe8
EndSplineSet
Validated: 1
Substitution2: "'c2sc' Capitals to Small Capitals lookup 23 subtable" i.sc.loclTRK
Substitution2: "'aalt' Access All Alternates lookup 0 subtable" i.sc.loclTRK
Position2: "'cpsp' Capital Spacing lookup 0 subtable" dx=5 dy=0 dh=10 dv=0
EndChar

StartChar: Igrave
Encoding: 204 204 50
Width: 296
GlyphClass: 2
Flags: MW
HStem: 0 21G<100 196 100 100> 669 20G<100 196 196 196>
VStem: 100 96<0 689>
AnchorPoint: "Anchor-11" 0 0 basechar 0
AnchorPoint: "Anchor-10" 90 689 basechar 0
AnchorPoint: "Anchor-9" 148 689 basechar 0
AnchorPoint: "Anchor-8" 206 0 basechar 0
LayerCount: 2
Fore
SplineSet
258 804 m 1
 234 755 l 1
 18 834 l 1
 57 911 l 1
 258 804 l 1
196 0 m 1
 100 0 l 1
 100 689 l 1
 196 689 l 1
 196 0 l 1
EndSplineSet
Validated: 1
Substitution2: "'c2sc' Capitals to Small Capitals lookup 23 subtable" igrave.sc
Substitution2: "'aalt' Access All Alternates lookup 0 subtable" igrave.sc
Position2: "'cpsp' Capital Spacing lookup 0 subtable" dx=5 dy=0 dh=10 dv=0
EndChar

StartChar: Imacron
Encoding: 298 298 51
Width: 296
GlyphClass: 2
Flags: MW
HStem: 0 21G<100 196 100 100> 669 20G<100 196 196 196> 787 69<11 284 11 284>
VStem: 100 96<0 689>
AnchorPoint: "Anchor-11" 0 0 basechar 0
AnchorPoint: "Anchor-10" 90 689 basechar 0
AnchorPoint: "Anchor-9" 148 689 basechar 0
AnchorPoint: "Anchor-8" 206 0 basechar 0
LayerCount: 2
Fore
SplineSet
11 787 m 1
 11 856 l 1
 284 856 l 1
 284 787 l 1
 11 787 l 1
196 0 m 1
 100 0 l 1
 100 689 l 1
 196 689 l 1
 196 0 l 1
EndSplineSet
Validated: 1
Substitution2: "'c2sc' Capitals to Small Capitals lookup 23 subtable" imacron.sc
Substitution2: "'aalt' Access All Alternates lookup 0 subtable" imacron.sc
Position2: "'cpsp' Capital Spacing lookup 0 subtable" dx=5 dy=0 dh=10 dv=0
EndChar

StartChar: Iogonek
Encoding: 302 302 52
Width: 296
GlyphClass: 2
Flags: MW
HStem: -232 70<108.5 131> 0 21G<196 196> 669 20G<100 196 196 196>
VStem: -7 80<-129 -103> 100 96<3 689>
AnchorPoint: "Anchor-11" 0 0 basechar 0
AnchorPoint: "Anchor-10" 90 689 basechar 0
AnchorPoint: "Anchor-9" 148 689 basechar 0
AnchorPoint: "Anchor-8" 206 0 basechar 0
LayerCount: 2
Fore
SplineSet
196 0 m 1
 94 -44 73 -78 73 -114 c 0
 73 -144 88 -162 129 -162 c 0
 150 -162 166 -160 190 -155 c 1
 181 -225 l 1
 161 -229 144 -232 118 -232 c 0
 41 -232 -7 -189 -7 -131 c 0xf8
 -7 -75 27 -32 100 3 c 1
 100 689 l 1
 196 689 l 1
 196 0 l 1
EndSplineSet
Validated: 1
Substitution2: "'c2sc' Capitals to Small Capitals lookup 23 subtable" iogonek.sc
Substitution2: "'aalt' Access All Alternates lookup 0 subtable" iogonek.sc
Position2: "'cpsp' Capital Spacing lookup 0 subtable" dx=5 dy=0 dh=10 dv=0
EndChar

StartChar: Itilde
Encoding: 296 296 53
Width: 296
GlyphClass: 2
Flags: MW
HStem: 0 21G<100 196 100 100> 669 20G<100 196 196 196> 782 70<187.5 216 187.5 230> 830 70<78.5 108>
VStem: 100 96<0 689>
AnchorPoint: "Anchor-11" 0 0 basechar 0
AnchorPoint: "Anchor-10" 90 689 basechar 0
AnchorPoint: "Anchor-9" 148 689 basechar 0
AnchorPoint: "Anchor-8" 206 0 basechar 0
LayerCount: 2
Fore
SplineSet
209 782 m 0xe8
 150 782 126 830 90 830 c 0
 67 830 53 814 37 784 c 1
 -19 812 l 1
 4 861 40 900 91 900 c 0xd8
 145 900 169 852 206 852 c 0
 226 852 241 866 259 896 c 1
 315 868 l 1
 289 811 251 782 209 782 c 0xe8
196 0 m 1xd8
 100 0 l 1
 100 689 l 1
 196 689 l 1
 196 0 l 1xd8
EndSplineSet
Validated: 1
Substitution2: "'c2sc' Capitals to Small Capitals lookup 23 subtable" itilde.sc
Substitution2: "'aalt' Access All Alternates lookup 0 subtable" itilde.sc
Position2: "'cpsp' Capital Spacing lookup 0 subtable" dx=5 dy=0 dh=10 dv=0
EndChar

StartChar: J
Encoding: 74 74 54
Width: 305
GlyphClass: 2
Flags: MW
HStem: 669 20G<115 210 210 210>
VStem: 115 95<100 689>
AnchorPoint: "Anchor-11" 0 0 basechar 0
AnchorPoint: "Anchor-10" 0 0 basechar 0
AnchorPoint: "Anchor-9" 163 689 basechar 0
AnchorPoint: "Anchor-8" 0 0 basechar 0
LayerCount: 2
Fore
SplineSet
210 96 m 2
 210 -48 141 -102 30 -137 c 1
 5 -68 l 1
 96 -32 115 8 115 100 c 2
 115 689 l 1
 210 689 l 1
 210 96 l 2
EndSplineSet
Validated: 1
Substitution2: "'c2sc' Capitals to Small Capitals lookup 23 subtable" j.sc
Substitution2: "'aalt' Access All Alternates lookup 0 subtable" j.sc
Position2: "'cpsp' Capital Spacing lookup 0 subtable" dx=5 dy=0 dh=10 dv=0
EndChar

StartChar: Jcircumflex
Encoding: 308 308 55
Width: 305
GlyphClass: 2
Flags: MW
HStem: 669 20G<115 210 210 210> 840 74<163 163>
VStem: 115 95<100 689>
AnchorPoint: "Anchor-11" 0 0 basechar 0
AnchorPoint: "Anchor-10" 0 0 basechar 0
AnchorPoint: "Anchor-9" 163 689 basechar 0
AnchorPoint: "Anchor-8" 0 0 basechar 0
LayerCount: 2
Fore
SplineSet
163 840 m 1
 37 759 l 1
 -3 804 l 1
 133 914 l 1
 194 914 l 1
 329 804 l 1
 290 759 l 1
 163 840 l 1
210 96 m 2
 210 -48 141 -102 30 -137 c 1
 5 -68 l 1
 96 -32 115 8 115 100 c 2
 115 689 l 1
 210 689 l 1
 210 96 l 2
EndSplineSet
Validated: 1
Substitution2: "'c2sc' Capitals to Small Capitals lookup 23 subtable" jcircumflex.sc
Substitution2: "'aalt' Access All Alternates lookup 0 subtable" jcircumflex.sc
Position2: "'cpsp' Capital Spacing lookup 0 subtable" dx=5 dy=0 dh=10 dv=0
EndChar

StartChar: K
Encoding: 75 75 56
Width: 589
GlyphClass: 2
Flags: MW
HStem: 0 21G<100 195 100 100 472 472 472 589> 669 20G<100 195 195 195 462 570 570 570>
VStem: 100 95<0 689>
AnchorPoint: "Anchor-11" 315 0 basechar 0
AnchorPoint: "Anchor-10" 0 0 basechar 0
AnchorPoint: "Anchor-9" 328 689 basechar 0
AnchorPoint: "Anchor-8" 0 0 basechar 0
LayerCount: 2
Fore
SplineSet
195 0 m 1
 100 0 l 1
 100 689 l 1
 195 689 l 1
 195 0 l 1
309 374 m 1
 589 0 l 1
 472 0 l 1
 200 368 l 1
 462 689 l 1
 570 689 l 1
 309 374 l 1
EndSplineSet
Validated: 1
Substitution2: "'c2sc' Capitals to Small Capitals lookup 23 subtable" k.sc
Substitution2: "'aalt' Access All Alternates lookup 0 subtable" k.sc
Position2: "'cpsp' Capital Spacing lookup 0 subtable" dx=5 dy=0 dh=10 dv=0
EndChar

StartChar: Kcommaaccent
Encoding: 310 310 57
Width: 589
GlyphClass: 2
Flags: MW
HStem: 0 21G<100 195 100 100 472 472 472 589> 669 20G<100 195 195 195 462 570 570 570>
VStem: 100 95<0 689> 260 115<-141.5 -117 -141.5 -117>
AnchorPoint: "Anchor-11" 315 0 basechar 0
AnchorPoint: "Anchor-10" 0 0 basechar 0
AnchorPoint: "Anchor-9" 328 689 basechar 0
AnchorPoint: "Anchor-8" 0 0 basechar 0
LayerCount: 2
Fore
SplineSet
195 0 m 1
 100 0 l 1
 100 689 l 1
 195 689 l 1
 195 0 l 1
309 374 m 1
 589 0 l 1
 472 0 l 1
 200 368 l 1
 462 689 l 1
 570 689 l 1
 309 374 l 1
318 -77 m 0
 350 -77 375 -101 375 -133 c 0
 375 -150 370 -166 349 -210 c 2
 308 -296 l 1
 255 -296 l 1
 284 -180 l 1
 270 -168 260 -152 260 -133 c 0
 260 -101 286 -77 318 -77 c 0
EndSplineSet
Validated: 1
Substitution2: "'c2sc' Capitals to Small Capitals lookup 23 subtable" kcommaaccent.sc
Substitution2: "'aalt' Access All Alternates lookup 0 subtable" kcommaaccent.sc
Position2: "'cpsp' Capital Spacing lookup 0 subtable" dx=5 dy=0 dh=10 dv=0
EndChar

StartChar: L
Encoding: 76 76 58
Width: 498
GlyphClass: 2
Flags: MW
HStem: 0 83<195 467> 669 20G<100 195 195 195>
VStem: 100 95<83 83 83 689>
AnchorPoint: "Anchor-11" 284 0 basechar 0
AnchorPoint: "Anchor-10" 0 0 basechar 0
AnchorPoint: "Anchor-9" 148 689 basechar 0
AnchorPoint: "Anchor-8" 0 0 basechar 0
LayerCount: 2
Fore
SplineSet
195 83 m 1
 478 83 l 1
 467 0 l 1
 100 0 l 1
 100 689 l 1
 195 689 l 1
 195 83 l 1
EndSplineSet
Validated: 1
Substitution2: "'c2sc' Capitals to Small Capitals lookup 23 subtable" l.sc
Substitution2: "'aalt' Access All Alternates lookup 0 subtable" l.sc
Position2: "'cpsp' Capital Spacing lookup 0 subtable" dx=5 dy=0 dh=10 dv=0
EndChar

StartChar: Lacute
Encoding: 313 313 59
Width: 498
GlyphClass: 2
Flags: MW
HStem: 0 83<195 467> 669 20G<100 195 195 195>
VStem: 100 95<83 83 83 689>
AnchorPoint: "Anchor-11" 284 0 basechar 0
AnchorPoint: "Anchor-10" 0 0 basechar 0
AnchorPoint: "Anchor-9" 148 689 basechar 0
AnchorPoint: "Anchor-8" 0 0 basechar 0
LayerCount: 2
Fore
SplineSet
270 834 m 1
 54 755 l 1
 30 804 l 1
 230 911 l 1
 270 834 l 1
195 83 m 1
 478 83 l 1
 467 0 l 1
 100 0 l 1
 100 689 l 1
 195 689 l 1
 195 83 l 1
EndSplineSet
Validated: 1
Substitution2: "'c2sc' Capitals to Small Capitals lookup 23 subtable" lacute.sc
Substitution2: "'aalt' Access All Alternates lookup 0 subtable" lacute.sc
Position2: "'cpsp' Capital Spacing lookup 0 subtable" dx=5 dy=0 dh=10 dv=0
EndChar

StartChar: Lcaron
Encoding: 317 317 60
Width: 498
GlyphClass: 2
Flags: MW
HStem: 0 83<195 467> 669 20G<100 195 195 195 351 351> 679 20G<268 268>
VStem: 100 95<83 83 83 689>
AnchorPoint: "Anchor-11" 284 0 basechar 0
AnchorPoint: "Anchor-10" 0 0 basechar 0
AnchorPoint: "Anchor-9" 148 689 basechar 0
AnchorPoint: "Anchor-8" 0 0 basechar 0
LayerCount: 2
Fore
SplineSet
351 689 m 1xd0
 305 505 l 1
 252 513 l 1
 268 699 l 1xb0
 351 689 l 1xd0
195 83 m 1
 478 83 l 1
 467 0 l 1
 100 0 l 1
 100 689 l 1
 195 689 l 1xd0
 195 83 l 1
EndSplineSet
Validated: 1
Substitution2: "'c2sc' Capitals to Small Capitals lookup 23 subtable" lcaron.sc
Substitution2: "'aalt' Access All Alternates lookup 0 subtable" lcaron.sc
Position2: "'cpsp' Capital Spacing lookup 0 subtable" dx=5 dy=0 dh=10 dv=0
EndChar

StartChar: Lcommaaccent
Encoding: 315 315 61
Width: 498
GlyphClass: 2
Flags: MW
HStem: 0 83<195 467> 669 20G<100 195 195 195>
VStem: 100 95<83 83 83 689> 229 115<-141.5 -117 -141.5 -117>
AnchorPoint: "Anchor-11" 284 0 basechar 0
AnchorPoint: "Anchor-10" 0 0 basechar 0
AnchorPoint: "Anchor-9" 148 689 basechar 0
AnchorPoint: "Anchor-8" 0 0 basechar 0
LayerCount: 2
Fore
SplineSet
195 83 m 1
 478 83 l 1
 467 0 l 1
 100 0 l 1
 100 689 l 1
 195 689 l 1
 195 83 l 1
287 -77 m 0
 319 -77 344 -101 344 -133 c 0
 344 -150 339 -166 318 -210 c 2
 277 -296 l 1
 224 -296 l 1
 253 -180 l 1
 239 -168 229 -152 229 -133 c 0
 229 -101 255 -77 287 -77 c 0
EndSplineSet
Validated: 1
Substitution2: "'c2sc' Capitals to Small Capitals lookup 23 subtable" lcommaaccent.sc
Substitution2: "'aalt' Access All Alternates lookup 0 subtable" lcommaaccent.sc
Position2: "'cpsp' Capital Spacing lookup 0 subtable" dx=5 dy=0 dh=10 dv=0
EndChar

StartChar: Ldot
Encoding: 319 319 62
Width: 498
GlyphClass: 2
Flags: MW
HStem: 0 83<195 467> 325 125<371 409.5> 669 20G<100 195 195 195>
VStem: 100 95<83 83 83 689> 326 129<369.5 405>
AnchorPoint: "Anchor-11" 284 0 basechar 0
AnchorPoint: "Anchor-10" 0 0 basechar 0
AnchorPoint: "Anchor-9" 148 689 basechar 0
AnchorPoint: "Anchor-8" 0 0 basechar 0
LayerCount: 2
Fore
SplineSet
195 83 m 1
 478 83 l 1
 467 0 l 1
 100 0 l 1
 100 689 l 1
 195 689 l 1
 195 83 l 1
390 450 m 0
 429 450 455 423 455 387 c 0
 455 352 429 325 390 325 c 0
 352 325 326 352 326 387 c 0
 326 423 352 450 390 450 c 0
EndSplineSet
Validated: 1
Ligature2: "Ligature Substitution lookup 29 subtable" L periodcentered
Substitution2: "'c2sc' Capitals to Small Capitals lookup 23 subtable" ldot.sc
Substitution2: "'aalt' Access All Alternates lookup 0 subtable" ldot.sc
Position2: "'cpsp' Capital Spacing lookup 0 subtable" dx=5 dy=0 dh=10 dv=0
EndChar

StartChar: Lslash
Encoding: 321 321 63
Width: 514
GlyphClass: 2
Flags: MW
HStem: 0 83<211 483> 669 20G<116 211 211 211>
VStem: 116 95<83 257 257 257 399 689>
AnchorPoint: "Anchor-11" 300 0 basechar 0
AnchorPoint: "Anchor-10" 0 0 basechar 0
AnchorPoint: "Anchor-9" 164 689 basechar 0
AnchorPoint: "Anchor-8" 0 0 basechar 0
LayerCount: 2
Fore
SplineSet
494 83 m 1
 483 0 l 1
 116 0 l 1
 116 257 l 1
 60 222 l 1
 22 282 l 1
 116 340 l 1
 116 689 l 1
 211 689 l 1
 211 399 l 1
 371 498 l 1
 409 438 l 1
 211 315 l 1
 211 83 l 1
 494 83 l 1
EndSplineSet
Validated: 1
Substitution2: "'c2sc' Capitals to Small Capitals lookup 23 subtable" lslash.sc
Substitution2: "'aalt' Access All Alternates lookup 0 subtable" lslash.sc
Position2: "'cpsp' Capital Spacing lookup 0 subtable" dx=5 dy=0 dh=10 dv=0
EndChar

StartChar: M
Encoding: 77 77 64
Width: 796
GlyphClass: 2
Flags: MW
HStem: 0 21G<62 152 62 62 624 716 624 624> 593 96<188 188> 669 20G<119 247 247 247 530 659 659 659>
VStem: 62 654<0 0>
LayerCount: 2
Fore
SplineSet
716 0 m 1xb0
 624 0 l 1
 600 311 l 2
 591 419 584 535 583 592 c 1
 434 78 l 1
 345 78 l 1
 188 593 l 1xd0
 188 512 183 405 175 304 c 2
 152 0 l 1
 62 0 l 1
 119 689 l 1
 247 689 l 1
 392 188 l 1
 530 689 l 1
 659 689 l 1
 716 0 l 1xb0
EndSplineSet
Validated: 1
Substitution2: "'c2sc' Capitals to Small Capitals lookup 23 subtable" m.sc
Substitution2: "'aalt' Access All Alternates lookup 0 subtable" m.sc
Position2: "'cpsp' Capital Spacing lookup 0 subtable" dx=5 dy=0 dh=10 dv=0
EndChar

StartChar: N
Encoding: 78 78 65
Width: 683
GlyphClass: 2
Flags: MW
HStem: 0 21G<100 189 100 100 456 583 456 456> 0 103<507 507 507 583 456 507> 585 104<176 176> 669 20G<100 224 224 224 494 583 583 583>
VStem: 100 89<0 316 0 689> 494 89<313 689>
AnchorPoint: "Anchor-11" 343 0 basechar 0
AnchorPoint: "Anchor-10" 0 0 basechar 0
AnchorPoint: "Anchor-9" 353 689 basechar 0
AnchorPoint: "Anchor-8" 0 0 basechar 0
LayerCount: 2
Fore
SplineSet
583 0 m 1x9c
 456 0 l 1
 176 585 l 1xac
 181 528 189 444 189 316 c 2
 189 0 l 1
 100 0 l 1
 100 689 l 1
 224 689 l 1
 507 103 l 1x5c
 505 119 494 229 494 313 c 2
 494 689 l 1
 583 689 l 1
 583 0 l 1x9c
EndSplineSet
Validated: 1
Substitution2: "'c2sc' Capitals to Small Capitals lookup 23 subtable" n.sc
Substitution2: "'aalt' Access All Alternates lookup 0 subtable" n.sc
Position2: "'cpsp' Capital Spacing lookup 0 subtable" dx=5 dy=0 dh=10 dv=0
EndChar

StartChar: Nacute
Encoding: 323 323 66
Width: 683
GlyphClass: 2
Flags: MW
HStem: 0 21G<100 189 100 100 456 583 456 456> 0 103<507 507 507 583 456 507> 585 104<176 176> 669 20G<100 224 224 224 494 583 583 583>
VStem: 100 89<0 316 0 689> 494 89<313 689>
AnchorPoint: "Anchor-11" 343 0 basechar 0
AnchorPoint: "Anchor-10" 0 0 basechar 0
AnchorPoint: "Anchor-9" 353 689 basechar 0
AnchorPoint: "Anchor-8" 0 0 basechar 0
LayerCount: 2
Fore
SplineSet
475 834 m 1x9c
 259 755 l 1
 235 804 l 1
 435 911 l 1
 475 834 l 1x9c
583 0 m 1
 456 0 l 1
 176 585 l 1xac
 181 528 189 444 189 316 c 2
 189 0 l 1
 100 0 l 1
 100 689 l 1
 224 689 l 1
 507 103 l 1x5c
 505 119 494 229 494 313 c 2
 494 689 l 1
 583 689 l 1
 583 0 l 1
EndSplineSet
Validated: 1
Substitution2: "'c2sc' Capitals to Small Capitals lookup 23 subtable" nacute.sc
Substitution2: "'locl' Localized Forms in Latin lookup 7 subtable" Nacute.loclPLK
AlternateSubs2: "'aalt' Access All Alternates lookup 1 subtable" Nacute.loclPLK nacute.sc
Position2: "'cpsp' Capital Spacing lookup 0 subtable" dx=5 dy=0 dh=10 dv=0
EndChar

StartChar: Ncaron
Encoding: 327 327 67
Width: 683
GlyphClass: 2
Flags: MW
HStem: 0 21G<100 189 100 100 456 583 456 456> 0 103<507 507 507 583 456 507> 585 104<176 176> 669 20G<100 224 224 224 494 583 583 583> 754 74<353 353 353 384 323 353>
VStem: 100 89<0 316 0 689> 494 89<313 689>
AnchorPoint: "Anchor-11" 343 0 basechar 0
AnchorPoint: "Anchor-10" 0 0 basechar 0
AnchorPoint: "Anchor-9" 353 689 basechar 0
AnchorPoint: "Anchor-8" 0 0 basechar 0
LayerCount: 2
Fore
SplineSet
519 864 m 1x9e
 384 754 l 1
 323 754 l 1
 187 864 l 1
 227 909 l 1
 353 828 l 1
 480 909 l 1
 519 864 l 1x9e
583 0 m 1
 456 0 l 1
 176 585 l 1xae
 181 528 189 444 189 316 c 2
 189 0 l 1
 100 0 l 1
 100 689 l 1
 224 689 l 1
 507 103 l 1x5e
 505 119 494 229 494 313 c 2
 494 689 l 1
 583 689 l 1
 583 0 l 1
EndSplineSet
Validated: 1
Substitution2: "'c2sc' Capitals to Small Capitals lookup 23 subtable" ncaron.sc
Substitution2: "'aalt' Access All Alternates lookup 0 subtable" ncaron.sc
Position2: "'cpsp' Capital Spacing lookup 0 subtable" dx=5 dy=0 dh=10 dv=0
EndChar

StartChar: Ncommaaccent
Encoding: 325 325 68
Width: 683
GlyphClass: 2
Flags: MW
HStem: 0 21G<100 189 100 100 456 583 456 456> 0 103<507 507 507 583 456 507> 585 104<176 176> 669 20G<100 224 224 224 494 583 583 583>
VStem: 100 89<0 316 0 689> 288 115<-141.5 -117 -141.5 -117> 494 89<313 689>
AnchorPoint: "Anchor-11" 343 0 basechar 0
AnchorPoint: "Anchor-10" 0 0 basechar 0
AnchorPoint: "Anchor-9" 353 689 basechar 0
AnchorPoint: "Anchor-8" 0 0 basechar 0
LayerCount: 2
Fore
SplineSet
583 0 m 1x9a
 456 0 l 1
 176 585 l 1xae
 181 528 189 444 189 316 c 2
 189 0 l 1
 100 0 l 1
 100 689 l 1
 224 689 l 1
 507 103 l 1x5a
 505 119 494 229 494 313 c 2
 494 689 l 1
 583 689 l 1
 583 0 l 1x9a
346 -77 m 0
 378 -77 403 -101 403 -133 c 0
 403 -150 398 -166 377 -210 c 2
 336 -296 l 1
 283 -296 l 1
 312 -180 l 1
 298 -168 288 -152 288 -133 c 0
 288 -101 314 -77 346 -77 c 0
EndSplineSet
Validated: 1
Substitution2: "'c2sc' Capitals to Small Capitals lookup 23 subtable" ncommaaccent.sc
Substitution2: "'aalt' Access All Alternates lookup 0 subtable" ncommaaccent.sc
Position2: "'cpsp' Capital Spacing lookup 0 subtable" dx=5 dy=0 dh=10 dv=0
EndChar

StartChar: Eng
Encoding: 330 330 69
Width: 683
GlyphClass: 2
Flags: MW
HStem: -212 21G<416 416> 0 21G<100 189 100 100 454 502 454 454> 583 106<176 180 176 176>
VStem: 100 89<0 316 0 689> 494 89<313 689>
LayerCount: 2
Fore
SplineSet
583 689 m 1
 583 32 l 2
 583 -117 528 -162 416 -212 c 1
 391 -150 l 1
 459 -118 497 -94 502 0 c 1
 454 0 l 1
 180 583 l 1
 176 583 l 1
 181 526 189 444 189 316 c 2
 189 0 l 1
 100 0 l 1
 100 689 l 1
 226 689 l 1
 503 103 l 1
 507 103 l 1
 505 119 494 229 494 313 c 2
 494 689 l 1
 583 689 l 1
EndSplineSet
Validated: 1
Substitution2: "'c2sc' Capitals to Small Capitals lookup 23 subtable" eng.sc
Substitution2: "'aalt' Access All Alternates lookup 0 subtable" eng.sc
Position2: "'cpsp' Capital Spacing lookup 0 subtable" dx=5 dy=0 dh=10 dv=0
EndChar

StartChar: Ntilde
Encoding: 209 209 70
Width: 683
GlyphClass: 2
Flags: MW
HStem: 0 21G<100 189 100 100 456 583 456 456> 0 103<507 507 507 583 456 507> 585 104<176 176> 669 20G<100 224 224 224 494 583 583 583> 782 70<392.5 421 392.5 435> 830 70<283.5 313>
VStem: 100 89<0 316 0 689> 494 89<313 689>
AnchorPoint: "Anchor-11" 343 0 basechar 0
AnchorPoint: "Anchor-10" 0 0 basechar 0
AnchorPoint: "Anchor-9" 353 689 basechar 0
AnchorPoint: "Anchor-8" 0 0 basechar 0
LayerCount: 2
Fore
SplineSet
414 782 m 0x9b
 355 782 331 830 295 830 c 0
 272 830 258 814 242 784 c 1
 186 812 l 1
 209 861 245 900 296 900 c 0x97
 350 900 374 852 411 852 c 0
 431 852 446 866 464 896 c 1
 520 868 l 1
 494 811 456 782 414 782 c 0x9b
583 0 m 1x97
 456 0 l 1
 176 585 l 1xa7
 181 528 189 444 189 316 c 2
 189 0 l 1
 100 0 l 1
 100 689 l 1
 224 689 l 1
 507 103 l 1x57
 505 119 494 229 494 313 c 2
 494 689 l 1
 583 689 l 1
 583 0 l 1x97
EndSplineSet
Validated: 1
Substitution2: "'c2sc' Capitals to Small Capitals lookup 23 subtable" ntilde.sc
Substitution2: "'aalt' Access All Alternates lookup 0 subtable" ntilde.sc
Position2: "'cpsp' Capital Spacing lookup 0 subtable" dx=5 dy=0 dh=10 dv=0
EndChar

StartChar: O
Encoding: 79 79 71
Width: 692
GlyphClass: 2
Flags: MW
HStem: -12 78<290 404 290 432.5> 623 78<288.5 405>
VStem: 55 101<243.5 442.5 243.5 456.5> 536 101<244 443>
AnchorPoint: "Anchor-11" 0 0 basechar 0
AnchorPoint: "Anchor-10" 113 689 basechar 0
AnchorPoint: "Anchor-9" 350 689 basechar 0
AnchorPoint: "Anchor-8" 0 0 basechar 0
LayerCount: 2
Fore
SplineSet
346 701 m 0
 519 701 637 576 637 344 c 0
 637 116 519 -12 346 -12 c 0
 174 -12 55 112 55 343 c 0
 55 570 174 701 346 701 c 0
346 623 m 0
 231 623 156 542 156 343 c 0
 156 144 234 66 346 66 c 0
 462 66 536 144 536 344 c 0
 536 542 464 623 346 623 c 0
EndSplineSet
Validated: 1
Substitution2: "Single Substitution lookup 30 subtable" ordmasculine
Substitution2: "'c2sc' Capitals to Small Capitals lookup 23 subtable" o.sc
AlternateSubs2: "'aalt' Access All Alternates lookup 1 subtable" ordmasculine o.sc
Position2: "'cpsp' Capital Spacing lookup 0 subtable" dx=5 dy=0 dh=10 dv=0
EndChar

StartChar: Oacute
Encoding: 211 211 72
Width: 692
GlyphClass: 2
Flags: MW
HStem: -12 78<290 404 290 432.5> 623 78<288.5 405>
VStem: 55 101<243.5 442.5 243.5 456.5> 536 101<244 443>
AnchorPoint: "Anchor-11" 0 0 basechar 0
AnchorPoint: "Anchor-10" 113 689 basechar 0
AnchorPoint: "Anchor-9" 350 689 basechar 0
AnchorPoint: "Anchor-8" 0 0 basechar 0
LayerCount: 2
Fore
SplineSet
472 834 m 1
 256 755 l 1
 232 804 l 1
 432 911 l 1
 472 834 l 1
346 701 m 0
 519 701 637 576 637 344 c 0
 637 116 519 -12 346 -12 c 0
 174 -12 55 112 55 343 c 0
 55 570 174 701 346 701 c 0
346 623 m 0
 231 623 156 542 156 343 c 0
 156 144 234 66 346 66 c 0
 462 66 536 144 536 344 c 0
 536 542 464 623 346 623 c 0
EndSplineSet
Validated: 1
Substitution2: "'c2sc' Capitals to Small Capitals lookup 23 subtable" oacute.sc
Substitution2: "'locl' Localized Forms in Latin lookup 7 subtable" Oacute.loclPLK
AlternateSubs2: "'aalt' Access All Alternates lookup 1 subtable" Oacute.loclPLK oacute.sc
Position2: "'cpsp' Capital Spacing lookup 0 subtable" dx=5 dy=0 dh=10 dv=0
EndChar

StartChar: Obreve
Encoding: 334 334 73
Width: 692
GlyphClass: 2
Flags: MW
HStem: -12 78<290 404 290 432.5> 623 78<288.5 405> 758 70<324.5 371.5 324.5 388.5>
VStem: 55 101<243.5 442.5 243.5 456.5> 536 101<244 443>
AnchorPoint: "Anchor-11" 0 0 basechar 0
AnchorPoint: "Anchor-10" 113 689 basechar 0
AnchorPoint: "Anchor-9" 350 689 basechar 0
AnchorPoint: "Anchor-8" 0 0 basechar 0
LayerCount: 2
Fore
SplineSet
348 758 m 0
 268 758 206 807 198 881 c 1
 259 894 l 1
 273 854 301 828 348 828 c 0
 395 828 426 854 440 894 c 1
 501 881 l 1
 493 807 429 758 348 758 c 0
346 701 m 0
 519 701 637 576 637 344 c 0
 637 116 519 -12 346 -12 c 0
 174 -12 55 112 55 343 c 0
 55 570 174 701 346 701 c 0
346 623 m 0
 231 623 156 542 156 343 c 0
 156 144 234 66 346 66 c 0
 462 66 536 144 536 344 c 0
 536 542 464 623 346 623 c 0
EndSplineSet
Validated: 1
Substitution2: "'c2sc' Capitals to Small Capitals lookup 23 subtable" obreve.sc
Substitution2: "'aalt' Access All Alternates lookup 0 subtable" obreve.sc
Position2: "'cpsp' Capital Spacing lookup 0 subtable" dx=5 dy=0 dh=10 dv=0
EndChar

StartChar: Ocircumflex
Encoding: 212 212 74
Width: 692
GlyphClass: 2
Flags: MW
HStem: -12 78<290 404 290 432.5> 623 78<288.5 405> 840 74<350 350>
VStem: 55 101<243.5 442.5 243.5 456.5> 536 101<244 443>
AnchorPoint: "Anchor-11" 0 0 basechar 0
AnchorPoint: "Anchor-10" 113 689 basechar 0
AnchorPoint: "Anchor-9" 350 689 basechar 0
AnchorPoint: "Anchor-8" 0 0 basechar 0
LayerCount: 2
Fore
SplineSet
350 840 m 1
 224 759 l 1
 184 804 l 1
 320 914 l 1
 381 914 l 1
 516 804 l 1
 477 759 l 1
 350 840 l 1
346 701 m 0
 519 701 637 576 637 344 c 0
 637 116 519 -12 346 -12 c 0
 174 -12 55 112 55 343 c 0
 55 570 174 701 346 701 c 0
346 623 m 0
 231 623 156 542 156 343 c 0
 156 144 234 66 346 66 c 0
 462 66 536 144 536 344 c 0
 536 542 464 623 346 623 c 0
EndSplineSet
Validated: 1
Substitution2: "'c2sc' Capitals to Small Capitals lookup 23 subtable" ocircumflex.sc
Substitution2: "'aalt' Access All Alternates lookup 0 subtable" ocircumflex.sc
Position2: "'cpsp' Capital Spacing lookup 0 subtable" dx=5 dy=0 dh=10 dv=0
EndChar

StartChar: Odieresis
Encoding: 214 214 75
Width: 692
GlyphClass: 2
Flags: MW
HStem: -12 78<290 404 290 432.5> 623 78<288.5 405> 780 114<228.5 261 438 470.5>
VStem: 55 101<243.5 442.5 243.5 456.5> 187 115<821 853> 397 115<821 853> 536 101<244 443>
AnchorPoint: "Anchor-11" 0 0 basechar 0
AnchorPoint: "Anchor-10" 113 689 basechar 0
AnchorPoint: "Anchor-9" 350 803 basechar 0
AnchorPoint: "Anchor-8" 0 0 basechar 0
LayerCount: 2
Fore
SplineSet
245 894 m 0
 277 894 302 869 302 837 c 0
 302 805 277 780 245 780 c 0
 212 780 187 805 187 837 c 0
 187 869 212 894 245 894 c 0
454 894 m 0xfe
 487 894 512 869 512 837 c 0
 512 805 487 780 454 780 c 0
 422 780 397 805 397 837 c 0
 397 869 422 894 454 894 c 0xfe
346 701 m 0xfa
 519 701 637 576 637 344 c 0
 637 116 519 -12 346 -12 c 0
 174 -12 55 112 55 343 c 0
 55 570 174 701 346 701 c 0xfa
346 623 m 0
 231 623 156 542 156 343 c 0
 156 144 234 66 346 66 c 0
 462 66 536 144 536 344 c 0
 536 542 464 623 346 623 c 0
EndSplineSet
Validated: 1
Substitution2: "'c2sc' Capitals to Small Capitals lookup 23 subtable" odieresis.sc
Substitution2: "'aalt' Access All Alternates lookup 0 subtable" odieresis.sc
Position2: "'cpsp' Capital Spacing lookup 0 subtable" dx=5 dy=0 dh=10 dv=0
EndChar

StartChar: Ograve
Encoding: 210 210 76
Width: 692
GlyphClass: 2
Flags: MW
HStem: -12 78<290 404 290 432.5> 623 78<288.5 405>
VStem: 55 101<243.5 442.5 243.5 456.5> 536 101<244 443>
AnchorPoint: "Anchor-11" 0 0 basechar 0
AnchorPoint: "Anchor-10" 113 689 basechar 0
AnchorPoint: "Anchor-9" 350 689 basechar 0
AnchorPoint: "Anchor-8" 0 0 basechar 0
LayerCount: 2
Fore
SplineSet
460 804 m 1
 436 755 l 1
 220 834 l 1
 259 911 l 1
 460 804 l 1
346 701 m 0
 519 701 637 576 637 344 c 0
 637 116 519 -12 346 -12 c 0
 174 -12 55 112 55 343 c 0
 55 570 174 701 346 701 c 0
346 623 m 0
 231 623 156 542 156 343 c 0
 156 144 234 66 346 66 c 0
 462 66 536 144 536 344 c 0
 536 542 464 623 346 623 c 0
EndSplineSet
Validated: 1
Substitution2: "'c2sc' Capitals to Small Capitals lookup 23 subtable" ograve.sc
Substitution2: "'aalt' Access All Alternates lookup 0 subtable" ograve.sc
Position2: "'cpsp' Capital Spacing lookup 0 subtable" dx=5 dy=0 dh=10 dv=0
EndChar

StartChar: Ohungarumlaut
Encoding: 336 336 77
Width: 692
GlyphClass: 2
Flags: MW
HStem: -12 78<290 404 290 432.5> 623 78<288.5 405>
VStem: 55 101<243.5 442.5 243.5 456.5> 536 101<244 443>
AnchorPoint: "Anchor-11" 0 0 basechar 0
AnchorPoint: "Anchor-10" 113 689 basechar 0
AnchorPoint: "Anchor-9" 350 689 basechar 0
AnchorPoint: "Anchor-8" 0 0 basechar 0
LayerCount: 2
Fore
SplineSet
391 917 m 1
 295 765 l 1
 237 790 l 1
 313 958 l 1
 391 917 l 1
543 917 m 1
 437 760 l 1
 379 785 l 1
 465 958 l 1
 543 917 l 1
346 701 m 0
 519 701 637 576 637 344 c 0
 637 116 519 -12 346 -12 c 0
 174 -12 55 112 55 343 c 0
 55 570 174 701 346 701 c 0
346 623 m 0
 231 623 156 542 156 343 c 0
 156 144 234 66 346 66 c 0
 462 66 536 144 536 344 c 0
 536 542 464 623 346 623 c 0
EndSplineSet
Validated: 1
Substitution2: "'c2sc' Capitals to Small Capitals lookup 23 subtable" ohungarumlaut.sc
Substitution2: "'aalt' Access All Alternates lookup 0 subtable" ohungarumlaut.sc
Position2: "'cpsp' Capital Spacing lookup 0 subtable" dx=5 dy=0 dh=10 dv=0
EndChar

StartChar: Omacron
Encoding: 332 332 78
Width: 692
GlyphClass: 2
Flags: MW
HStem: -12 78<290 404 290 432.5> 623 78<288.5 405> 787 69<213 486 213 486>
VStem: 55 101<243.5 442.5 243.5 456.5> 213 273<787 856 787 856> 536 101<244 443>
AnchorPoint: "Anchor-11" 0 0 basechar 0
AnchorPoint: "Anchor-10" 113 689 basechar 0
AnchorPoint: "Anchor-9" 350 689 basechar 0
AnchorPoint: "Anchor-8" 0 0 basechar 0
LayerCount: 2
Fore
SplineSet
213 787 m 1
 213 856 l 1
 486 856 l 1
 486 787 l 1
 213 787 l 1
346 701 m 0
 519 701 637 576 637 344 c 0
 637 116 519 -12 346 -12 c 0
 174 -12 55 112 55 343 c 0
 55 570 174 701 346 701 c 0
346 623 m 0
 231 623 156 542 156 343 c 0
 156 144 234 66 346 66 c 0
 462 66 536 144 536 344 c 0
 536 542 464 623 346 623 c 0
EndSplineSet
Validated: 1
Substitution2: "'c2sc' Capitals to Small Capitals lookup 23 subtable" omacron.sc
Substitution2: "'aalt' Access All Alternates lookup 0 subtable" omacron.sc
Position2: "'cpsp' Capital Spacing lookup 0 subtable" dx=5 dy=0 dh=10 dv=0
EndChar

StartChar: Oslash
Encoding: 216 216 79
Width: 692
GlyphClass: 2
Flags: MW
HStem: -12 78<337 404 337 432.5> -5 21G<279 279> 623 78<288.5 355> 674 20G<412 412>
VStem: 55 101<277 442.5 277 456.5> 536 101<244 411.5>
AnchorPoint: "Anchor-11" 0 0 basechar 0
AnchorPoint: "Anchor-10" 0 0 basechar 0
AnchorPoint: "Anchor-9" 341 704 basechar 0
AnchorPoint: "Anchor-8" 0 0 basechar 0
LayerCount: 2
Fore
SplineSet
486 667 m 1xac
 580 616 637 506 637 344 c 0
 637 116 519 -12 346 -12 c 0xac
 323 -12 301 -10 279 -5 c 1
 244 -127 l 1
 165 -106 l 1
 205 22 l 1
 112 74 55 183 55 343 c 0
 55 570 174 701 346 701 c 0x6c
 369 701 391 699 412 694 c 1x9c
 449 819 l 1
 528 798 l 1
 486 667 l 1xac
346 623 m 0
 231 623 156 542 156 343 c 0
 156 211 187 135 238 97 c 1
 396 618 l 1
 380 621 364 623 346 623 c 0
346 66 m 0
 462 66 536 144 536 344 c 0
 536 479 506 556 452 594 c 1
 296 71 l 1
 311 68 328 66 346 66 c 0
EndSplineSet
Validated: 1
Substitution2: "'c2sc' Capitals to Small Capitals lookup 23 subtable" oslash.sc
Substitution2: "'aalt' Access All Alternates lookup 0 subtable" oslash.sc
Position2: "'cpsp' Capital Spacing lookup 0 subtable" dx=5 dy=0 dh=10 dv=0
EndChar

StartChar: Oslashacute
Encoding: 510 510 80
Width: 692
GlyphClass: 2
Flags: MW
HStem: -12 78<337 404 337 432.5> -5 21G<279 279> 623 78<288.5 355> 674 20G<412 412>
VStem: 55 101<277 442.5 277 456.5> 536 101<244 411.5>
AnchorPoint: "Anchor-11" 0 0 basechar 0
AnchorPoint: "Anchor-10" 0 0 basechar 0
AnchorPoint: "Anchor-9" 341 704 basechar 0
AnchorPoint: "Anchor-8" 0 0 basechar 0
LayerCount: 2
Fore
SplineSet
247 770 m 1xac
 223 819 l 1
 423 926 l 1
 463 849 l 1
 247 770 l 1xac
486 667 m 1
 580 616 637 506 637 344 c 0
 637 116 519 -12 346 -12 c 0xac
 323 -12 301 -10 279 -5 c 1
 244 -127 l 1
 165 -106 l 1
 205 22 l 1
 112 74 55 183 55 343 c 0
 55 570 174 701 346 701 c 0x6c
 369 701 391 699 412 694 c 1x9c
 449 819 l 1
 528 798 l 1
 486 667 l 1
346 623 m 0
 231 623 156 542 156 343 c 0
 156 211 187 135 238 97 c 1
 396 618 l 1
 380 621 364 623 346 623 c 0
346 66 m 0
 462 66 536 144 536 344 c 0
 536 479 506 556 452 594 c 1
 296 71 l 1
 311 68 328 66 346 66 c 0
EndSplineSet
Validated: 1
Substitution2: "'c2sc' Capitals to Small Capitals lookup 23 subtable" oslashacute.sc
Substitution2: "'aalt' Access All Alternates lookup 0 subtable" oslashacute.sc
Position2: "'cpsp' Capital Spacing lookup 0 subtable" dx=5 dy=0 dh=10 dv=0
EndChar

StartChar: Otilde
Encoding: 213 213 81
Width: 692
GlyphClass: 2
Flags: MW
HStem: -12 78<290 404 290 432.5> 623 78<288.5 405> 782 70<389.5 418 389.5 432> 830 70<280.5 310>
VStem: 55 101<243.5 442.5 243.5 456.5> 536 101<244 443>
AnchorPoint: "Anchor-11" 0 0 basechar 0
AnchorPoint: "Anchor-10" 113 689 basechar 0
AnchorPoint: "Anchor-9" 350 689 basechar 0
AnchorPoint: "Anchor-8" 0 0 basechar 0
LayerCount: 2
Fore
SplineSet
411 782 m 0xec
 352 782 328 830 292 830 c 0
 269 830 255 814 239 784 c 1
 183 812 l 1
 206 861 242 900 293 900 c 0xdc
 347 900 371 852 408 852 c 0
 428 852 443 866 461 896 c 1
 517 868 l 1
 491 811 453 782 411 782 c 0xec
346 701 m 0
 519 701 637 576 637 344 c 0
 637 116 519 -12 346 -12 c 0
 174 -12 55 112 55 343 c 0
 55 570 174 701 346 701 c 0
346 623 m 0
 231 623 156 542 156 343 c 0
 156 144 234 66 346 66 c 0
 462 66 536 144 536 344 c 0
 536 542 464 623 346 623 c 0
EndSplineSet
Validated: 1
Substitution2: "'c2sc' Capitals to Small Capitals lookup 23 subtable" otilde.sc
Substitution2: "'aalt' Access All Alternates lookup 0 subtable" otilde.sc
Position2: "'cpsp' Capital Spacing lookup 0 subtable" dx=5 dy=0 dh=10 dv=0
EndChar

StartChar: OE
Encoding: 338 338 82
Width: 908
GlyphClass: 2
Flags: MW
HStem: -12 78<285 345.5> 0 66<285 843 285 406> 0 76<519 843 519 843> 312 76<616 789 616 616> 613 76<526 824 526 526> 623 66<283.5 835> 623 78<283.5 346.5 253.5 390>
VStem: 55 101<243.5 442.5 243.5 456.5> 516 99<388 388 388 443>
AnchorPoint: "Anchor-11" 0 0 basechar 0
AnchorPoint: "Anchor-10" 0 0 basechar 0
AnchorPoint: "Anchor-9" 448 689 basechar 0
AnchorPoint: "Anchor-8" 0 0 basechar 0
LayerCount: 2
Fore
SplineSet
843 0 m 1x3980
 406 0 l 1x3980
 383 -8 358 -12 333 -12 c 0
 174 -12 55 112 55 343 c 0
 55 570 174 701 333 701 c 0x9380
 360 701 385 697 410 689 c 1
 835 689 l 1
 824 613 l 1
 526 613 l 1
 577 562 608 484 615 388 c 1
 789 388 l 1
 789 312 l 1
 616 312 l 1
 610 214 577 131 519 76 c 1
 843 76 l 1
 843 0 l 1x3980
156 343 m 0x5580
 156 144 234 66 336 66 c 0
 442 66 516 144 516 344 c 0
 516 542 444 623 336 623 c 0
 231 623 156 542 156 343 c 0x5580
EndSplineSet
Validated: 1
Substitution2: "'c2sc' Capitals to Small Capitals lookup 23 subtable" oe.sc
Substitution2: "'aalt' Access All Alternates lookup 0 subtable" oe.sc
Position2: "'cpsp' Capital Spacing lookup 0 subtable" dx=5 dy=0 dh=10 dv=0
EndChar

StartChar: P
Encoding: 80 80 83
Width: 581
GlyphClass: 2
Flags: MW
HStem: 0 21G<100 195 100 100> 253 75<195 278 278 282 195 278> 615 74<195 280 195 195>
VStem: 100 95<0 253 0 328 328 615> 448 101<416.5 526.5>
LayerCount: 2
Fore
SplineSet
281 689 m 2
 447 689 549 621 549 476 c 0
 549 318 434 253 282 253 c 2
 195 253 l 1
 195 0 l 1
 100 0 l 1
 100 689 l 1
 281 689 l 2
278 328 m 2
 380 328 448 358 448 475 c 0
 448 578 382 615 280 615 c 2
 195 615 l 1
 195 328 l 1
 278 328 l 2
EndSplineSet
Validated: 1
Substitution2: "'c2sc' Capitals to Small Capitals lookup 23 subtable" p.sc
Substitution2: "'aalt' Access All Alternates lookup 0 subtable" p.sc
Position2: "'cpsp' Capital Spacing lookup 0 subtable" dx=5 dy=0 dh=10 dv=0
EndChar

StartChar: Thorn
Encoding: 222 222 84
Width: 581
GlyphClass: 2
Flags: MW
HStem: 0 21G<100 195 100 100> 127 75<195 278 278 282 195 278> 497 74<195 280 195 281> 669 20G<100 195 195 195>
VStem: 100 95<0 127 0 202 202 497 571 689> 448 101<292.5 406.5>
LayerCount: 2
Fore
SplineSet
281 571 m 2
 447 571 549 503 549 354 c 0
 549 192 434 127 282 127 c 2
 195 127 l 1
 195 0 l 1
 100 0 l 1
 100 689 l 1
 195 689 l 1
 195 571 l 1
 281 571 l 2
278 202 m 2
 380 202 448 232 448 353 c 0
 448 460 382 497 280 497 c 2
 195 497 l 1
 195 202 l 1
 278 202 l 2
EndSplineSet
Validated: 1
Substitution2: "'c2sc' Capitals to Small Capitals lookup 23 subtable" thorn.sc
Substitution2: "'aalt' Access All Alternates lookup 0 subtable" thorn.sc
Position2: "'cpsp' Capital Spacing lookup 0 subtable" dx=5 dy=0 dh=10 dv=0
EndChar

StartChar: Q
Encoding: 81 81 85
Width: 689
GlyphClass: 2
Flags: MW
HStem: -10 49 -10 76<290 404 290 406.5> 623 78<288.5 405>
VStem: 55 101<243.5 442.5 243.5 456.5> 536 101<259.5 443>
LayerCount: 2
Fore
SplineSet
479 39 m 1xb8
 558 39 617 11 666 -23 c 1xb8
 604 -103 l 1
 526 -33 469 -10 344 -10 c 0x78
 174 -10 55 112 55 343 c 0
 55 570 174 701 346 701 c 0
 519 701 637 576 637 344 c 0
 637 175 577 90 479 39 c 1xb8
156 343 m 0x78
 156 144 234 66 346 66 c 0
 462 66 536 144 536 344 c 0
 536 542 464 623 346 623 c 0
 231 623 156 542 156 343 c 0x78
EndSplineSet
Validated: 1
Substitution2: "'c2sc' Capitals to Small Capitals lookup 23 subtable" q.sc
Substitution2: "'aalt' Access All Alternates lookup 0 subtable" q.sc
Position2: "'cpsp' Capital Spacing lookup 0 subtable" dx=5 dy=0 dh=10 dv=0
EndChar

StartChar: R
Encoding: 82 82 86
Width: 605
GlyphClass: 2
Flags: MW
HStem: 0 21G<100 195 100 100 467 467 467 580> 292 73<195 291 291 302 195 291> 615 74<195 280 195 195>
VStem: 100 95<0 292 0 365 365 615> 442 101<447.5 537>
AnchorPoint: "Anchor-11" 309 0 basechar 0
AnchorPoint: "Anchor-10" 0 0 basechar 0
AnchorPoint: "Anchor-9" 299 689 basechar 0
AnchorPoint: "Anchor-8" 0 0 basechar 0
LayerCount: 2
Fore
SplineSet
302 292 m 1
 195 292 l 1
 195 0 l 1
 100 0 l 1
 100 689 l 1
 281 689 l 2
 453 689 543 623 543 494 c 0
 543 397 493 339 394 309 c 1
 580 0 l 1
 467 0 l 1
 302 292 l 1
291 365 m 2
 387 365 442 401 442 494 c 0
 442 580 393 615 280 615 c 2
 195 615 l 1
 195 365 l 1
 291 365 l 2
EndSplineSet
Validated: 1
Substitution2: "'c2sc' Capitals to Small Capitals lookup 23 subtable" r.sc
Substitution2: "'aalt' Access All Alternates lookup 0 subtable" r.sc
Position2: "'cpsp' Capital Spacing lookup 0 subtable" dx=5 dy=0 dh=10 dv=0
EndChar

StartChar: Racute
Encoding: 340 340 87
Width: 605
GlyphClass: 2
Flags: MW
HStem: 0 21G<100 195 100 100 467 467 467 580> 292 73<195 291 291 302 195 291> 615 74<195 280 195 195>
VStem: 100 95<0 292 0 365 365 615> 442 101<447.5 537>
AnchorPoint: "Anchor-11" 309 0 basechar 0
AnchorPoint: "Anchor-10" 0 0 basechar 0
AnchorPoint: "Anchor-9" 299 689 basechar 0
AnchorPoint: "Anchor-8" 0 0 basechar 0
LayerCount: 2
Fore
SplineSet
205 755 m 1
 181 804 l 1
 381 911 l 1
 421 834 l 1
 205 755 l 1
302 292 m 1
 195 292 l 1
 195 0 l 1
 100 0 l 1
 100 689 l 1
 281 689 l 2
 453 689 543 623 543 494 c 0
 543 397 493 339 394 309 c 1
 580 0 l 1
 467 0 l 1
 302 292 l 1
291 365 m 2
 387 365 442 401 442 494 c 0
 442 580 393 615 280 615 c 2
 195 615 l 1
 195 365 l 1
 291 365 l 2
EndSplineSet
Validated: 1
Substitution2: "'c2sc' Capitals to Small Capitals lookup 23 subtable" racute.sc
Substitution2: "'aalt' Access All Alternates lookup 0 subtable" racute.sc
Position2: "'cpsp' Capital Spacing lookup 0 subtable" dx=5 dy=0 dh=10 dv=0
EndChar

StartChar: Rcaron
Encoding: 344 344 88
Width: 605
GlyphClass: 2
Flags: MW
HStem: 0 21G<100 195 100 100 467 467 467 580> 292 73<195 291 291 302 195 291> 615 74<195 280 195 195> 754 74<269 299 299 299 299 330>
VStem: 100 95<0 292 0 365 365 615> 442 101<447.5 537>
AnchorPoint: "Anchor-11" 309 0 basechar 0
AnchorPoint: "Anchor-10" 0 0 basechar 0
AnchorPoint: "Anchor-9" 299 689 basechar 0
AnchorPoint: "Anchor-8" 0 0 basechar 0
LayerCount: 2
Fore
SplineSet
269 754 m 1
 133 864 l 1
 173 909 l 1
 299 828 l 1
 426 909 l 1
 465 864 l 1
 330 754 l 1
 269 754 l 1
302 292 m 1
 195 292 l 1
 195 0 l 1
 100 0 l 1
 100 689 l 1
 281 689 l 2
 453 689 543 623 543 494 c 0
 543 397 493 339 394 309 c 1
 580 0 l 1
 467 0 l 1
 302 292 l 1
291 365 m 2
 387 365 442 401 442 494 c 0
 442 580 393 615 280 615 c 2
 195 615 l 1
 195 365 l 1
 291 365 l 2
EndSplineSet
Validated: 1
Substitution2: "'c2sc' Capitals to Small Capitals lookup 23 subtable" rcaron.sc
Substitution2: "'aalt' Access All Alternates lookup 0 subtable" rcaron.sc
Position2: "'cpsp' Capital Spacing lookup 0 subtable" dx=5 dy=0 dh=10 dv=0
EndChar

StartChar: Rcommaaccent
Encoding: 342 342 89
Width: 605
GlyphClass: 2
Flags: MW
HStem: 0 21G<100 195 100 100 467 580 467 467> 292 73<195 291 291 302 195 291> 615 74<195 280 195 195>
VStem: 100 95<0 292 0 365 365 615> 254 115<-141.5 -117 -141.5 -117> 442 101<447.5 537>
AnchorPoint: "Anchor-11" 309 0 basechar 0
AnchorPoint: "Anchor-10" 0 0 basechar 0
AnchorPoint: "Anchor-9" 299 689 basechar 0
AnchorPoint: "Anchor-8" 0 0 basechar 0
LayerCount: 2
Fore
SplineSet
580 0 m 1
 467 0 l 1
 302 292 l 1
 195 292 l 1
 195 0 l 1
 100 0 l 1
 100 689 l 1
 281 689 l 2
 453 689 543 623 543 494 c 0
 543 397 493 339 394 309 c 1
 580 0 l 1
291 365 m 2
 387 365 442 401 442 494 c 0
 442 580 393 615 280 615 c 2
 195 615 l 1
 195 365 l 1
 291 365 l 2
312 -77 m 0
 344 -77 369 -101 369 -133 c 0
 369 -150 364 -166 343 -210 c 2
 302 -296 l 1
 249 -296 l 1
 278 -180 l 1
 264 -168 254 -152 254 -133 c 0
 254 -101 280 -77 312 -77 c 0
EndSplineSet
Validated: 1
Substitution2: "'c2sc' Capitals to Small Capitals lookup 23 subtable" rcommaaccent.sc
Substitution2: "'aalt' Access All Alternates lookup 0 subtable" rcommaaccent.sc
Position2: "'cpsp' Capital Spacing lookup 0 subtable" dx=5 dy=0 dh=10 dv=0
EndChar

StartChar: S
Encoding: 83 83 90
Width: 545
GlyphClass: 2
Flags: MW
HStem: -12 78<220.5 298.5 220.5 336.5> 623 78<239.5 302.5>
VStem: 53 97<496 558 496 574> 406 99<147.5 222.5>
AnchorPoint: "Anchor-11" 267 0 basechar 0
AnchorPoint: "Anchor-10" 0 0 basechar 0
AnchorPoint: "Anchor-9" 276 689 basechar 0
AnchorPoint: "Anchor-8" 0 0 basechar 0
LayerCount: 2
Fore
SplineSet
270 701 m 0
 365 701 425 673 483 621 c 1
 429 561 l 1
 379 605 331 623 274 623 c 0
 205 623 150 591 150 525 c 0
 150 467 177 439 301 401 c 0
 411 367 505 324 505 192 c 0
 505 72 414 -12 259 -12 c 0
 160 -12 82 21 25 77 c 1
 80 138 l 1
 127 93 183 66 258 66 c 0
 339 66 406 106 406 189 c 0
 406 256 374 286 257 322 c 0
 123 363 53 414 53 521 c 0
 53 627 143 701 270 701 c 0
EndSplineSet
Validated: 1
Substitution2: "'c2sc' Capitals to Small Capitals lookup 23 subtable" s.sc
Substitution2: "'aalt' Access All Alternates lookup 0 subtable" s.sc
Position2: "'cpsp' Capital Spacing lookup 0 subtable" dx=5 dy=0 dh=10 dv=0
EndChar

StartChar: Sacute
Encoding: 346 346 91
Width: 545
GlyphClass: 2
Flags: MW
HStem: -12 78<220.5 298.5 220.5 336.5> 623 78<239.5 302.5>
VStem: 53 97<496 558 496 574> 406 99<147.5 222.5>
AnchorPoint: "Anchor-11" 267 0 basechar 0
AnchorPoint: "Anchor-10" 0 0 basechar 0
AnchorPoint: "Anchor-9" 276 689 basechar 0
AnchorPoint: "Anchor-8" 0 0 basechar 0
LayerCount: 2
Fore
SplineSet
398 834 m 1
 182 755 l 1
 158 804 l 1
 358 911 l 1
 398 834 l 1
270 701 m 0
 365 701 425 673 483 621 c 1
 429 561 l 1
 379 605 331 623 274 623 c 0
 205 623 150 591 150 525 c 0
 150 467 177 439 301 401 c 0
 411 367 505 324 505 192 c 0
 505 72 414 -12 259 -12 c 0
 160 -12 82 21 25 77 c 1
 80 138 l 1
 127 93 183 66 258 66 c 0
 339 66 406 106 406 189 c 0
 406 256 374 286 257 322 c 0
 123 363 53 414 53 521 c 0
 53 627 143 701 270 701 c 0
EndSplineSet
Validated: 1
Substitution2: "'c2sc' Capitals to Small Capitals lookup 23 subtable" sacute.sc
Substitution2: "'locl' Localized Forms in Latin lookup 7 subtable" Sacute.loclPLK
AlternateSubs2: "'aalt' Access All Alternates lookup 1 subtable" Sacute.loclPLK sacute.sc
Position2: "'cpsp' Capital Spacing lookup 0 subtable" dx=5 dy=0 dh=10 dv=0
EndChar

StartChar: Scaron
Encoding: 352 352 92
Width: 545
GlyphClass: 2
Flags: MW
HStem: -12 78<220.5 298.5 220.5 336.5> 623 78<239.5 302.5> 754 74<276 276 276 307 246 276>
VStem: 53 97<496 558 496 574> 406 99<147.5 222.5>
AnchorPoint: "Anchor-11" 267 0 basechar 0
AnchorPoint: "Anchor-10" 0 0 basechar 0
AnchorPoint: "Anchor-9" 276 689 basechar 0
AnchorPoint: "Anchor-8" 0 0 basechar 0
LayerCount: 2
Fore
SplineSet
442 864 m 1
 307 754 l 1
 246 754 l 1
 110 864 l 1
 150 909 l 1
 276 828 l 1
 403 909 l 1
 442 864 l 1
270 701 m 0
 365 701 425 673 483 621 c 1
 429 561 l 1
 379 605 331 623 274 623 c 0
 205 623 150 591 150 525 c 0
 150 467 177 439 301 401 c 0
 411 367 505 324 505 192 c 0
 505 72 414 -12 259 -12 c 0
 160 -12 82 21 25 77 c 1
 80 138 l 1
 127 93 183 66 258 66 c 0
 339 66 406 106 406 189 c 0
 406 256 374 286 257 322 c 0
 123 363 53 414 53 521 c 0
 53 627 143 701 270 701 c 0
EndSplineSet
Validated: 1
Substitution2: "'c2sc' Capitals to Small Capitals lookup 23 subtable" scaron.sc
Substitution2: "'aalt' Access All Alternates lookup 0 subtable" scaron.sc
Position2: "'cpsp' Capital Spacing lookup 0 subtable" dx=5 dy=0 dh=10 dv=0
EndChar

StartChar: Scedilla
Encoding: 350 350 93
Width: 545
GlyphClass: 2
Flags: MW
HStem: -241 60<250 277 250 300> -217 21G<175 175> -99 43<224 297> -11 77<235 235> 623 78<239.5 302.5>
VStem: 53 97<496 558 496 574> 229.5 67.5 313 77<-155.5 -127.5> 406 99<147.5 222.5>
AnchorPoint: "Anchor-11" 267 0 basechar 0
AnchorPoint: "Anchor-10" 0 0 basechar 0
AnchorPoint: "Anchor-9" 276 689 basechar 0
AnchorPoint: "Anchor-8" 0 0 basechar 0
LayerCount: 2
Fore
SplineSet
505 192 m 0x7e80
 505 82 429 2 297 -10 c 1
 297 -56 l 1x7e80
 365 -62 390 -100 390 -141 c 0
 390 -207 334 -241 266 -241 c 0xbf80
 228 -241 195 -232 175 -217 c 1x7e80
 200 -165 l 1
 219 -175 237 -181 263 -181 c 0
 291 -181 313 -170 313 -141 c 0xbf80
 313 -114 288 -99 224 -99 c 1
 235 -11 l 1
 147 -6 77 26 25 77 c 1
 80 138 l 1
 127 93 183 66 258 66 c 0
 339 66 406 106 406 189 c 0
 406 256 374 286 257 322 c 0
 123 363 53 414 53 521 c 0
 53 627 143 701 270 701 c 0
 365 701 425 673 483 621 c 1
 429 561 l 1
 379 605 331 623 274 623 c 0
 205 623 150 591 150 525 c 0
 150 467 177 439 301 401 c 0
 411 367 505 324 505 192 c 0x7e80
EndSplineSet
Validated: 1
Substitution2: "'c2sc' Capitals to Small Capitals lookup 23 subtable" scedilla.sc
Substitution2: "'locl' Localized Forms in Latin lookup 5 subtable" Scommaaccent
Substitution2: "'locl' Localized Forms in Latin lookup 4 subtable" Scommaaccent
AlternateSubs2: "'aalt' Access All Alternates lookup 1 subtable" Scommaaccent scedilla.sc
Position2: "'cpsp' Capital Spacing lookup 0 subtable" dx=5 dy=0 dh=10 dv=0
EndChar

StartChar: Scircumflex
Encoding: 348 348 94
Width: 545
GlyphClass: 2
Flags: MW
HStem: -12 78<220.5 298.5 220.5 336.5> 623 78<239.5 302.5> 840 74<276 276>
VStem: 53 97<496 558 496 574> 406 99<147.5 222.5>
AnchorPoint: "Anchor-11" 267 0 basechar 0
AnchorPoint: "Anchor-10" 0 0 basechar 0
AnchorPoint: "Anchor-9" 276 689 basechar 0
AnchorPoint: "Anchor-8" 0 0 basechar 0
LayerCount: 2
Fore
SplineSet
276 840 m 1
 150 759 l 1
 110 804 l 1
 246 914 l 1
 307 914 l 1
 442 804 l 1
 403 759 l 1
 276 840 l 1
270 701 m 0
 365 701 425 673 483 621 c 1
 429 561 l 1
 379 605 331 623 274 623 c 0
 205 623 150 591 150 525 c 0
 150 467 177 439 301 401 c 0
 411 367 505 324 505 192 c 0
 505 72 414 -12 259 -12 c 0
 160 -12 82 21 25 77 c 1
 80 138 l 1
 127 93 183 66 258 66 c 0
 339 66 406 106 406 189 c 0
 406 256 374 286 257 322 c 0
 123 363 53 414 53 521 c 0
 53 627 143 701 270 701 c 0
EndSplineSet
Validated: 1
Substitution2: "'c2sc' Capitals to Small Capitals lookup 23 subtable" scircumflex.sc
Substitution2: "'aalt' Access All Alternates lookup 0 subtable" scircumflex.sc
Position2: "'cpsp' Capital Spacing lookup 0 subtable" dx=5 dy=0 dh=10 dv=0
EndChar

StartChar: Scommaaccent
Encoding: 536 536 95
Width: 545
GlyphClass: 2
Flags: MW
HStem: -12 78<220.5 298.5 220.5 336.5> 623 78<239.5 302.5>
VStem: 53 97<496 558 496 574> 212 115<-141.5 -117 -141.5 -117> 406 99<147.5 222.5>
AnchorPoint: "Anchor-11" 267 0 basechar 0
AnchorPoint: "Anchor-10" 0 0 basechar 0
AnchorPoint: "Anchor-9" 276 689 basechar 0
AnchorPoint: "Anchor-8" 0 0 basechar 0
LayerCount: 2
Fore
SplineSet
270 701 m 0
 365 701 425 673 483 621 c 1
 429 561 l 1
 379 605 331 623 274 623 c 0
 205 623 150 591 150 525 c 0
 150 467 177 439 301 401 c 0
 411 367 505 324 505 192 c 0
 505 72 414 -12 259 -12 c 0
 160 -12 82 21 25 77 c 1
 80 138 l 1
 127 93 183 66 258 66 c 0
 339 66 406 106 406 189 c 0
 406 256 374 286 257 322 c 0
 123 363 53 414 53 521 c 0
 53 627 143 701 270 701 c 0
270 -77 m 0
 302 -77 327 -101 327 -133 c 0
 327 -150 322 -166 301 -210 c 2
 260 -296 l 1
 207 -296 l 1
 236 -180 l 1
 222 -168 212 -152 212 -133 c 0
 212 -101 238 -77 270 -77 c 0
EndSplineSet
Validated: 1
Substitution2: "'c2sc' Capitals to Small Capitals lookup 23 subtable" scommaaccent.sc
Substitution2: "'aalt' Access All Alternates lookup 0 subtable" scommaaccent.sc
Position2: "'cpsp' Capital Spacing lookup 0 subtable" dx=5 dy=0 dh=10 dv=0
EndChar

StartChar: T
Encoding: 84 84 96
Width: 517
GlyphClass: 2
Flags: MW
HStem: 0 21G<211 306 211 211> 608 81<15 211 15 507 306 497 306 306>
VStem: 211 95<0 608 0 608>
AnchorPoint: "Anchor-11" 259 0 basechar 0
AnchorPoint: "Anchor-10" 0 0 basechar 0
AnchorPoint: "Anchor-9" 259 689 basechar 0
AnchorPoint: "Anchor-8" 0 0 basechar 0
LayerCount: 2
Fore
SplineSet
497 608 m 1
 306 608 l 1
 306 0 l 1
 211 0 l 1
 211 608 l 1
 15 608 l 1
 15 689 l 1
 507 689 l 1
 497 608 l 1
EndSplineSet
Validated: 1
Substitution2: "'c2sc' Capitals to Small Capitals lookup 23 subtable" t.sc
Substitution2: "'aalt' Access All Alternates lookup 0 subtable" t.sc
Position2: "'cpsp' Capital Spacing lookup 0 subtable" dx=5 dy=0 dh=10 dv=0
EndChar

StartChar: Tbar
Encoding: 358 358 97
Width: 519
GlyphClass: 2
Flags: MW
HStem: -2 21G<211 306 211 211> 317 70<88 211 88 211 306 431> 606 81<15 211 15 507 306 497 306 306>
VStem: 211 95<-2 317 -2 317 387 606>
AnchorPoint: "Anchor-11" 259 -2 basechar 0
AnchorPoint: "Anchor-10" 0 0 basechar 0
AnchorPoint: "Anchor-9" 259 687 basechar 0
AnchorPoint: "Anchor-8" 0 0 basechar 0
LayerCount: 2
Fore
SplineSet
306 606 m 1
 306 387 l 1
 431 387 l 1
 431 317 l 1
 306 317 l 1
 306 -2 l 1
 211 -2 l 1
 211 317 l 1
 88 317 l 1
 88 387 l 1
 211 387 l 1
 211 606 l 1
 15 606 l 1
 15 687 l 1
 507 687 l 1
 497 606 l 1
 306 606 l 1
EndSplineSet
Validated: 1
Substitution2: "'c2sc' Capitals to Small Capitals lookup 23 subtable" tbar.sc
Substitution2: "'aalt' Access All Alternates lookup 0 subtable" tbar.sc
Position2: "'cpsp' Capital Spacing lookup 0 subtable" dx=5 dy=0 dh=10 dv=0
EndChar

StartChar: Tcaron
Encoding: 356 356 98
Width: 517
GlyphClass: 2
Flags: MW
HStem: 0 21G<211 306 211 211> 608 81<15 211 15 507 306 497 306 306> 754 74<259 259 259 290 229 259>
VStem: 211 95<0 608 0 608>
AnchorPoint: "Anchor-11" 259 0 basechar 0
AnchorPoint: "Anchor-10" 0 0 basechar 0
AnchorPoint: "Anchor-9" 259 689 basechar 0
AnchorPoint: "Anchor-8" 0 0 basechar 0
LayerCount: 2
Fore
SplineSet
425 864 m 1
 290 754 l 1
 229 754 l 1
 93 864 l 1
 133 909 l 1
 259 828 l 1
 386 909 l 1
 425 864 l 1
497 608 m 1
 306 608 l 1
 306 0 l 1
 211 0 l 1
 211 608 l 1
 15 608 l 1
 15 689 l 1
 507 689 l 1
 497 608 l 1
EndSplineSet
Validated: 1
Substitution2: "'c2sc' Capitals to Small Capitals lookup 23 subtable" tcaron.sc
Substitution2: "'aalt' Access All Alternates lookup 0 subtable" tcaron.sc
Position2: "'cpsp' Capital Spacing lookup 0 subtable" dx=5 dy=0 dh=10 dv=0
EndChar

StartChar: Tcedilla
Encoding: 354 354 99
Width: 517
GlyphClass: 2
Flags: MW
HStem: -241 60<259 286 259 309> -217 21G<187 187> -99 43<236 306> 0 21G<211 248 211 211> 608 81<15 211 15 507 306 306 306 497>
VStem: 211 95<0 608> 325 77<-155.5 -127.5>
AnchorPoint: "Anchor-11" 259 0 basechar 0
AnchorPoint: "Anchor-10" 0 0 basechar 0
AnchorPoint: "Anchor-9" 259 689 basechar 0
AnchorPoint: "Anchor-8" 0 0 basechar 0
LayerCount: 2
Fore
SplineSet
306 -56 m 1x7c
 374 -62 402 -100 402 -141 c 0
 402 -207 344 -241 274 -241 c 0xbe
 238 -241 207 -232 187 -217 c 1x7c
 212 -165 l 1
 231 -175 247 -181 271 -181 c 0
 301 -181 325 -170 325 -141 c 0xbe
 325 -114 300 -99 236 -99 c 1
 248 0 l 1
 211 0 l 1
 211 608 l 1
 15 608 l 1
 15 689 l 1
 507 689 l 1
 497 608 l 1
 306 608 l 1
 306 -56 l 1x7c
EndSplineSet
Validated: 1
Substitution2: "'c2sc' Capitals to Small Capitals lookup 23 subtable" tcedilla.sc
Substitution2: "'locl' Localized Forms in Latin lookup 5 subtable" uni021A
Substitution2: "'locl' Localized Forms in Latin lookup 4 subtable" uni021A
AlternateSubs2: "'aalt' Access All Alternates lookup 1 subtable" uni021A tcedilla.sc
Position2: "'cpsp' Capital Spacing lookup 0 subtable" dx=5 dy=0 dh=10 dv=0
EndChar

StartChar: uni021A
Encoding: 538 538 100
Width: 517
GlyphClass: 2
Flags: MW
HStem: 0 21G<211 306 211 211> 608 81<15 211 15 507 306 497 306 306>
VStem: 204 115<-141.5 -117 -141.5 -117> 211 95<0 608 0 608>
AnchorPoint: "Anchor-11" 259 0 basechar 0
AnchorPoint: "Anchor-10" 0 0 basechar 0
AnchorPoint: "Anchor-9" 259 689 basechar 0
AnchorPoint: "Anchor-8" 0 0 basechar 0
LayerCount: 2
Fore
SplineSet
497 608 m 1xd0
 306 608 l 1
 306 0 l 1
 211 0 l 1
 211 608 l 1
 15 608 l 1
 15 689 l 1
 507 689 l 1
 497 608 l 1xd0
262 -77 m 0xe0
 294 -77 319 -101 319 -133 c 0
 319 -150 314 -166 293 -210 c 2
 252 -296 l 1
 199 -296 l 1
 228 -180 l 1
 214 -168 204 -152 204 -133 c 0
 204 -101 230 -77 262 -77 c 0xe0
EndSplineSet
Validated: 1
Substitution2: "'c2sc' Capitals to Small Capitals lookup 23 subtable" uni021B.sc
Substitution2: "'aalt' Access All Alternates lookup 0 subtable" uni021B.sc
Position2: "'cpsp' Capital Spacing lookup 0 subtable" dx=5 dy=0 dh=10 dv=0
EndChar

StartChar: U
Encoding: 85 85 101
Width: 662
GlyphClass: 2
Flags: MW
HStem: -12 80<281 379.5 281 407.5> 669 20G<90 185 185 185 476 572 572 572>
VStem: 90 95<221 228 228 689> 476 96<228 689>
AnchorPoint: "Anchor-11" 0 0 basechar 0
AnchorPoint: "Anchor-10" 0 0 basechar 0
AnchorPoint: "Anchor-9" 331 689 basechar 0
AnchorPoint: "Anchor-8" 428 0 basechar 0
LayerCount: 2
Fore
SplineSet
572 221 m 2
 572 84 485 -12 330 -12 c 0
 173 -12 90 84 90 221 c 2
 90 689 l 1
 185 689 l 1
 185 228 l 2
 185 121 232 68 330 68 c 0
 429 68 476 121 476 228 c 2
 476 689 l 1
 572 689 l 1
 572 221 l 2
EndSplineSet
Validated: 1
Substitution2: "'c2sc' Capitals to Small Capitals lookup 23 subtable" u.sc
Substitution2: "'aalt' Access All Alternates lookup 0 subtable" u.sc
Position2: "'cpsp' Capital Spacing lookup 0 subtable" dx=5 dy=0 dh=10 dv=0
EndChar

StartChar: Uacute
Encoding: 218 218 102
Width: 662
GlyphClass: 2
Flags: MW
HStem: -12 80<281 379.5 281 407.5> 669 20G<90 185 185 185 476 572 572 572>
VStem: 90 95<221 228 228 689> 476 96<228 689>
AnchorPoint: "Anchor-11" 0 0 basechar 0
AnchorPoint: "Anchor-10" 0 0 basechar 0
AnchorPoint: "Anchor-9" 331 689 basechar 0
AnchorPoint: "Anchor-8" 428 0 basechar 0
LayerCount: 2
Fore
SplineSet
453 834 m 1
 237 755 l 1
 213 804 l 1
 413 911 l 1
 453 834 l 1
572 221 m 2
 572 84 485 -12 330 -12 c 0
 173 -12 90 84 90 221 c 2
 90 689 l 1
 185 689 l 1
 185 228 l 2
 185 121 232 68 330 68 c 0
 429 68 476 121 476 228 c 2
 476 689 l 1
 572 689 l 1
 572 221 l 2
EndSplineSet
Validated: 1
Substitution2: "'c2sc' Capitals to Small Capitals lookup 23 subtable" uacute.sc
Substitution2: "'aalt' Access All Alternates lookup 0 subtable" uacute.sc
Position2: "'cpsp' Capital Spacing lookup 0 subtable" dx=5 dy=0 dh=10 dv=0
EndChar

StartChar: Ubreve
Encoding: 364 364 103
Width: 662
GlyphClass: 2
Flags: MW
HStem: -12 80<281 379.5 281 407.5> 669 20G<90 185 185 185 476 572 572 572> 758 70<305.5 352.5 305.5 369.5>
VStem: 90 95<221 228 228 689> 476 96<228 689>
AnchorPoint: "Anchor-11" 0 0 basechar 0
AnchorPoint: "Anchor-10" 0 0 basechar 0
AnchorPoint: "Anchor-9" 331 689 basechar 0
AnchorPoint: "Anchor-8" 428 0 basechar 0
LayerCount: 2
Fore
SplineSet
329 758 m 0
 249 758 187 807 179 881 c 1
 240 894 l 1
 254 854 282 828 329 828 c 0
 376 828 407 854 421 894 c 1
 482 881 l 1
 474 807 410 758 329 758 c 0
572 221 m 2
 572 84 485 -12 330 -12 c 0
 173 -12 90 84 90 221 c 2
 90 689 l 1
 185 689 l 1
 185 228 l 2
 185 121 232 68 330 68 c 0
 429 68 476 121 476 228 c 2
 476 689 l 1
 572 689 l 1
 572 221 l 2
EndSplineSet
Validated: 1
Substitution2: "'c2sc' Capitals to Small Capitals lookup 23 subtable" ubreve.sc
Substitution2: "'aalt' Access All Alternates lookup 0 subtable" ubreve.sc
Position2: "'cpsp' Capital Spacing lookup 0 subtable" dx=5 dy=0 dh=10 dv=0
EndChar

StartChar: Ucircumflex
Encoding: 219 219 104
Width: 662
GlyphClass: 2
Flags: MW
HStem: -12 80<281 379.5 281 407.5> 669 20G<90 185 185 185 476 572 572 572> 840 74<331 331>
VStem: 90 95<221 228 228 689> 476 96<228 689>
AnchorPoint: "Anchor-11" 0 0 basechar 0
AnchorPoint: "Anchor-10" 0 0 basechar 0
AnchorPoint: "Anchor-9" 331 689 basechar 0
AnchorPoint: "Anchor-8" 428 0 basechar 0
LayerCount: 2
Fore
SplineSet
331 840 m 1
 205 759 l 1
 165 804 l 1
 301 914 l 1
 362 914 l 1
 497 804 l 1
 458 759 l 1
 331 840 l 1
572 221 m 2
 572 84 485 -12 330 -12 c 0
 173 -12 90 84 90 221 c 2
 90 689 l 1
 185 689 l 1
 185 228 l 2
 185 121 232 68 330 68 c 0
 429 68 476 121 476 228 c 2
 476 689 l 1
 572 689 l 1
 572 221 l 2
EndSplineSet
Validated: 1
Substitution2: "'c2sc' Capitals to Small Capitals lookup 23 subtable" ucircumflex.sc
Substitution2: "'aalt' Access All Alternates lookup 0 subtable" ucircumflex.sc
Position2: "'cpsp' Capital Spacing lookup 0 subtable" dx=5 dy=0 dh=10 dv=0
EndChar

StartChar: Udieresis
Encoding: 220 220 105
Width: 662
GlyphClass: 2
Flags: MW
HStem: -12 80<281 379.5 281 407.5> 669 20G<90 185 185 185 476 572 572 572> 780 114<209.5 242 419 451.5>
VStem: 90 95<221 228 228 689> 168 115<821 853> 378 115<821 853> 476 96<228 689>
AnchorPoint: "Anchor-11" 0 0 basechar 0
AnchorPoint: "Anchor-10" 0 0 basechar 0
AnchorPoint: "Anchor-9" 331 803 basechar 0
AnchorPoint: "Anchor-8" 428 0 basechar 0
LayerCount: 2
Fore
SplineSet
226 894 m 0xec
 258 894 283 869 283 837 c 0
 283 805 258 780 226 780 c 0
 193 780 168 805 168 837 c 0
 168 869 193 894 226 894 c 0xec
435 894 m 0
 468 894 493 869 493 837 c 0
 493 805 468 780 435 780 c 0
 403 780 378 805 378 837 c 0
 378 869 403 894 435 894 c 0
572 221 m 2xf2
 572 84 485 -12 330 -12 c 0
 173 -12 90 84 90 221 c 2
 90 689 l 1
 185 689 l 1
 185 228 l 2
 185 121 232 68 330 68 c 0
 429 68 476 121 476 228 c 2
 476 689 l 1
 572 689 l 1
 572 221 l 2xf2
EndSplineSet
Validated: 1
Substitution2: "'c2sc' Capitals to Small Capitals lookup 23 subtable" udieresis.sc
Substitution2: "'aalt' Access All Alternates lookup 0 subtable" udieresis.sc
Position2: "'cpsp' Capital Spacing lookup 0 subtable" dx=5 dy=0 dh=10 dv=0
EndChar

StartChar: Ugrave
Encoding: 217 217 106
Width: 662
GlyphClass: 2
Flags: MW
HStem: -12 80<281 379.5 281 407.5> 669 20G<90 185 185 185 476 572 572 572>
VStem: 90 95<221 228 228 689> 476 96<228 689>
AnchorPoint: "Anchor-11" 0 0 basechar 0
AnchorPoint: "Anchor-10" 0 0 basechar 0
AnchorPoint: "Anchor-9" 331 689 basechar 0
AnchorPoint: "Anchor-8" 428 0 basechar 0
LayerCount: 2
Fore
SplineSet
441 804 m 1
 417 755 l 1
 201 834 l 1
 240 911 l 1
 441 804 l 1
572 221 m 2
 572 84 485 -12 330 -12 c 0
 173 -12 90 84 90 221 c 2
 90 689 l 1
 185 689 l 1
 185 228 l 2
 185 121 232 68 330 68 c 0
 429 68 476 121 476 228 c 2
 476 689 l 1
 572 689 l 1
 572 221 l 2
EndSplineSet
Validated: 1
Substitution2: "'c2sc' Capitals to Small Capitals lookup 23 subtable" ugrave.sc
Substitution2: "'aalt' Access All Alternates lookup 0 subtable" ugrave.sc
Position2: "'cpsp' Capital Spacing lookup 0 subtable" dx=5 dy=0 dh=10 dv=0
EndChar

StartChar: Uhungarumlaut
Encoding: 368 368 107
Width: 662
GlyphClass: 2
Flags: MW
HStem: -12 80<281 379.5 281 407.5> 669 20G<90 185 185 185 476 572 572 572>
VStem: 90 95<221 228 228 689> 476 96<228 689>
AnchorPoint: "Anchor-11" 0 0 basechar 0
AnchorPoint: "Anchor-10" 0 0 basechar 0
AnchorPoint: "Anchor-9" 331 689 basechar 0
AnchorPoint: "Anchor-8" 428 0 basechar 0
LayerCount: 2
Fore
SplineSet
372 917 m 1
 276 765 l 1
 218 790 l 1
 294 958 l 1
 372 917 l 1
524 917 m 1
 418 760 l 1
 360 785 l 1
 446 958 l 1
 524 917 l 1
572 221 m 2
 572 84 485 -12 330 -12 c 0
 173 -12 90 84 90 221 c 2
 90 689 l 1
 185 689 l 1
 185 228 l 2
 185 121 232 68 330 68 c 0
 429 68 476 121 476 228 c 2
 476 689 l 1
 572 689 l 1
 572 221 l 2
EndSplineSet
Validated: 1
Substitution2: "'c2sc' Capitals to Small Capitals lookup 23 subtable" uhungarumlaut.sc
Substitution2: "'aalt' Access All Alternates lookup 0 subtable" uhungarumlaut.sc
Position2: "'cpsp' Capital Spacing lookup 0 subtable" dx=5 dy=0 dh=10 dv=0
EndChar

StartChar: Umacron
Encoding: 362 362 108
Width: 662
GlyphClass: 2
Flags: MW
HStem: -12 80<281 379.5 281 407.5> 669 20G<90 185 185 185 476 572 572 572> 787 69<194 467 194 467>
VStem: 90 95<221 228 228 689> 194 273<787 856 787 856> 476 96<228 689>
AnchorPoint: "Anchor-11" 0 0 basechar 0
AnchorPoint: "Anchor-10" 0 0 basechar 0
AnchorPoint: "Anchor-9" 331 689 basechar 0
AnchorPoint: "Anchor-8" 428 0 basechar 0
LayerCount: 2
Fore
SplineSet
194 787 m 1
 194 856 l 1
 467 856 l 1
 467 787 l 1
 194 787 l 1
572 221 m 2xf4
 572 84 485 -12 330 -12 c 0
 173 -12 90 84 90 221 c 2
 90 689 l 1
 185 689 l 1
 185 228 l 2
 185 121 232 68 330 68 c 0
 429 68 476 121 476 228 c 2
 476 689 l 1
 572 689 l 1
 572 221 l 2xf4
EndSplineSet
Validated: 1
Substitution2: "'c2sc' Capitals to Small Capitals lookup 23 subtable" umacron.sc
Substitution2: "'aalt' Access All Alternates lookup 0 subtable" umacron.sc
Position2: "'cpsp' Capital Spacing lookup 0 subtable" dx=5 dy=0 dh=10 dv=0
EndChar

StartChar: Uogonek
Encoding: 370 370 109
Width: 662
GlyphClass: 2
Flags: MW
HStem: -232 70<330.5 353> -11 79 669 20G<90 185 185 185 476 572 572 572>
VStem: 90 95<221 228 228 689> 215 80<-129 -105.5> 476 96<228 689>
AnchorPoint: "Anchor-11" 0 0 basechar 0
AnchorPoint: "Anchor-10" 0 0 basechar 0
AnchorPoint: "Anchor-9" 331 689 basechar 0
AnchorPoint: "Anchor-8" 428 0 basechar 0
LayerCount: 2
Fore
SplineSet
572 689 m 1
 572 221 l 2
 572 113 518 30 418 0 c 1
 316 -44 295 -78 295 -114 c 0
 295 -144 310 -162 351 -162 c 0
 372 -162 388 -160 412 -155 c 1
 403 -225 l 1
 383 -229 366 -232 340 -232 c 0
 263 -232 215 -189 215 -131 c 0xfc
 215 -80 248 -39 310 -11 c 1
 166 -4 90 90 90 221 c 2
 90 689 l 1
 185 689 l 1
 185 228 l 2
 185 121 232 68 330 68 c 0
 429 68 476 121 476 228 c 2
 476 689 l 1
 572 689 l 1
EndSplineSet
Validated: 1
Substitution2: "'c2sc' Capitals to Small Capitals lookup 23 subtable" uogonek.sc
Substitution2: "'aalt' Access All Alternates lookup 0 subtable" uogonek.sc
Position2: "'cpsp' Capital Spacing lookup 0 subtable" dx=5 dy=0 dh=10 dv=0
EndChar

StartChar: Uring
Encoding: 366 366 110
Width: 662
GlyphClass: 2
Flags: MW
HStem: -12 80<281 379.5 281 407.5> 669 20G<90 185 185 185 476 572 572 572> 750 50<314.5 347 314.5 364.5> 912 50<314.5 347.5>
VStem: 90 95<221 228 228 689> 217 61<838.5 873.5 838.5 885.5> 384 61<838.5 873.5> 476 96<228 689>
AnchorPoint: "Anchor-11" 0 0 basechar 0
AnchorPoint: "Anchor-10" 0 0 basechar 0
AnchorPoint: "Anchor-9" 331 689 basechar 0
AnchorPoint: "Anchor-8" 428 0 basechar 0
LayerCount: 2
Fore
SplineSet
331 962 m 0
 398 962 445 915 445 856 c 0
 445 797 398 750 331 750 c 0
 264 750 217 797 217 856 c 0
 217 915 264 962 331 962 c 0
331 912 m 0
 298 912 278 891 278 856 c 0
 278 821 298 800 331 800 c 0
 363 800 384 821 384 856 c 0
 384 891 364 912 331 912 c 0
572 221 m 2
 572 84 485 -12 330 -12 c 0
 173 -12 90 84 90 221 c 2
 90 689 l 1
 185 689 l 1
 185 228 l 2
 185 121 232 68 330 68 c 0
 429 68 476 121 476 228 c 2
 476 689 l 1
 572 689 l 1
 572 221 l 2
EndSplineSet
Validated: 1
Substitution2: "'c2sc' Capitals to Small Capitals lookup 23 subtable" uring.sc
Substitution2: "'aalt' Access All Alternates lookup 0 subtable" uring.sc
Position2: "'cpsp' Capital Spacing lookup 0 subtable" dx=5 dy=0 dh=10 dv=0
EndChar

StartChar: Utilde
Encoding: 360 360 111
Width: 662
GlyphClass: 2
Flags: MW
HStem: -12 80<281 379.5 281 407.5> 669 20G<90 185 185 185 476 572 572 572> 782 70<370.5 399 370.5 413> 830 70<261.5 291>
VStem: 90 95<221 228 228 689> 476 96<228 689>
AnchorPoint: "Anchor-11" 0 0 basechar 0
AnchorPoint: "Anchor-10" 0 0 basechar 0
AnchorPoint: "Anchor-9" 331 689 basechar 0
AnchorPoint: "Anchor-8" 428 0 basechar 0
LayerCount: 2
Fore
SplineSet
392 782 m 0xec
 333 782 309 830 273 830 c 0
 250 830 236 814 220 784 c 1
 164 812 l 1
 187 861 223 900 274 900 c 0xdc
 328 900 352 852 389 852 c 0
 409 852 424 866 442 896 c 1
 498 868 l 1
 472 811 434 782 392 782 c 0xec
572 221 m 2xdc
 572 84 485 -12 330 -12 c 0
 173 -12 90 84 90 221 c 2
 90 689 l 1
 185 689 l 1
 185 228 l 2
 185 121 232 68 330 68 c 0
 429 68 476 121 476 228 c 2
 476 689 l 1
 572 689 l 1
 572 221 l 2xdc
EndSplineSet
Validated: 1
Substitution2: "'c2sc' Capitals to Small Capitals lookup 23 subtable" utilde.sc
Substitution2: "'aalt' Access All Alternates lookup 0 subtable" utilde.sc
Position2: "'cpsp' Capital Spacing lookup 0 subtable" dx=5 dy=0 dh=10 dv=0
EndChar

StartChar: V
Encoding: 86 86 112
Width: 556
GlyphClass: 2
Flags: MW
HStem: 0 21G<228 330 228 228> 0 103<281 281 281 330 228 281> 669 20G<6 108 108 108 454 550 550 550>
VStem: 6 544<689 689>
LayerCount: 2
Fore
SplineSet
330 0 m 1xb0
 228 0 l 1
 6 689 l 1
 108 689 l 1
 281 103 l 1x70
 454 689 l 1
 550 689 l 1
 330 0 l 1xb0
EndSplineSet
Validated: 1
Substitution2: "'c2sc' Capitals to Small Capitals lookup 23 subtable" v.sc
Substitution2: "'aalt' Access All Alternates lookup 0 subtable" v.sc
Position2: "'cpsp' Capital Spacing lookup 0 subtable" dx=5 dy=0 dh=10 dv=0
EndChar

StartChar: W
Encoding: 87 87 113
Width: 826
GlyphClass: 2
Flags: MW
HStem: 0 83<229 229 229 284 165 229> 577 112<412 412> 669 20G<25 118 118 118 362 463 463 463 714 801 801 801>
VStem: 25 776<689 689>
AnchorPoint: "Anchor-11" 0 0 basechar 0
AnchorPoint: "Anchor-10" 0 0 basechar 0
AnchorPoint: "Anchor-9" 413 689 basechar 0
AnchorPoint: "Anchor-8" 0 0 basechar 0
LayerCount: 2
Fore
SplineSet
661 0 m 1xb0
 539 0 l 1
 412 577 l 1xd0
 284 0 l 1
 165 0 l 1
 25 689 l 1
 118 689 l 1
 229 83 l 1
 362 689 l 1
 463 689 l 1
 599 83 l 1
 714 689 l 1
 801 689 l 1
 661 0 l 1xb0
EndSplineSet
Validated: 1
Substitution2: "'c2sc' Capitals to Small Capitals lookup 23 subtable" w.sc
Substitution2: "'aalt' Access All Alternates lookup 0 subtable" w.sc
Position2: "'cpsp' Capital Spacing lookup 0 subtable" dx=5 dy=0 dh=10 dv=0
EndChar

StartChar: Wacute
Encoding: 7810 7810 114
Width: 826
GlyphClass: 2
Flags: MW
HStem: 0 83<229 229 229 284 165 229> 577 112<412 412> 669 20G<25 118 118 118 362 463 463 463 714 801 801 801>
VStem: 25 776<689 689>
AnchorPoint: "Anchor-11" 0 0 basechar 0
AnchorPoint: "Anchor-10" 0 0 basechar 0
AnchorPoint: "Anchor-9" 413 689 basechar 0
AnchorPoint: "Anchor-8" 0 0 basechar 0
LayerCount: 2
Fore
SplineSet
535 834 m 1xb0
 319 755 l 1
 295 804 l 1
 495 911 l 1
 535 834 l 1xb0
661 0 m 1
 539 0 l 1
 412 577 l 1xd0
 284 0 l 1
 165 0 l 1
 25 689 l 1
 118 689 l 1
 229 83 l 1
 362 689 l 1
 463 689 l 1
 599 83 l 1
 714 689 l 1
 801 689 l 1
 661 0 l 1
EndSplineSet
Validated: 1
Substitution2: "'c2sc' Capitals to Small Capitals lookup 23 subtable" wacute.sc
Substitution2: "'aalt' Access All Alternates lookup 0 subtable" wacute.sc
Position2: "'cpsp' Capital Spacing lookup 0 subtable" dx=5 dy=0 dh=10 dv=0
EndChar

StartChar: Wcircumflex
Encoding: 372 372 115
Width: 826
GlyphClass: 2
Flags: MW
HStem: 0 83<229 229 229 284 165 229> 577 112<412 412> 669 20G<25 118 118 118 362 463 463 463 714 801 801 801> 840 74<413 413>
VStem: 25 776<689 689>
AnchorPoint: "Anchor-11" 0 0 basechar 0
AnchorPoint: "Anchor-10" 0 0 basechar 0
AnchorPoint: "Anchor-9" 413 689 basechar 0
AnchorPoint: "Anchor-8" 0 0 basechar 0
LayerCount: 2
Fore
SplineSet
413 840 m 1xb8
 287 759 l 1
 247 804 l 1
 383 914 l 1
 444 914 l 1
 579 804 l 1
 540 759 l 1
 413 840 l 1xb8
661 0 m 1
 539 0 l 1
 412 577 l 1xd8
 284 0 l 1
 165 0 l 1
 25 689 l 1
 118 689 l 1
 229 83 l 1
 362 689 l 1
 463 689 l 1
 599 83 l 1
 714 689 l 1
 801 689 l 1
 661 0 l 1
EndSplineSet
Validated: 1
Substitution2: "'c2sc' Capitals to Small Capitals lookup 23 subtable" wcircumflex.sc
Substitution2: "'aalt' Access All Alternates lookup 0 subtable" wcircumflex.sc
Position2: "'cpsp' Capital Spacing lookup 0 subtable" dx=5 dy=0 dh=10 dv=0
EndChar

StartChar: Wdieresis
Encoding: 7812 7812 116
Width: 826
GlyphClass: 2
Flags: MW
HStem: 0 83<229 229 229 284 165 229> 577 112<412 412> 669 20G<25 118 118 118 362 463 463 463 714 801 801 801> 780 114<291.5 324 501 533.5>
VStem: 250 115<821 853> 460 115<821 853>
AnchorPoint: "Anchor-11" 0 0 basechar 0
AnchorPoint: "Anchor-10" 0 0 basechar 0
AnchorPoint: "Anchor-9" 413 803 basechar 0
AnchorPoint: "Anchor-8" 0 0 basechar 0
LayerCount: 2
Fore
SplineSet
308 894 m 0xbc
 340 894 365 869 365 837 c 0
 365 805 340 780 308 780 c 0
 275 780 250 805 250 837 c 0
 250 869 275 894 308 894 c 0xbc
517 894 m 0
 550 894 575 869 575 837 c 0
 575 805 550 780 517 780 c 0
 485 780 460 805 460 837 c 0
 460 869 485 894 517 894 c 0
661 0 m 1
 539 0 l 1
 412 577 l 1xdc
 284 0 l 1
 165 0 l 1
 25 689 l 1
 118 689 l 1
 229 83 l 1
 362 689 l 1
 463 689 l 1
 599 83 l 1
 714 689 l 1
 801 689 l 1
 661 0 l 1
EndSplineSet
Validated: 1
Substitution2: "'c2sc' Capitals to Small Capitals lookup 23 subtable" wdieresis.sc
Substitution2: "'aalt' Access All Alternates lookup 0 subtable" wdieresis.sc
Position2: "'cpsp' Capital Spacing lookup 0 subtable" dx=5 dy=0 dh=10 dv=0
EndChar

StartChar: Wgrave
Encoding: 7808 7808 117
Width: 826
GlyphClass: 2
Flags: MW
HStem: 0 83<229 229 229 284 165 229> 577 112<412 412> 669 20G<25 118 118 118 362 463 463 463 714 801 801 801>
VStem: 25 776<689 689>
AnchorPoint: "Anchor-11" 0 0 basechar 0
AnchorPoint: "Anchor-10" 0 0 basechar 0
AnchorPoint: "Anchor-9" 413 689 basechar 0
AnchorPoint: "Anchor-8" 0 0 basechar 0
LayerCount: 2
Fore
SplineSet
523 804 m 1xb0
 499 755 l 1
 283 834 l 1
 322 911 l 1
 523 804 l 1xb0
661 0 m 1
 539 0 l 1
 412 577 l 1xd0
 284 0 l 1
 165 0 l 1
 25 689 l 1
 118 689 l 1
 229 83 l 1
 362 689 l 1
 463 689 l 1
 599 83 l 1
 714 689 l 1
 801 689 l 1
 661 0 l 1
EndSplineSet
Validated: 1
Substitution2: "'c2sc' Capitals to Small Capitals lookup 23 subtable" wgrave.sc
Substitution2: "'aalt' Access All Alternates lookup 0 subtable" wgrave.sc
Position2: "'cpsp' Capital Spacing lookup 0 subtable" dx=5 dy=0 dh=10 dv=0
EndChar

StartChar: X
Encoding: 88 88 118
Width: 540
GlyphClass: 2
Flags: MW
HStem: 0 21G<5 107 5 5 427 535 427 427> 669 20G<23 131 131 131 410 512 512 512>
VStem: 5 530<0 0>
LayerCount: 2
Fore
SplineSet
535 0 m 1
 427 0 l 1
 268 305 l 1
 107 0 l 1
 5 0 l 1
 212 367 l 1
 23 689 l 1
 131 689 l 1
 270 430 l 1
 410 689 l 1
 512 689 l 1
 325 372 l 1
 535 0 l 1
EndSplineSet
Validated: 1
Substitution2: "'c2sc' Capitals to Small Capitals lookup 23 subtable" x.sc
Substitution2: "'aalt' Access All Alternates lookup 0 subtable" x.sc
Position2: "'cpsp' Capital Spacing lookup 0 subtable" dx=5 dy=0 dh=10 dv=0
EndChar

StartChar: Y
Encoding: 89 89 119
Width: 550
GlyphClass: 2
Flags: MW
HStem: 0 21G<227 323 227 227> 669 20G<5 110 110 110 446 545 545 545>
VStem: 227 96<0 264 264 264>
AnchorPoint: "Anchor-11" 0 0 basechar 0
AnchorPoint: "Anchor-10" 5 689 basechar 0
AnchorPoint: "Anchor-9" 278 689 basechar 0
AnchorPoint: "Anchor-8" 0 0 basechar 0
LayerCount: 2
Fore
SplineSet
323 265 m 1
 323 0 l 1
 227 0 l 1
 227 264 l 1
 5 689 l 1
 110 689 l 1
 278 348 l 1
 446 689 l 1
 545 689 l 1
 323 265 l 1
EndSplineSet
Validated: 1
Substitution2: "'c2sc' Capitals to Small Capitals lookup 23 subtable" y.sc
Substitution2: "'aalt' Access All Alternates lookup 0 subtable" y.sc
Position2: "'cpsp' Capital Spacing lookup 0 subtable" dx=5 dy=0 dh=10 dv=0
EndChar

StartChar: Yacute
Encoding: 221 221 120
Width: 550
GlyphClass: 2
Flags: MW
HStem: 0 21G<227 323 227 227> 669 20G<5 110 110 110 446 545 545 545>
VStem: 227 96<0 264 264 264>
AnchorPoint: "Anchor-11" 0 0 basechar 0
AnchorPoint: "Anchor-10" 5 689 basechar 0
AnchorPoint: "Anchor-9" 278 689 basechar 0
AnchorPoint: "Anchor-8" 0 0 basechar 0
LayerCount: 2
Fore
SplineSet
400 834 m 1
 184 755 l 1
 160 804 l 1
 360 911 l 1
 400 834 l 1
323 265 m 1
 323 0 l 1
 227 0 l 1
 227 264 l 1
 5 689 l 1
 110 689 l 1
 278 348 l 1
 446 689 l 1
 545 689 l 1
 323 265 l 1
EndSplineSet
Validated: 1
Substitution2: "'c2sc' Capitals to Small Capitals lookup 23 subtable" yacute.sc
Substitution2: "'aalt' Access All Alternates lookup 0 subtable" yacute.sc
Position2: "'cpsp' Capital Spacing lookup 0 subtable" dx=5 dy=0 dh=10 dv=0
EndChar

StartChar: Ycircumflex
Encoding: 374 374 121
Width: 550
GlyphClass: 2
Flags: MW
HStem: 0 21G<227 323 227 227> 669 20G<5 110 110 110 446 545 545 545> 840 74<278 278>
VStem: 227 96<0 264 264 264>
AnchorPoint: "Anchor-11" 0 0 basechar 0
AnchorPoint: "Anchor-10" 5 689 basechar 0
AnchorPoint: "Anchor-9" 278 689 basechar 0
AnchorPoint: "Anchor-8" 0 0 basechar 0
LayerCount: 2
Fore
SplineSet
278 840 m 1
 152 759 l 1
 112 804 l 1
 248 914 l 1
 309 914 l 1
 444 804 l 1
 405 759 l 1
 278 840 l 1
323 265 m 1
 323 0 l 1
 227 0 l 1
 227 264 l 1
 5 689 l 1
 110 689 l 1
 278 348 l 1
 446 689 l 1
 545 689 l 1
 323 265 l 1
EndSplineSet
Validated: 1
Substitution2: "'c2sc' Capitals to Small Capitals lookup 23 subtable" ycircumflex.sc
Substitution2: "'aalt' Access All Alternates lookup 0 subtable" ycircumflex.sc
Position2: "'cpsp' Capital Spacing lookup 0 subtable" dx=5 dy=0 dh=10 dv=0
EndChar

StartChar: Ydieresis
Encoding: 376 376 122
Width: 550
GlyphClass: 2
Flags: MW
HStem: 0 21G<227 323 227 227> 669 20G<5 110 110 110 446 545 545 545> 780 114<156.5 189 366 398.5>
VStem: 115 115<821 853> 227 96<0 264 264 264> 325 115<821 853>
AnchorPoint: "Anchor-11" 0 0 basechar 0
AnchorPoint: "Anchor-10" 5 689 basechar 0
AnchorPoint: "Anchor-9" 278 803 basechar 0
AnchorPoint: "Anchor-8" 0 0 basechar 0
LayerCount: 2
Fore
SplineSet
173 894 m 0xf4
 205 894 230 869 230 837 c 0
 230 805 205 780 173 780 c 0
 140 780 115 805 115 837 c 0
 115 869 140 894 173 894 c 0xf4
382 894 m 0
 415 894 440 869 440 837 c 0
 440 805 415 780 382 780 c 0
 350 780 325 805 325 837 c 0
 325 869 350 894 382 894 c 0
323 265 m 1xe8
 323 0 l 1
 227 0 l 1
 227 264 l 1
 5 689 l 1
 110 689 l 1
 278 348 l 1
 446 689 l 1
 545 689 l 1
 323 265 l 1xe8
EndSplineSet
Validated: 1
Substitution2: "'c2sc' Capitals to Small Capitals lookup 23 subtable" ydieresis.sc
Substitution2: "'aalt' Access All Alternates lookup 0 subtable" ydieresis.sc
Position2: "'cpsp' Capital Spacing lookup 0 subtable" dx=5 dy=0 dh=10 dv=0
EndChar

StartChar: Ygrave
Encoding: 7922 7922 123
Width: 550
GlyphClass: 2
Flags: MW
HStem: 0 21G<227 323 227 227> 669 20G<5 110 110 110 446 545 545 545>
VStem: 227 96<0 264 264 264>
AnchorPoint: "Anchor-11" 0 0 basechar 0
AnchorPoint: "Anchor-10" 5 689 basechar 0
AnchorPoint: "Anchor-9" 278 689 basechar 0
AnchorPoint: "Anchor-8" 0 0 basechar 0
LayerCount: 2
Fore
SplineSet
388 804 m 1
 364 755 l 1
 148 834 l 1
 187 911 l 1
 388 804 l 1
323 265 m 1
 323 0 l 1
 227 0 l 1
 227 264 l 1
 5 689 l 1
 110 689 l 1
 278 348 l 1
 446 689 l 1
 545 689 l 1
 323 265 l 1
EndSplineSet
Validated: 1
Substitution2: "'c2sc' Capitals to Small Capitals lookup 23 subtable" ygrave.sc
Substitution2: "'aalt' Access All Alternates lookup 0 subtable" ygrave.sc
Position2: "'cpsp' Capital Spacing lookup 0 subtable" dx=5 dy=0 dh=10 dv=0
EndChar

StartChar: Z
Encoding: 90 90 124
Width: 522
GlyphClass: 2
Flags: MW
HStem: 0 81<136 466> 609 80<66 374 66 477>
VStem: 30 447<0 81 76 81>
AnchorPoint: "Anchor-11" 0 0 basechar 0
AnchorPoint: "Anchor-10" 0 0 basechar 0
AnchorPoint: "Anchor-9" 272 689 basechar 0
AnchorPoint: "Anchor-8" 0 0 basechar 0
LayerCount: 2
Fore
SplineSet
477 612 m 1
 136 81 l 1
 477 81 l 1
 466 0 l 1
 30 0 l 1
 30 76 l 1
 374 609 l 1
 66 609 l 1
 66 689 l 1
 477 689 l 1
 477 612 l 1
EndSplineSet
Validated: 1
Substitution2: "'c2sc' Capitals to Small Capitals lookup 23 subtable" z.sc
Substitution2: "'aalt' Access All Alternates lookup 0 subtable" z.sc
Position2: "'cpsp' Capital Spacing lookup 0 subtable" dx=5 dy=0 dh=10 dv=0
EndChar

StartChar: Zacute
Encoding: 377 377 125
Width: 522
GlyphClass: 2
Flags: MW
HStem: 0 81<136 466> 609 80<66 374 66 477>
VStem: 30 447<0 81 76 81>
AnchorPoint: "Anchor-11" 0 0 basechar 0
AnchorPoint: "Anchor-10" 0 0 basechar 0
AnchorPoint: "Anchor-9" 272 689 basechar 0
AnchorPoint: "Anchor-8" 0 0 basechar 0
LayerCount: 2
Fore
SplineSet
394 834 m 1
 178 755 l 1
 154 804 l 1
 354 911 l 1
 394 834 l 1
477 612 m 1
 136 81 l 1
 477 81 l 1
 466 0 l 1
 30 0 l 1
 30 76 l 1
 374 609 l 1
 66 609 l 1
 66 689 l 1
 477 689 l 1
 477 612 l 1
EndSplineSet
Validated: 1
Substitution2: "'c2sc' Capitals to Small Capitals lookup 23 subtable" zacute.sc
Substitution2: "'locl' Localized Forms in Latin lookup 7 subtable" Zacute.loclPLK
AlternateSubs2: "'aalt' Access All Alternates lookup 1 subtable" Zacute.loclPLK zacute.sc
Position2: "'cpsp' Capital Spacing lookup 0 subtable" dx=5 dy=0 dh=10 dv=0
EndChar

StartChar: Zcaron
Encoding: 381 381 126
Width: 522
GlyphClass: 2
Flags: MW
HStem: 0 81<136 466> 609 80<66 374 66 477> 754 74<272 272 272 303 242 272>
VStem: 30 447<0 81 76 81>
AnchorPoint: "Anchor-11" 0 0 basechar 0
AnchorPoint: "Anchor-10" 0 0 basechar 0
AnchorPoint: "Anchor-9" 272 689 basechar 0
AnchorPoint: "Anchor-8" 0 0 basechar 0
LayerCount: 2
Fore
SplineSet
438 864 m 1
 303 754 l 1
 242 754 l 1
 106 864 l 1
 146 909 l 1
 272 828 l 1
 399 909 l 1
 438 864 l 1
477 612 m 1
 136 81 l 1
 477 81 l 1
 466 0 l 1
 30 0 l 1
 30 76 l 1
 374 609 l 1
 66 609 l 1
 66 689 l 1
 477 689 l 1
 477 612 l 1
EndSplineSet
Validated: 1
Substitution2: "'c2sc' Capitals to Small Capitals lookup 23 subtable" zcaron.sc
Substitution2: "'aalt' Access All Alternates lookup 0 subtable" zcaron.sc
Position2: "'cpsp' Capital Spacing lookup 0 subtable" dx=5 dy=0 dh=10 dv=0
EndChar

StartChar: Zdotaccent
Encoding: 379 379 127
Width: 522
GlyphClass: 2
Flags: MW
HStem: 0 81<136 466> 609 80<66 374 66 477> 781 125<252 290.5>
VStem: 207 129<825.5 861>
AnchorPoint: "Anchor-11" 0 0 basechar 0
AnchorPoint: "Anchor-10" 0 0 basechar 0
AnchorPoint: "Anchor-9" 272 689 basechar 0
AnchorPoint: "Anchor-8" 0 0 basechar 0
LayerCount: 2
Fore
SplineSet
271 906 m 0
 310 906 336 879 336 843 c 0
 336 808 310 781 271 781 c 0
 233 781 207 808 207 843 c 0
 207 879 233 906 271 906 c 0
477 612 m 1
 136 81 l 1
 477 81 l 1
 466 0 l 1
 30 0 l 1
 30 76 l 1
 374 609 l 1
 66 609 l 1
 66 689 l 1
 477 689 l 1
 477 612 l 1
EndSplineSet
Validated: 1
Substitution2: "'c2sc' Capitals to Small Capitals lookup 23 subtable" zdotaccent.sc
Substitution2: "'aalt' Access All Alternates lookup 0 subtable" zdotaccent.sc
Position2: "'cpsp' Capital Spacing lookup 0 subtable" dx=5 dy=0 dh=10 dv=0
EndChar

StartChar: Oslashacute.001
Encoding: 1114113 -1 128
Width: 692
GlyphClass: 2
Flags: MW
HStem: -12 78<337 404 337 432.5> -5 21G<279 279> 623 78<288.5 355> 674 20G<412 412>
VStem: 55 101<277 442.5 277 456.5> 536 101<244 411.5>
AnchorPoint: "Anchor-11" 0 0 basechar 0
AnchorPoint: "Anchor-10" 0 0 basechar 0
AnchorPoint: "Anchor-9" 341 704 basechar 0
AnchorPoint: "Anchor-8" 0 0 basechar 0
LayerCount: 2
Fore
SplineSet
247 770 m 1xac
 223 819 l 1
 423 926 l 1
 463 849 l 1
 247 770 l 1xac
486 667 m 1
 580 616 637 506 637 344 c 0
 637 116 519 -12 346 -12 c 0xac
 323 -12 301 -10 279 -5 c 1
 244 -127 l 1
 165 -106 l 1
 205 22 l 1
 112 74 55 183 55 343 c 0
 55 570 174 701 346 701 c 0x6c
 369 701 391 699 412 694 c 1x9c
 449 819 l 1
 528 798 l 1
 486 667 l 1
346 623 m 0
 231 623 156 542 156 343 c 0
 156 211 187 135 238 97 c 1
 396 618 l 1
 380 621 364 623 346 623 c 0
346 66 m 0
 462 66 536 144 536 344 c 0
 536 479 506 556 452 594 c 1
 296 71 l 1
 311 68 328 66 346 66 c 0
EndSplineSet
Validated: 1
Position2: "'cpsp' Capital Spacing lookup 0 subtable" dx=5 dy=0 dh=10 dv=0
EndChar

StartChar: Cacute.loclPLK
Encoding: 1114114 -1 129
Width: 560
GlyphClass: 2
Flags: MW
HStem: -12 80<292.5 378.5 292.5 389.5> 623 78<295 371>
VStem: 55 101<245.5 449 245.5 461.5>
AnchorPoint: "Anchor-11" 346 0 basechar 0
AnchorPoint: "Anchor-10" 0 0 basechar 0
AnchorPoint: "Anchor-9" 347 689 basechar 0
AnchorPoint: "Anchor-8" 0 0 basechar 0
LayerCount: 2
Fore
SplineSet
471 879 m 1
 339 734 l 1
 294 762 l 1
 399 926 l 1
 471 879 l 1
341 701 m 0
 428 701 477 677 532 633 c 1
 480 572 l 1
 437 607 395 623 347 623 c 0
 243 623 156 553 156 345 c 0
 156 146 239 68 346 68 c 0
 411 68 453 97 492 126 c 1
 540 65 l 1
 503 26 436 -12 343 -12 c 0
 176 -12 55 113 55 345 c 0
 55 578 185 701 341 701 c 0
EndSplineSet
Validated: 1
Position2: "'cpsp' Capital Spacing lookup 0 subtable" dx=5 dy=0 dh=10 dv=0
EndChar

StartChar: Nacute.loclPLK
Encoding: 1114115 -1 130
Width: 683
GlyphClass: 2
Flags: MW
HStem: 0 21G<100 189 100 100 456 583 456 456> 0 103<507 507 507 583 456 507> 585 104<176 176> 669 20G<100 224 224 224 494 583 583 583>
VStem: 100 89<0 316 0 689> 494 89<313 689>
AnchorPoint: "Anchor-11" 343 0 basechar 0
AnchorPoint: "Anchor-10" 0 0 basechar 0
AnchorPoint: "Anchor-9" 353 689 basechar 0
AnchorPoint: "Anchor-8" 0 0 basechar 0
LayerCount: 2
Fore
SplineSet
477 879 m 1x9c
 345 734 l 1
 300 762 l 1
 405 926 l 1
 477 879 l 1x9c
583 0 m 1
 456 0 l 1
 176 585 l 1xac
 181 528 189 444 189 316 c 2
 189 0 l 1
 100 0 l 1
 100 689 l 1
 224 689 l 1
 507 103 l 1x5c
 505 119 494 229 494 313 c 2
 494 689 l 1
 583 689 l 1
 583 0 l 1
EndSplineSet
Validated: 1
Position2: "'cpsp' Capital Spacing lookup 0 subtable" dx=5 dy=0 dh=10 dv=0
EndChar

StartChar: Oacute.loclPLK
Encoding: 1114116 -1 131
Width: 692
GlyphClass: 2
Flags: MW
HStem: -12 78<290 404 290 432.5> 623 78<288.5 405>
VStem: 55 101<243.5 442.5 243.5 456.5> 536 101<244 443>
AnchorPoint: "Anchor-11" 0 0 basechar 0
AnchorPoint: "Anchor-10" 113 689 basechar 0
AnchorPoint: "Anchor-9" 350 689 basechar 0
AnchorPoint: "Anchor-8" 0 0 basechar 0
LayerCount: 2
Fore
SplineSet
474 879 m 1
 342 734 l 1
 297 762 l 1
 402 926 l 1
 474 879 l 1
346 701 m 0
 519 701 637 576 637 344 c 0
 637 116 519 -12 346 -12 c 0
 174 -12 55 112 55 343 c 0
 55 570 174 701 346 701 c 0
346 623 m 0
 231 623 156 542 156 343 c 0
 156 144 234 66 346 66 c 0
 462 66 536 144 536 344 c 0
 536 542 464 623 346 623 c 0
EndSplineSet
Validated: 1
Position2: "'cpsp' Capital Spacing lookup 0 subtable" dx=5 dy=0 dh=10 dv=0
EndChar

StartChar: Sacute.loclPLK
Encoding: 1114117 -1 132
Width: 545
GlyphClass: 2
Flags: MW
HStem: -12 78<220.5 298.5 220.5 336.5> 623 78<239.5 302.5>
VStem: 53 97<496 558 496 574> 406 99<147.5 222.5>
AnchorPoint: "Anchor-11" 267 0 basechar 0
AnchorPoint: "Anchor-10" 0 0 basechar 0
AnchorPoint: "Anchor-9" 276 689 basechar 0
AnchorPoint: "Anchor-8" 0 0 basechar 0
LayerCount: 2
Fore
SplineSet
400 879 m 1
 268 734 l 1
 223 762 l 1
 328 926 l 1
 400 879 l 1
270 701 m 0
 365 701 425 673 483 621 c 1
 429 561 l 1
 379 605 331 623 274 623 c 0
 205 623 150 591 150 525 c 0
 150 467 177 439 301 401 c 0
 411 367 505 324 505 192 c 0
 505 72 414 -12 259 -12 c 0
 160 -12 82 21 25 77 c 1
 80 138 l 1
 127 93 183 66 258 66 c 0
 339 66 406 106 406 189 c 0
 406 256 374 286 257 322 c 0
 123 363 53 414 53 521 c 0
 53 627 143 701 270 701 c 0
EndSplineSet
Validated: 1
Position2: "'cpsp' Capital Spacing lookup 0 subtable" dx=5 dy=0 dh=10 dv=0
EndChar

StartChar: Zacute.loclPLK
Encoding: 1114118 -1 133
Width: 522
GlyphClass: 2
Flags: MW
HStem: 0 81<136 466> 609 80<66 374 66 477>
VStem: 30 447<0 81 76 81>
AnchorPoint: "Anchor-11" 0 0 basechar 0
AnchorPoint: "Anchor-10" 0 0 basechar 0
AnchorPoint: "Anchor-9" 272 689 basechar 0
AnchorPoint: "Anchor-8" 0 0 basechar 0
LayerCount: 2
Fore
SplineSet
396 879 m 1
 264 734 l 1
 219 762 l 1
 324 926 l 1
 396 879 l 1
477 612 m 1
 136 81 l 1
 477 81 l 1
 466 0 l 1
 30 0 l 1
 30 76 l 1
 374 609 l 1
 66 609 l 1
 66 689 l 1
 477 689 l 1
 477 612 l 1
EndSplineSet
Validated: 1
Position2: "'cpsp' Capital Spacing lookup 0 subtable" dx=5 dy=0 dh=10 dv=0
EndChar

StartChar: a
Encoding: 97 97 134
Width: 544
GlyphClass: 2
Flags: MW
HStem: -12 69<204 245> 260 61<277 289 289 358> 464 75<235.5 284.5>
VStem: 45 98<121 188 121 203.5> 358 92<139 260 260 260 321 360 360 364>
AnchorPoint: "Anchor-11" 0 0 basechar 0
AnchorPoint: "Anchor-10" 0 0 basechar 0
AnchorPoint: "Anchor-9" 261 527 basechar 0
AnchorPoint: "Anchor-8" 483 -12 basechar 0
LayerCount: 2
Fore
SplineSet
450 123 m 2
 450 77 467 62 494 52 c 1
 473 -12 l 1
 420 -6 386 15 370 67 c 1
 333 12 277 -12 213 -12 c 0
 108 -12 45 53 45 147 c 0
 45 260 130 321 277 321 c 2
 358 321 l 1
 358 360 l 2
 358 436 321 464 248 464 c 0
 209 464 160 454 106 436 c 1
 83 503 l 1
 148 527 206 539 265 539 c 0
 392 539 450 474 450 364 c 2
 450 123 l 2
234 57 m 0
 288 57 328 84 358 139 c 1
 358 260 l 1
 289 260 l 2
 192 260 143 224 143 152 c 0
 143 90 174 57 234 57 c 0
EndSplineSet
Validated: 1
Substitution2: "Single Substitution lookup 30 subtable" ordfeminine
Substitution2: "'smcp' Lowercase to Small Capitals lookup 24 subtable" a.sc
AlternateSubs2: "'aalt' Access All Alternates lookup 1 subtable" ordfeminine a.sc
EndChar

StartChar: aacute
Encoding: 225 225 135
Width: 544
GlyphClass: 2
Flags: MW
HStem: -12 69<204 245> 260 61<277 289 289 358> 464 75<235.5 284.5>
VStem: 45 98<121 188 121 203.5> 358 92<139 260 260 260 321 360 360 364>
AnchorPoint: "Anchor-11" 0 0 basechar 0
AnchorPoint: "Anchor-10" 0 0 basechar 0
AnchorPoint: "Anchor-9" 261 527 basechar 0
AnchorPoint: "Anchor-8" 483 -12 basechar 0
LayerCount: 2
Fore
SplineSet
159 638 m 1
 131 687 l 1
 330 801 l 1
 371 724 l 1
 159 638 l 1
450 123 m 2
 450 77 467 62 494 52 c 1
 473 -12 l 1
 420 -6 386 15 370 67 c 1
 333 12 277 -12 213 -12 c 0
 108 -12 45 53 45 147 c 0
 45 260 130 321 277 321 c 2
 358 321 l 1
 358 360 l 2
 358 436 321 464 248 464 c 0
 209 464 160 454 106 436 c 1
 83 503 l 1
 148 527 206 539 265 539 c 0
 392 539 450 474 450 364 c 2
 450 123 l 2
234 57 m 0
 288 57 328 84 358 139 c 1
 358 260 l 1
 289 260 l 2
 192 260 143 224 143 152 c 0
 143 90 174 57 234 57 c 0
EndSplineSet
Validated: 1
Substitution2: "'smcp' Lowercase to Small Capitals lookup 24 subtable" aacute.sc
Substitution2: "'aalt' Access All Alternates lookup 0 subtable" aacute.sc
EndChar

StartChar: abreve
Encoding: 259 259 136
Width: 544
GlyphClass: 2
Flags: MW
HStem: -12 69<204 245> 260 61<277 289 289 358> 464 75<235.5 284.5> 643 70<235.5 282.5 235.5 299.5>
VStem: 45 98<121 188 121 203.5> 358 92<139 260 260 260 321 360 360 364>
AnchorPoint: "Anchor-11" 0 0 basechar 0
AnchorPoint: "Anchor-10" 0 0 basechar 0
AnchorPoint: "Anchor-9" 261 527 basechar 0
AnchorPoint: "Anchor-8" 483 -12 basechar 0
LayerCount: 2
Fore
SplineSet
259 643 m 0
 179 643 117 692 109 776 c 1
 170 789 l 1
 184 739 212 713 259 713 c 0
 306 713 337 739 351 789 c 1
 412 776 l 1
 404 692 340 643 259 643 c 0
450 123 m 2
 450 77 467 62 494 52 c 1
 473 -12 l 1
 420 -6 386 15 370 67 c 1
 333 12 277 -12 213 -12 c 0
 108 -12 45 53 45 147 c 0
 45 260 130 321 277 321 c 2
 358 321 l 1
 358 360 l 2
 358 436 321 464 248 464 c 0
 209 464 160 454 106 436 c 1
 83 503 l 1
 148 527 206 539 265 539 c 0
 392 539 450 474 450 364 c 2
 450 123 l 2
234 57 m 0
 288 57 328 84 358 139 c 1
 358 260 l 1
 289 260 l 2
 192 260 143 224 143 152 c 0
 143 90 174 57 234 57 c 0
EndSplineSet
Validated: 1
Substitution2: "'smcp' Lowercase to Small Capitals lookup 24 subtable" abreve.sc
Substitution2: "'aalt' Access All Alternates lookup 0 subtable" abreve.sc
EndChar

StartChar: acircumflex
Encoding: 226 226 137
Width: 544
GlyphClass: 2
Flags: MW
HStem: -12 69<204 245> 260 61<277 289 289 358> 464 75<235.5 284.5> 718 74<261 261>
VStem: 45 98<121 188 121 203.5> 358 92<139 260 260 260 321 360 360 364>
AnchorPoint: "Anchor-11" 0 0 basechar 0
AnchorPoint: "Anchor-10" 0 0 basechar 0
AnchorPoint: "Anchor-9" 261 527 basechar 0
AnchorPoint: "Anchor-8" 483 -12 basechar 0
LayerCount: 2
Fore
SplineSet
134 634 m 1
 95 679 l 1
 230 792 l 1
 291 792 l 1
 427 679 l 1
 387 634 l 1
 261 718 l 1
 134 634 l 1
450 123 m 2
 450 77 467 62 494 52 c 1
 473 -12 l 1
 420 -6 386 15 370 67 c 1
 333 12 277 -12 213 -12 c 0
 108 -12 45 53 45 147 c 0
 45 260 130 321 277 321 c 2
 358 321 l 1
 358 360 l 2
 358 436 321 464 248 464 c 0
 209 464 160 454 106 436 c 1
 83 503 l 1
 148 527 206 539 265 539 c 0
 392 539 450 474 450 364 c 2
 450 123 l 2
234 57 m 0
 288 57 328 84 358 139 c 1
 358 260 l 1
 289 260 l 2
 192 260 143 224 143 152 c 0
 143 90 174 57 234 57 c 0
EndSplineSet
Validated: 1
Substitution2: "'smcp' Lowercase to Small Capitals lookup 24 subtable" acircumflex.sc
Substitution2: "'aalt' Access All Alternates lookup 0 subtable" acircumflex.sc
EndChar

StartChar: adieresis
Encoding: 228 228 138
Width: 544
GlyphClass: 2
Flags: MW
HStem: -12 69<204 245> 260 61<277 289 289 358> 464 75<235.5 284.5> 654 114<139.5 172 349 381.5>
VStem: 45 98<121 188 121 203.5> 98 115<695 727> 308 115<695 727> 358 92<139 260 260 260 321 360 360 364>
AnchorPoint: "Anchor-11" 0 0 basechar 0
AnchorPoint: "Anchor-10" 0 0 basechar 0
AnchorPoint: "Anchor-9" 261 677 basechar 0
AnchorPoint: "Anchor-8" 483 -12 basechar 0
LayerCount: 2
Fore
SplineSet
156 654 m 0xf6
 123 654 98 679 98 711 c 0
 98 743 123 768 156 768 c 0
 188 768 213 743 213 711 c 0
 213 679 188 654 156 654 c 0xf6
365 654 m 0
 333 654 308 679 308 711 c 0
 308 743 333 768 365 768 c 0
 398 768 423 743 423 711 c 0
 423 679 398 654 365 654 c 0
450 123 m 2xe9
 450 77 467 62 494 52 c 1
 473 -12 l 1
 420 -6 386 15 370 67 c 1
 333 12 277 -12 213 -12 c 0
 108 -12 45 53 45 147 c 0
 45 260 130 321 277 321 c 2
 358 321 l 1
 358 360 l 2
 358 436 321 464 248 464 c 0
 209 464 160 454 106 436 c 1
 83 503 l 1
 148 527 206 539 265 539 c 0
 392 539 450 474 450 364 c 2
 450 123 l 2xe9
234 57 m 0
 288 57 328 84 358 139 c 1
 358 260 l 1
 289 260 l 2
 192 260 143 224 143 152 c 0
 143 90 174 57 234 57 c 0
EndSplineSet
Validated: 1
Substitution2: "'smcp' Lowercase to Small Capitals lookup 24 subtable" adieresis.sc
Substitution2: "'aalt' Access All Alternates lookup 0 subtable" adieresis.sc
EndChar

StartChar: agrave
Encoding: 224 224 139
Width: 544
GlyphClass: 2
Flags: MW
HStem: -12 69<204 245> 260 61<277 289 289 358> 464 75<235.5 284.5>
VStem: 45 98<121 188 121 203.5> 358 92<139 260 260 260 321 360 360 364>
AnchorPoint: "Anchor-11" 0 0 basechar 0
AnchorPoint: "Anchor-10" 0 0 basechar 0
AnchorPoint: "Anchor-9" 261 527 basechar 0
AnchorPoint: "Anchor-8" 483 -12 basechar 0
LayerCount: 2
Fore
SplineSet
363 638 m 1
 151 724 l 1
 192 801 l 1
 391 687 l 1
 363 638 l 1
450 123 m 2
 450 77 467 62 494 52 c 1
 473 -12 l 1
 420 -6 386 15 370 67 c 1
 333 12 277 -12 213 -12 c 0
 108 -12 45 53 45 147 c 0
 45 260 130 321 277 321 c 2
 358 321 l 1
 358 360 l 2
 358 436 321 464 248 464 c 0
 209 464 160 454 106 436 c 1
 83 503 l 1
 148 527 206 539 265 539 c 0
 392 539 450 474 450 364 c 2
 450 123 l 2
234 57 m 0
 288 57 328 84 358 139 c 1
 358 260 l 1
 289 260 l 2
 192 260 143 224 143 152 c 0
 143 90 174 57 234 57 c 0
EndSplineSet
Validated: 1
Substitution2: "'smcp' Lowercase to Small Capitals lookup 24 subtable" agrave.sc
Substitution2: "'aalt' Access All Alternates lookup 0 subtable" agrave.sc
EndChar

StartChar: amacron
Encoding: 257 257 140
Width: 544
GlyphClass: 2
Flags: MW
HStem: -12 69<204 245> 260 61<277 289 289 358> 464 75<235.5 284.5> 667 69<124 397 124 397>
VStem: 45 98<121 188 121 203.5> 124 273<667 736 667 736> 358 92<139 260 260 260 321 360 360 364>
AnchorPoint: "Anchor-11" 0 0 basechar 0
AnchorPoint: "Anchor-10" 0 0 basechar 0
AnchorPoint: "Anchor-9" 261 527 basechar 0
AnchorPoint: "Anchor-8" 483 -12 basechar 0
LayerCount: 2
Fore
SplineSet
397 667 m 1xf4
 124 667 l 1
 124 736 l 1
 397 736 l 1
 397 667 l 1xf4
450 123 m 2xfa
 450 77 467 62 494 52 c 1
 473 -12 l 1
 420 -6 386 15 370 67 c 1
 333 12 277 -12 213 -12 c 0
 108 -12 45 53 45 147 c 0
 45 260 130 321 277 321 c 2
 358 321 l 1
 358 360 l 2
 358 436 321 464 248 464 c 0
 209 464 160 454 106 436 c 1
 83 503 l 1
 148 527 206 539 265 539 c 0
 392 539 450 474 450 364 c 2
 450 123 l 2xfa
234 57 m 0
 288 57 328 84 358 139 c 1
 358 260 l 1
 289 260 l 2
 192 260 143 224 143 152 c 0
 143 90 174 57 234 57 c 0
EndSplineSet
Validated: 1
Substitution2: "'smcp' Lowercase to Small Capitals lookup 24 subtable" amacron.sc
Substitution2: "'aalt' Access All Alternates lookup 0 subtable" amacron.sc
EndChar

StartChar: aogonek
Encoding: 261 261 141
Width: 544
GlyphClass: 2
Flags: MW
HStem: -244 70<385.5 408> -12 21G<160.5 245 473 473> -12 69<204 245> 260 61<277 289 289 358> 464 75<235.5 284.5>
VStem: 45 98<121 188 121 203.5> 270 80<-141 -110.5> 358 92<139 260 260 260 321 360 360 364>
AnchorPoint: "Anchor-11" 0 0 basechar 0
AnchorPoint: "Anchor-10" 0 0 basechar 0
AnchorPoint: "Anchor-9" 261 527 basechar 0
AnchorPoint: "Anchor-8" 483 -12 basechar 0
LayerCount: 2
Fore
SplineSet
473 -12 m 1xbd
 371 -56 350 -90 350 -126 c 0
 350 -156 365 -174 406 -174 c 0
 427 -174 443 -172 467 -167 c 1
 458 -237 l 1
 438 -241 421 -244 395 -244 c 0
 318 -244 270 -201 270 -143 c 0xbf
 270 -78 316 -30 414 6 c 1xdd
 393 19 379 38 370 67 c 1
 333 12 277 -12 213 -12 c 0
 108 -12 45 53 45 147 c 0
 45 260 130 321 277 321 c 2
 358 321 l 1
 358 360 l 2
 358 436 321 464 248 464 c 0
 209 464 160 454 106 436 c 1
 83 503 l 1
 148 527 206 539 265 539 c 0
 392 539 450 474 450 364 c 2
 450 123 l 2
 450 77 467 62 494 52 c 1
 473 -12 l 1xbd
234 57 m 0
 288 57 328 84 358 139 c 1
 358 260 l 1
 289 260 l 2
 192 260 143 224 143 152 c 0
 143 90 174 57 234 57 c 0
EndSplineSet
Validated: 1
Substitution2: "'smcp' Lowercase to Small Capitals lookup 24 subtable" aogonek.sc
Substitution2: "'aalt' Access All Alternates lookup 0 subtable" aogonek.sc
EndChar

StartChar: aring
Encoding: 229 229 142
Width: 544
GlyphClass: 2
Flags: MW
HStem: -12 69<204 245> 260 61<277 289 289 358> 464 75<235.5 284.5> 624 50<244.5 277 244.5 294.5> 786 50<244.5 277.5>
VStem: 45 98<121 188 121 203.5> 147 61<712.5 747.5 712.5 759.5> 314 61<712.5 747.5> 358 92<139 260 260 260 321 360 360 364>
AnchorPoint: "Anchor-11" 0 0 basechar 0
AnchorPoint: "Anchor-10" 0 0 basechar 0
AnchorPoint: "Anchor-9" 261 527 basechar 0
AnchorPoint: "Anchor-8" 483 -12 basechar 0
LayerCount: 2
Fore
SplineSet
261 624 m 0xfb
 194 624 147 671 147 730 c 0
 147 789 194 836 261 836 c 0
 328 836 375 789 375 730 c 0
 375 671 328 624 261 624 c 0xfb
261 786 m 0
 228 786 208 765 208 730 c 0
 208 695 228 674 261 674 c 0
 293 674 314 695 314 730 c 0
 314 765 294 786 261 786 c 0
450 123 m 2xfc80
 450 77 467 62 494 52 c 1
 473 -12 l 1
 420 -6 386 15 370 67 c 1
 333 12 277 -12 213 -12 c 0
 108 -12 45 53 45 147 c 0
 45 260 130 321 277 321 c 2
 358 321 l 1
 358 360 l 2
 358 436 321 464 248 464 c 0
 209 464 160 454 106 436 c 1
 83 503 l 1
 148 527 206 539 265 539 c 0
 392 539 450 474 450 364 c 2
 450 123 l 2xfc80
234 57 m 0
 288 57 328 84 358 139 c 1
 358 260 l 1
 289 260 l 2
 192 260 143 224 143 152 c 0
 143 90 174 57 234 57 c 0
EndSplineSet
Validated: 1
Substitution2: "'smcp' Lowercase to Small Capitals lookup 24 subtable" aring.sc
Substitution2: "'aalt' Access All Alternates lookup 0 subtable" aring.sc
EndChar

StartChar: atilde
Encoding: 227 227 143
Width: 544
GlyphClass: 2
Flags: MW
HStem: -12 69<204 245> 260 61<277 289 289 358> 464 75<235.5 284.5> 656 70<300.5 329 300.5 343> 704 70<191.5 221> 722 20G<428 428>
VStem: 45 98<121 188 121 203.5> 358 92<139 260 260 260 321 360 360 364>
AnchorPoint: "Anchor-11" 0 0 basechar 0
AnchorPoint: "Anchor-10" 0 0 basechar 0
AnchorPoint: "Anchor-9" 261 527 basechar 0
AnchorPoint: "Anchor-8" 483 -12 basechar 0
LayerCount: 2
Fore
SplineSet
203 704 m 0xeb
 180 704 166 688 150 658 c 1
 94 686 l 1
 117 735 153 774 204 774 c 0xeb
 258 774 282 726 319 726 c 0
 339 726 354 740 372 770 c 1xf3
 428 742 l 1xe7
 402 685 364 656 322 656 c 0xf3
 263 656 239 704 203 704 c 0xeb
450 123 m 2xe7
 450 77 467 62 494 52 c 1
 473 -12 l 1
 420 -6 386 15 370 67 c 1
 333 12 277 -12 213 -12 c 0
 108 -12 45 53 45 147 c 0
 45 260 130 321 277 321 c 2
 358 321 l 1
 358 360 l 2
 358 436 321 464 248 464 c 0
 209 464 160 454 106 436 c 1
 83 503 l 1
 148 527 206 539 265 539 c 0
 392 539 450 474 450 364 c 2
 450 123 l 2xe7
234 57 m 0
 288 57 328 84 358 139 c 1
 358 260 l 1
 289 260 l 2
 192 260 143 224 143 152 c 0
 143 90 174 57 234 57 c 0
EndSplineSet
Validated: 1
Substitution2: "'smcp' Lowercase to Small Capitals lookup 24 subtable" atilde.sc
Substitution2: "'aalt' Access All Alternates lookup 0 subtable" atilde.sc
EndChar

StartChar: ae
Encoding: 230 230 144
Width: 854
GlyphClass: 2
Flags: MW
HStem: -12 69<207 256.5> -12 75<563 627 563 630.5> 232 68<459 706 459 795 459 706> 260 61<280 292 292 361> 466 73<547.5 623.5>
VStem: 45 101<121 188 121 203.5> 361 98<232 260 232 260 232 360> 706 91<300 306 306 357.5>
AnchorPoint: "Anchor-11" 0 0 basechar 0
AnchorPoint: "Anchor-10" 0 0 basechar 0
AnchorPoint: "Anchor-9" 422 527 basechar 0
AnchorPoint: "Anchor-8" 0 0 basechar 0
LayerCount: 2
Fore
SplineSet
797 279 m 0xaf
 797 261 796 244 795 232 c 1
 459 232 l 1
 468 110 525 63 601 63 c 0
 653 63 692 77 738 109 c 1x6f
 778 54 l 1
 726 13 667 -12 594 -12 c 0
 509 -12 444 23 404 85 c 1
 355 14 297 -12 216 -12 c 0
 110 -12 45 53 45 147 c 0
 45 260 133 321 280 321 c 2
 361 321 l 1x9f
 361 360 l 2
 361 436 324 464 251 464 c 0
 212 464 163 454 109 436 c 1
 86 503 l 1
 151 527 209 539 268 539 c 0
 352 539 399 506 425 455 c 1
 461 508 511 539 584 539 c 0
 722 539 797 440 797 279 c 0xaf
706 300 m 1
 706 306 l 2
 706 409 665 466 582 466 c 0
 512 466 466 417 459 300 c 1
 706 300 l 1
237 57 m 0
 294 57 336 86 376 149 c 1
 366 181 361 217 361 257 c 2
 361 260 l 1
 292 260 l 2x9f
 195 260 146 224 146 152 c 0
 146 90 177 57 237 57 c 0
EndSplineSet
Validated: 1
Substitution2: "'smcp' Lowercase to Small Capitals lookup 24 subtable" ae.sc
Substitution2: "'aalt' Access All Alternates lookup 0 subtable" ae.sc
EndChar

StartChar: aeacute
Encoding: 509 509 145
Width: 854
GlyphClass: 2
Flags: MW
HStem: -12 69<207 256.5> -12 75<563 627 563 630.5> 232 68<459 706 459 795 459 706> 260 61<280 292 292 361> 466 73<547.5 623.5>
VStem: 45 101<121 188 121 203.5> 361 98<232 260 232 260 232 360> 706 91<300 306 306 357.5>
AnchorPoint: "Anchor-11" 0 0 basechar 0
AnchorPoint: "Anchor-10" 0 0 basechar 0
AnchorPoint: "Anchor-9" 422 527 basechar 0
AnchorPoint: "Anchor-8" 0 0 basechar 0
LayerCount: 2
Fore
SplineSet
320 638 m 1xaf
 292 687 l 1
 491 801 l 1
 532 724 l 1
 320 638 l 1xaf
797 279 m 0
 797 261 796 244 795 232 c 1
 459 232 l 1
 468 110 525 63 601 63 c 0
 653 63 692 77 738 109 c 1x6f
 778 54 l 1
 726 13 667 -12 594 -12 c 0
 509 -12 444 23 404 85 c 1
 355 14 297 -12 216 -12 c 0
 110 -12 45 53 45 147 c 0
 45 260 133 321 280 321 c 2
 361 321 l 1x9f
 361 360 l 2
 361 436 324 464 251 464 c 0
 212 464 163 454 109 436 c 1
 86 503 l 1
 151 527 209 539 268 539 c 0
 352 539 399 506 425 455 c 1
 461 508 511 539 584 539 c 0
 722 539 797 440 797 279 c 0
706 300 m 1
 706 306 l 2
 706 409 665 466 582 466 c 0
 512 466 466 417 459 300 c 1
 706 300 l 1
237 57 m 0
 294 57 336 86 376 149 c 1
 366 181 361 217 361 257 c 2
 361 260 l 1
 292 260 l 2x9f
 195 260 146 224 146 152 c 0
 146 90 177 57 237 57 c 0
EndSplineSet
Validated: 1
Substitution2: "'smcp' Lowercase to Small Capitals lookup 24 subtable" aeacute.sc
Substitution2: "'aalt' Access All Alternates lookup 0 subtable" aeacute.sc
EndChar

StartChar: b
Encoding: 98 98 146
Width: 594
GlyphClass: 2
Flags: MW
HStem: -12 73<296 341.5 279.5 389> 0 21G<95 176 95 95> 466 73<304 347> 719 20G<95 95> 730 20G<187 187>
VStem: 95 92<132 384 461 739 739 739> 433 99<192 339>
LayerCount: 2
Fore
SplineSet
336 539 m 0xae
 455 539 532 440 532 264 c 0
 532 99 453 -12 325 -12 c 0
 267 -12 221 14 185 58 c 1xae
 176 0 l 1
 95 0 l 1
 95 739 l 1x76
 187 750 l 1
 187 461 l 1
 223 510 272 539 336 539 c 0xae
303 61 m 0
 380 61 433 120 433 264 c 0
 433 414 384 466 310 466 c 0
 252 466 214 426 187 384 c 1
 187 132 l 1
 214 90 256 61 303 61 c 0
EndSplineSet
Validated: 1
Substitution2: "'smcp' Lowercase to Small Capitals lookup 24 subtable" b.sc
Substitution2: "'aalt' Access All Alternates lookup 0 subtable" b.sc
EndChar

StartChar: c
Encoding: 99 99 147
Width: 478
GlyphClass: 2
Flags: MW
HStem: -12 78<249.5 313 249.5 317.5> 463 76<249.5 313>
VStem: 57 99<192 329.5 192 343>
AnchorPoint: "Anchor-11" 284 0 basechar 0
AnchorPoint: "Anchor-10" 0 0 basechar 0
AnchorPoint: "Anchor-9" 289 527 basechar 0
AnchorPoint: "Anchor-8" 0 0 basechar 0
LayerCount: 2
Fore
SplineSet
287 539 m 0
 349 539 399 523 448 482 c 1
 403 422 l 1
 368 450 335 463 291 463 c 0
 208 463 156 398 156 261 c 0
 156 123 208 66 291 66 c 0
 335 66 366 80 404 109 c 1
 448 46 l 1
 401 8 348 -12 287 -12 c 0
 145 -12 57 89 57 259 c 0
 57 427 144 539 287 539 c 0
EndSplineSet
Validated: 1
Substitution2: "'smcp' Lowercase to Small Capitals lookup 24 subtable" c.sc
Substitution2: "'aalt' Access All Alternates lookup 0 subtable" c.sc
EndChar

StartChar: cacute
Encoding: 263 263 148
Width: 478
GlyphClass: 2
Flags: MW
HStem: -12 78<249.5 313 249.5 317.5> 463 76<249.5 313>
VStem: 57 99<192 329.5 192 343>
AnchorPoint: "Anchor-11" 284 0 basechar 0
AnchorPoint: "Anchor-10" 0 0 basechar 0
AnchorPoint: "Anchor-9" 289 527 basechar 0
AnchorPoint: "Anchor-8" 0 0 basechar 0
LayerCount: 2
Fore
SplineSet
399 724 m 1
 187 638 l 1
 159 687 l 1
 358 801 l 1
 399 724 l 1
287 539 m 0
 349 539 399 523 448 482 c 1
 403 422 l 1
 368 450 335 463 291 463 c 0
 208 463 156 398 156 261 c 0
 156 123 208 66 291 66 c 0
 335 66 366 80 404 109 c 1
 448 46 l 1
 401 8 348 -12 287 -12 c 0
 145 -12 57 89 57 259 c 0
 57 427 144 539 287 539 c 0
EndSplineSet
Validated: 1
Substitution2: "'smcp' Lowercase to Small Capitals lookup 24 subtable" cacute.sc
Substitution2: "'locl' Localized Forms in Latin lookup 7 subtable" cacute.loclPLK
AlternateSubs2: "'aalt' Access All Alternates lookup 1 subtable" cacute.loclPLK cacute.sc
EndChar

StartChar: ccaron
Encoding: 269 269 149
Width: 478
GlyphClass: 2
Flags: MW
HStem: -12 78<249.5 313 249.5 317.5> 463 76<249.5 313> 627 74<289 289 289 320 259 289> 681 20G<289 289> 720 20G<123 123 455 455>
VStem: 57 99<192 329.5 192 343>
AnchorPoint: "Anchor-11" 284 0 basechar 0
AnchorPoint: "Anchor-10" 0 0 basechar 0
AnchorPoint: "Anchor-9" 289 527 basechar 0
AnchorPoint: "Anchor-8" 0 0 basechar 0
LayerCount: 2
Fore
SplineSet
455 740 m 1xdc
 320 627 l 1
 259 627 l 1xec
 123 740 l 1
 163 785 l 1
 289 701 l 1
 416 785 l 1
 455 740 l 1xdc
287 539 m 0
 349 539 399 523 448 482 c 1
 403 422 l 1
 368 450 335 463 291 463 c 0
 208 463 156 398 156 261 c 0
 156 123 208 66 291 66 c 0
 335 66 366 80 404 109 c 1
 448 46 l 1
 401 8 348 -12 287 -12 c 0
 145 -12 57 89 57 259 c 0
 57 427 144 539 287 539 c 0
EndSplineSet
Validated: 1
Substitution2: "'smcp' Lowercase to Small Capitals lookup 24 subtable" ccaron.sc
Substitution2: "'aalt' Access All Alternates lookup 0 subtable" ccaron.sc
EndChar

StartChar: ccedilla
Encoding: 231 231 150
Width: 478
GlyphClass: 2
Flags: MW
HStem: -241 60<261 288 261 311> -217 21G<186 186> -99 43<235 308> -11 77<308 308> 463 76<249.5 313>
VStem: 57 99<192 329.5 192 343> 240.5 67.5 324 77<-155.5 -127.5>
AnchorPoint: "Anchor-11" 284 0 basechar 0
AnchorPoint: "Anchor-10" 0 0 basechar 0
AnchorPoint: "Anchor-9" 289 527 basechar 0
AnchorPoint: "Anchor-8" 0 0 basechar 0
LayerCount: 2
Fore
SplineSet
448 46 m 1x7e
 406 12 360 -7 308 -11 c 1
 308 -56 l 1x7e
 376 -62 401 -100 401 -141 c 0
 401 -207 345 -241 277 -241 c 0xbf
 239 -241 206 -232 186 -217 c 1x7e
 211 -165 l 1
 230 -175 248 -181 274 -181 c 0
 302 -181 324 -170 324 -141 c 0xbf
 324 -114 299 -99 235 -99 c 1
 246 -9 l 1
 128 9 57 106 57 259 c 0
 57 427 144 539 287 539 c 0
 349 539 399 523 448 482 c 1
 403 422 l 1
 368 450 335 463 291 463 c 0
 208 463 156 398 156 261 c 0
 156 123 208 66 291 66 c 0
 335 66 366 80 404 109 c 1
 448 46 l 1x7e
EndSplineSet
Validated: 1
Substitution2: "'smcp' Lowercase to Small Capitals lookup 24 subtable" ccedilla.sc
Substitution2: "'aalt' Access All Alternates lookup 0 subtable" ccedilla.sc
EndChar

StartChar: ccircumflex
Encoding: 265 265 151
Width: 478
GlyphClass: 2
Flags: MW
HStem: -12 78<249.5 313 249.5 317.5> 463 76<249.5 313> 718 74<289 289>
VStem: 57 99<192 329.5 192 343>
AnchorPoint: "Anchor-11" 284 0 basechar 0
AnchorPoint: "Anchor-10" 0 0 basechar 0
AnchorPoint: "Anchor-9" 289 527 basechar 0
AnchorPoint: "Anchor-8" 0 0 basechar 0
LayerCount: 2
Fore
SplineSet
123 679 m 1
 258 792 l 1
 319 792 l 1
 455 679 l 1
 415 634 l 1
 289 718 l 1
 162 634 l 1
 123 679 l 1
287 539 m 0
 349 539 399 523 448 482 c 1
 403 422 l 1
 368 450 335 463 291 463 c 0
 208 463 156 398 156 261 c 0
 156 123 208 66 291 66 c 0
 335 66 366 80 404 109 c 1
 448 46 l 1
 401 8 348 -12 287 -12 c 0
 145 -12 57 89 57 259 c 0
 57 427 144 539 287 539 c 0
EndSplineSet
Validated: 1
Substitution2: "'smcp' Lowercase to Small Capitals lookup 24 subtable" ccircumflex.sc
Substitution2: "'aalt' Access All Alternates lookup 0 subtable" ccircumflex.sc
EndChar

StartChar: cdotaccent
Encoding: 267 267 152
Width: 478
GlyphClass: 2
Flags: MW
HStem: -12 78<249.5 313 249.5 317.5> 463 76<249.5 313> 655 125<269 307.5>
VStem: 57 99<192 329.5 192 343> 224 129<699.5 735>
AnchorPoint: "Anchor-11" 284 0 basechar 0
AnchorPoint: "Anchor-10" 0 0 basechar 0
AnchorPoint: "Anchor-9" 289 527 basechar 0
AnchorPoint: "Anchor-8" 0 0 basechar 0
LayerCount: 2
Fore
SplineSet
288 780 m 0
 327 780 353 753 353 717 c 0
 353 682 327 655 288 655 c 0
 250 655 224 682 224 717 c 0
 224 753 250 780 288 780 c 0
287 539 m 0
 349 539 399 523 448 482 c 1
 403 422 l 1
 368 450 335 463 291 463 c 0
 208 463 156 398 156 261 c 0
 156 123 208 66 291 66 c 0
 335 66 366 80 404 109 c 1
 448 46 l 1
 401 8 348 -12 287 -12 c 0
 145 -12 57 89 57 259 c 0
 57 427 144 539 287 539 c 0
EndSplineSet
Validated: 1
Substitution2: "'smcp' Lowercase to Small Capitals lookup 24 subtable" cdotaccent.sc
Substitution2: "'aalt' Access All Alternates lookup 0 subtable" cdotaccent.sc
EndChar

StartChar: d
Encoding: 100 100 153
Width: 598
GlyphClass: 2
Flags: MW
HStem: -12 73<243 293.5> 0 21G<422 503 422 422> 466 73<249.5 300 204.5 315> 719 20G<503 503> 730 20G<411 411>
VStem: 62 99<193.5 331.5 193.5 341.5> 411 92<139 397 397 397 474 739 0 750 0 750>
LayerCount: 2
Fore
SplineSet
503 739 m 1xb6
 503 0 l 1
 422 0 l 1x6e
 413 73 l 1
 379 20 326 -12 261 -12 c 0
 133 -12 62 97 62 261 c 0
 62 422 140 539 269 539 c 0
 331 539 376 511 411 474 c 1
 411 750 l 1xae
 503 739 l 1xb6
281 61 m 0xae
 340 61 376 90 411 139 c 1
 411 397 l 1
 378 439 341 466 289 466 c 0
 210 466 161 400 161 263 c 0
 161 124 205 61 281 61 c 0xae
EndSplineSet
Validated: 1
Substitution2: "'smcp' Lowercase to Small Capitals lookup 24 subtable" d.sc
Substitution2: "'aalt' Access All Alternates lookup 0 subtable" d.sc
EndChar

StartChar: eth
Encoding: 240 240 154
Width: 570
GlyphClass: 2
Flags: MW
HStem: -12 73<239.5 317.5 239.5 346> 403 72<225 290.5 189.5 303.5> 551 20G<151 151> 682 20G<281 281> 730 20G<132 132>
VStem: 57 94<180.5 283 180.5 294> 415 93<198.5 276.5>
LayerCount: 2
Fore
SplineSet
342 664 m 1
 466 570 508 445 508 265 c 0
 508 97 414 -12 278 -12 c 0
 155 -12 57 77 57 235 c 0
 57 353 121 475 258 475 c 0
 323 475 370 450 405 408 c 1
 389 491 353 555 286 607 c 1
 214 539 l 1
 151 571 l 1
 225 645 l 1
 186 662 153 672 112 680 c 1
 132 750 l 1
 188 739 234 725 281 702 c 1
 351 776 l 1
 405 729 l 1
 342 664 l 1
277 61 m 0
 358 61 415 131 415 266 c 0
 415 287 414 306 413 325 c 1
 379 376 335 403 272 403 c 0
 178 403 151 327 151 239 c 0
 151 122 202 61 277 61 c 0
EndSplineSet
Validated: 1
Substitution2: "'smcp' Lowercase to Small Capitals lookup 24 subtable" eth.sc
Substitution2: "'aalt' Access All Alternates lookup 0 subtable" eth.sc
EndChar

StartChar: dcaron
Encoding: 271 271 155
Width: 657
GlyphClass: 2
Flags: MW
HStem: -12 73<243 293.5> 0 21G<422 503 422 422> 466 73<249.5 300 204.5 315> 543 20G<555 555> 719 20G<503 503 654 654> 729 20G<571 571> 730 20G<411 411>
VStem: 62 99<193.5 331.5 193.5 341.5> 411 92<139 397 397 397 474 739 0 750 0 750>
LayerCount: 2
Fore
SplineSet
411 750 m 1xa380
 503 739 l 1
 503 0 l 1
 422 0 l 1x6980
 413 73 l 1
 379 20 326 -12 261 -12 c 0
 133 -12 62 97 62 261 c 0
 62 422 140 539 269 539 c 0
 331 539 376 511 411 474 c 1
 411 750 l 1xa380
654 739 m 1
 608 555 l 1
 555 563 l 1
 571 749 l 1x9580
 654 739 l 1
281 61 m 0
 340 61 376 90 411 139 c 1
 411 397 l 1
 378 439 341 466 289 466 c 0xa380
 210 466 161 400 161 263 c 0
 161 124 205 61 281 61 c 0
EndSplineSet
Validated: 1
Substitution2: "'smcp' Lowercase to Small Capitals lookup 24 subtable" dcaron.sc
Substitution2: "'aalt' Access All Alternates lookup 0 subtable" dcaron.sc
EndChar

StartChar: dcroat
Encoding: 273 273 156
Width: 607
GlyphClass: 2
Flags: MW
HStem: -12 73<243 293.5> 0 21G<422 503 422 422> 466 73<249.5 300 204.5 315> 606 70<258 411 258 258 503 582> 719 20G<503 503> 730 20G<411 411>
VStem: 62 99<193.5 331.5 193.5 341.5> 411 92<139 397 397 397 474 606 0 606 676 739>
LayerCount: 2
Fore
SplineSet
582 676 m 1xb7
 582 606 l 1
 503 606 l 1
 503 0 l 1
 422 0 l 1x77
 413 73 l 1
 379 20 326 -12 261 -12 c 0
 133 -12 62 97 62 261 c 0
 62 422 140 539 269 539 c 0
 331 539 376 511 411 474 c 1
 411 606 l 1
 258 606 l 1
 248 676 l 1
 411 676 l 1
 411 750 l 1xb7
 503 739 l 1xbb
 503 676 l 1
 582 676 l 1xb7
281 61 m 0xb7
 340 61 376 90 411 139 c 1
 411 397 l 1
 378 439 341 466 289 466 c 0
 210 466 161 400 161 263 c 0
 161 124 205 61 281 61 c 0xb7
EndSplineSet
Validated: 1
Substitution2: "'smcp' Lowercase to Small Capitals lookup 24 subtable" dcroat.sc
Substitution2: "'aalt' Access All Alternates lookup 0 subtable" dcroat.sc
EndChar

StartChar: e
Encoding: 101 101 157
Width: 550
GlyphClass: 2
Flags: MW
HStem: -12 75<259 323 259 326.5> 232 68<155 402 155 491 155 402> 466 73<243 319.5>
VStem: 57 98<232 232 232 300 232 340> 402 91<300 306 306 357.5>
AnchorPoint: "Anchor-11" 293 0 basechar 0
AnchorPoint: "Anchor-10" 0 0 basechar 0
AnchorPoint: "Anchor-9" 279 527 basechar 0
AnchorPoint: "Anchor-8" 399 6 basechar 0
LayerCount: 2
Fore
SplineSet
493 279 m 0
 493 261 492 244 491 232 c 1
 155 232 l 1
 164 110 221 63 297 63 c 0
 349 63 388 77 434 109 c 1
 474 54 l 1
 422 13 363 -12 290 -12 c 0
 143 -12 57 91 57 258 c 0
 57 422 140 539 276 539 c 0
 418 539 493 440 493 279 c 0
402 300 m 1
 402 306 l 2
 402 409 361 466 278 466 c 0
 208 466 162 417 155 300 c 1
 402 300 l 1
EndSplineSet
Validated: 1
Substitution2: "'smcp' Lowercase to Small Capitals lookup 24 subtable" e.sc
Substitution2: "'aalt' Access All Alternates lookup 0 subtable" e.sc
EndChar

StartChar: eacute
Encoding: 233 233 158
Width: 550
GlyphClass: 2
Flags: MW
HStem: -12 75<259 323 259 326.5> 232 68<155 402 155 491 155 402> 466 73<243 319.5>
VStem: 57 98<232 232 232 300 232 340> 402 91<300 306 306 357.5>
AnchorPoint: "Anchor-11" 293 0 basechar 0
AnchorPoint: "Anchor-10" 0 0 basechar 0
AnchorPoint: "Anchor-9" 279 527 basechar 0
AnchorPoint: "Anchor-8" 399 6 basechar 0
LayerCount: 2
Fore
SplineSet
177 638 m 1
 149 687 l 1
 348 801 l 1
 389 724 l 1
 177 638 l 1
493 279 m 0
 493 261 492 244 491 232 c 1
 155 232 l 1
 164 110 221 63 297 63 c 0
 349 63 388 77 434 109 c 1
 474 54 l 1
 422 13 363 -12 290 -12 c 0
 143 -12 57 91 57 258 c 0
 57 422 140 539 276 539 c 0
 418 539 493 440 493 279 c 0
402 300 m 1
 402 306 l 2
 402 409 361 466 278 466 c 0
 208 466 162 417 155 300 c 1
 402 300 l 1
EndSplineSet
Validated: 1
Substitution2: "'smcp' Lowercase to Small Capitals lookup 24 subtable" eacute.sc
Substitution2: "'aalt' Access All Alternates lookup 0 subtable" eacute.sc
EndChar

StartChar: ebreve
Encoding: 277 277 159
Width: 550
GlyphClass: 2
Flags: MW
HStem: -12 75<259 323 259 326.5> 232 68<155 402 155 491 155 402> 466 73<243 319.5> 643 70<253.5 300.5 253.5 317.5>
VStem: 57 98<232 232 232 300 232 340> 402 91<300 306 306 357.5>
AnchorPoint: "Anchor-11" 293 0 basechar 0
AnchorPoint: "Anchor-10" 0 0 basechar 0
AnchorPoint: "Anchor-9" 279 527 basechar 0
AnchorPoint: "Anchor-8" 399 6 basechar 0
LayerCount: 2
Fore
SplineSet
277 643 m 0
 197 643 135 692 127 776 c 1
 188 789 l 1
 202 739 230 713 277 713 c 0
 324 713 355 739 369 789 c 1
 430 776 l 1
 422 692 358 643 277 643 c 0
493 279 m 0
 493 261 492 244 491 232 c 1
 155 232 l 1
 164 110 221 63 297 63 c 0
 349 63 388 77 434 109 c 1
 474 54 l 1
 422 13 363 -12 290 -12 c 0
 143 -12 57 91 57 258 c 0
 57 422 140 539 276 539 c 0
 418 539 493 440 493 279 c 0
402 300 m 1
 402 306 l 2
 402 409 361 466 278 466 c 0
 208 466 162 417 155 300 c 1
 402 300 l 1
EndSplineSet
Validated: 1
Substitution2: "'smcp' Lowercase to Small Capitals lookup 24 subtable" ebreve.sc
Substitution2: "'aalt' Access All Alternates lookup 0 subtable" ebreve.sc
EndChar

StartChar: ecaron
Encoding: 283 283 160
Width: 550
GlyphClass: 2
Flags: MW
HStem: -12 75<259 323 259 326.5> 232 68<155 402 155 491 155 402> 466 73<243 319.5> 627 74<249 279 279 279 279 310> 720 20G<113 113 445 445>
VStem: 57 98<232 232 232 300 232 340> 402 91<300 306 306 357.5>
AnchorPoint: "Anchor-11" 293 0 basechar 0
AnchorPoint: "Anchor-10" 0 0 basechar 0
AnchorPoint: "Anchor-9" 279 527 basechar 0
AnchorPoint: "Anchor-8" 399 6 basechar 0
LayerCount: 2
Fore
SplineSet
249 627 m 1
 113 740 l 1
 153 785 l 1
 279 701 l 1
 406 785 l 1
 445 740 l 1
 310 627 l 1
 249 627 l 1
493 279 m 0
 493 261 492 244 491 232 c 1
 155 232 l 1
 164 110 221 63 297 63 c 0
 349 63 388 77 434 109 c 1
 474 54 l 1
 422 13 363 -12 290 -12 c 0
 143 -12 57 91 57 258 c 0
 57 422 140 539 276 539 c 0
 418 539 493 440 493 279 c 0
402 300 m 1
 402 306 l 2
 402 409 361 466 278 466 c 0
 208 466 162 417 155 300 c 1
 402 300 l 1
EndSplineSet
Validated: 1
Substitution2: "'smcp' Lowercase to Small Capitals lookup 24 subtable" ecaron.sc
Substitution2: "'aalt' Access All Alternates lookup 0 subtable" ecaron.sc
EndChar

StartChar: ecircumflex
Encoding: 234 234 161
Width: 550
GlyphClass: 2
Flags: MW
HStem: -12 75<259 323 259 326.5> 232 68<155 402 155 491 155 402> 466 73<243 319.5> 718 74<279 279>
VStem: 57 98<232 232 232 300 232 340> 402 91<300 306 306 357.5>
AnchorPoint: "Anchor-11" 293 0 basechar 0
AnchorPoint: "Anchor-10" 0 0 basechar 0
AnchorPoint: "Anchor-9" 279 527 basechar 0
AnchorPoint: "Anchor-8" 399 6 basechar 0
LayerCount: 2
Fore
SplineSet
152 634 m 1
 113 679 l 1
 248 792 l 1
 309 792 l 1
 445 679 l 1
 405 634 l 1
 279 718 l 1
 152 634 l 1
493 279 m 0
 493 261 492 244 491 232 c 1
 155 232 l 1
 164 110 221 63 297 63 c 0
 349 63 388 77 434 109 c 1
 474 54 l 1
 422 13 363 -12 290 -12 c 0
 143 -12 57 91 57 258 c 0
 57 422 140 539 276 539 c 0
 418 539 493 440 493 279 c 0
402 300 m 1
 402 306 l 2
 402 409 361 466 278 466 c 0
 208 466 162 417 155 300 c 1
 402 300 l 1
EndSplineSet
Validated: 1
Substitution2: "'smcp' Lowercase to Small Capitals lookup 24 subtable" ecircumflex.sc
Substitution2: "'aalt' Access All Alternates lookup 0 subtable" ecircumflex.sc
EndChar

StartChar: edieresis
Encoding: 235 235 162
Width: 550
GlyphClass: 2
Flags: MW
HStem: -12 75<259 323 259 326.5> 232 68<155 402 155 491 155 402> 466 73<243 319.5> 654 114<157.5 190 367 399.5>
VStem: 57 98<232 232 232 300 232 340> 116 115<695 727> 326 115<695 727> 402 91<300 306 306 357.5>
AnchorPoint: "Anchor-11" 293 0 basechar 0
AnchorPoint: "Anchor-10" 0 0 basechar 0
AnchorPoint: "Anchor-9" 279 677 basechar 0
AnchorPoint: "Anchor-8" 399 6 basechar 0
LayerCount: 2
Fore
SplineSet
174 654 m 0xf6
 141 654 116 679 116 711 c 0
 116 743 141 768 174 768 c 0
 206 768 231 743 231 711 c 0
 231 679 206 654 174 654 c 0xf6
383 654 m 0
 351 654 326 679 326 711 c 0
 326 743 351 768 383 768 c 0
 416 768 441 743 441 711 c 0
 441 679 416 654 383 654 c 0
493 279 m 0xe9
 493 261 492 244 491 232 c 1
 155 232 l 1
 164 110 221 63 297 63 c 0
 349 63 388 77 434 109 c 1
 474 54 l 1
 422 13 363 -12 290 -12 c 0
 143 -12 57 91 57 258 c 0
 57 422 140 539 276 539 c 0
 418 539 493 440 493 279 c 0xe9
402 300 m 1
 402 306 l 2
 402 409 361 466 278 466 c 0
 208 466 162 417 155 300 c 1
 402 300 l 1
EndSplineSet
Validated: 1
Substitution2: "'smcp' Lowercase to Small Capitals lookup 24 subtable" edieresis.sc
Substitution2: "'aalt' Access All Alternates lookup 0 subtable" edieresis.sc
EndChar

StartChar: edotaccent
Encoding: 279 279 163
Width: 550
GlyphClass: 2
Flags: MW
HStem: -12 75<259 323 259 326.5> 232 68<155 402 155 491 155 402> 466 73<243 319.5> 655 125<259 297.5>
VStem: 57 98<232 232 232 300 232 340> 214 129<699.5 735> 402 91<300 306 306 357.5>
AnchorPoint: "Anchor-11" 293 0 basechar 0
AnchorPoint: "Anchor-10" 0 0 basechar 0
AnchorPoint: "Anchor-9" 279 527 basechar 0
AnchorPoint: "Anchor-8" 399 6 basechar 0
LayerCount: 2
Fore
SplineSet
278 655 m 0
 240 655 214 682 214 717 c 0
 214 753 240 780 278 780 c 0
 317 780 343 753 343 717 c 0
 343 682 317 655 278 655 c 0
493 279 m 0
 493 261 492 244 491 232 c 1
 155 232 l 1
 164 110 221 63 297 63 c 0
 349 63 388 77 434 109 c 1
 474 54 l 1
 422 13 363 -12 290 -12 c 0
 143 -12 57 91 57 258 c 0
 57 422 140 539 276 539 c 0
 418 539 493 440 493 279 c 0
402 300 m 1
 402 306 l 2
 402 409 361 466 278 466 c 0
 208 466 162 417 155 300 c 1
 402 300 l 1
EndSplineSet
Validated: 1
Substitution2: "'smcp' Lowercase to Small Capitals lookup 24 subtable" edotaccent.sc
Substitution2: "'aalt' Access All Alternates lookup 0 subtable" edotaccent.sc
EndChar

StartChar: egrave
Encoding: 232 232 164
Width: 550
GlyphClass: 2
Flags: MW
HStem: -12 75<259 323 259 326.5> 232 68<155 402 155 491 155 402> 466 73<243 319.5>
VStem: 57 98<232 232 232 300 232 340> 402 91<300 306 306 357.5>
AnchorPoint: "Anchor-11" 293 0 basechar 0
AnchorPoint: "Anchor-10" 0 0 basechar 0
AnchorPoint: "Anchor-9" 279 527 basechar 0
AnchorPoint: "Anchor-8" 399 6 basechar 0
LayerCount: 2
Fore
SplineSet
381 638 m 1
 169 724 l 1
 210 801 l 1
 409 687 l 1
 381 638 l 1
493 279 m 0
 493 261 492 244 491 232 c 1
 155 232 l 1
 164 110 221 63 297 63 c 0
 349 63 388 77 434 109 c 1
 474 54 l 1
 422 13 363 -12 290 -12 c 0
 143 -12 57 91 57 258 c 0
 57 422 140 539 276 539 c 0
 418 539 493 440 493 279 c 0
402 300 m 1
 402 306 l 2
 402 409 361 466 278 466 c 0
 208 466 162 417 155 300 c 1
 402 300 l 1
EndSplineSet
Validated: 1
Substitution2: "'smcp' Lowercase to Small Capitals lookup 24 subtable" egrave.sc
Substitution2: "'aalt' Access All Alternates lookup 0 subtable" egrave.sc
EndChar

StartChar: emacron
Encoding: 275 275 165
Width: 550
GlyphClass: 2
Flags: MW
HStem: -12 75<259 323 259 326.5> 232 68<155 402 155 491 155 402> 466 73<243 319.5> 667 69<142 415 142 415>
VStem: 57 98<232 232 232 300 232 340> 142 273<667 736 667 736> 402 91<300 306 306 357.5>
AnchorPoint: "Anchor-11" 293 0 basechar 0
AnchorPoint: "Anchor-10" 0 0 basechar 0
AnchorPoint: "Anchor-9" 279 527 basechar 0
AnchorPoint: "Anchor-8" 399 6 basechar 0
LayerCount: 2
Fore
SplineSet
415 667 m 1xf4
 142 667 l 1
 142 736 l 1
 415 736 l 1
 415 667 l 1xf4
493 279 m 0xfa
 493 261 492 244 491 232 c 1
 155 232 l 1
 164 110 221 63 297 63 c 0
 349 63 388 77 434 109 c 1
 474 54 l 1
 422 13 363 -12 290 -12 c 0
 143 -12 57 91 57 258 c 0
 57 422 140 539 276 539 c 0
 418 539 493 440 493 279 c 0xfa
402 300 m 1
 402 306 l 2
 402 409 361 466 278 466 c 0
 208 466 162 417 155 300 c 1
 402 300 l 1
EndSplineSet
Validated: 1
Substitution2: "'smcp' Lowercase to Small Capitals lookup 24 subtable" emacron.sc
Substitution2: "'aalt' Access All Alternates lookup 0 subtable" emacron.sc
EndChar

StartChar: eogonek
Encoding: 281 281 166
Width: 550
GlyphClass: 2
Flags: MW
HStem: -226 70<301.5 324> -11 74 232 68<155 402 155 491 155 402> 466 73<243 319.5>
VStem: 57 98<232 232 232 300 232 340> 186 80<-123 -101.5> 402 91<300 306 306 357.5>
AnchorPoint: "Anchor-11" 293 0 basechar 0
AnchorPoint: "Anchor-10" 0 0 basechar 0
AnchorPoint: "Anchor-9" 279 527 basechar 0
AnchorPoint: "Anchor-8" 399 6 basechar 0
LayerCount: 2
Fore
SplineSet
493 279 m 0
 493 261 492 244 491 232 c 1
 155 232 l 1
 164 110 221 63 297 63 c 0
 349 63 388 77 434 109 c 1
 474 54 l 1
 445 31 415 14 381 2 c 1
 286 -40 266 -73 266 -108 c 0
 266 -138 281 -156 322 -156 c 0
 343 -156 359 -154 383 -149 c 1
 374 -219 l 1
 354 -223 337 -226 311 -226 c 0
 234 -226 186 -183 186 -125 c 0
 186 -78 214 -39 269 -11 c 1
 135 -2 57 99 57 258 c 0
 57 422 140 539 276 539 c 0
 418 539 493 440 493 279 c 0
402 300 m 1
 402 306 l 2
 402 409 361 466 278 466 c 0
 208 466 162 417 155 300 c 1
 402 300 l 1
EndSplineSet
Validated: 1
Substitution2: "'smcp' Lowercase to Small Capitals lookup 24 subtable" eogonek.sc
Substitution2: "'aalt' Access All Alternates lookup 0 subtable" eogonek.sc
EndChar

StartChar: f
Encoding: 102 102 167
Width: 335
GlyphClass: 2
Flags: MW
HStem: 0 21G<104 196 104 104> 456 71<10 104 10 104 196 314> 676 74<245 287.5>
VStem: 104 92<0 456 0 456 527 599 599 600>
LayerCount: 2
Fore
SplineSet
274 676 m 0
 216 676 196 651 196 600 c 2
 196 527 l 1
 324 527 l 1
 314 456 l 1
 196 456 l 1
 196 0 l 1
 104 0 l 1
 104 456 l 1
 10 456 l 1
 10 527 l 1
 104 527 l 1
 104 599 l 2
 104 687 162 750 269 750 c 0
 319 750 353 741 395 723 c 1
 366 656 l 1
 332 671 301 676 274 676 c 0
EndSplineSet
Validated: 1
Substitution2: "'smcp' Lowercase to Small Capitals lookup 24 subtable" f.sc
Substitution2: "'aalt' Access All Alternates lookup 0 subtable" f.sc
EndChar

StartChar: g
Encoding: 103 103 168
Width: 520
GlyphClass: 2
Flags: MW
HStem: -213 72<193 308 193 332.5> 16 77<169 318 234 299> 175 61<246 290 218 321> 473 66<216.5 252 194 289.5> 487 52
VStem: 25 83<-83 -53 -83 -53> 49 94<321 389.5 320 409> 80 85<124 133> 365 94<318 384.5 302 394.5> 405 93<-85.5 -34>
AnchorPoint: "Anchor-11" 0 0 basechar 0
AnchorPoint: "Anchor-10" 0 0 basechar 0
AnchorPoint: "Anchor-9" 257 527 basechar 0
AnchorPoint: "Anchor-8" 0 0 basechar 0
LayerCount: 2
Fore
SplineSet
520 503 m 1xf280
 476 489 426 487 366 487 c 1
 428 459 459 415 459 354 c 0
 459 250 384 175 258 175 c 0
 234 175 213 178 191 185 c 1
 176 174 165 155 165 136 c 0
 165 112 180 93 234 93 c 2xe980
 318 93 l 2
 426 93 498 31 498 -53 c 0
 498 -155 414 -213 251 -213 c 0
 79 -213 25 -160 25 -53 c 1
 108 -53 l 1xf440
 108 -113 135 -141 251 -141 c 0
 365 -141 405 -112 405 -59 c 0
 405 -9 365 16 299 16 c 2
 216 16 l 2
 122 16 80 63 80 116 c 0xf140
 80 150 100 184 138 209 c 1
 77 241 49 287 49 355 c 0
 49 463 136 539 252 539 c 1
 383 536 431 558 493 586 c 1
 520 503 l 1xf280
252 473 m 0
 181 473 143 424 143 355 c 0
 143 285 182 236 254 236 c 0
 326 236 365 280 365 356 c 0
 365 433 327 473 252 473 c 0
EndSplineSet
Validated: 33
Substitution2: "'smcp' Lowercase to Small Capitals lookup 24 subtable" g.sc
Substitution2: "'aalt' Access All Alternates lookup 0 subtable" g.sc
EndChar

StartChar: gbreve
Encoding: 287 287 169
Width: 520
GlyphClass: 2
Flags: MW
HStem: -213 72<193 308 193 332.5> 16 77<169 318 234 299> 175 61<246 290 218 321> 473 66<216.5 252 194 289.5> 487 52 643 70<231.5 278.5 231.5 295.5>
VStem: 25 83<-83 -53 -83 -53> 49 94<321 389.5 320 409> 80 85<124 133> 365 94<318 384.5 302 394.5> 405 93<-85.5 -34>
AnchorPoint: "Anchor-11" 0 0 basechar 0
AnchorPoint: "Anchor-10" 0 0 basechar 0
AnchorPoint: "Anchor-9" 257 527 basechar 0
AnchorPoint: "Anchor-8" 0 0 basechar 0
LayerCount: 2
Fore
SplineSet
255 643 m 0xf540
 175 643 113 692 105 776 c 1
 166 789 l 1
 180 739 208 713 255 713 c 0
 302 713 333 739 347 789 c 1
 408 776 l 1
 400 692 336 643 255 643 c 0xf540
520 503 m 1
 476 489 426 487 366 487 c 1
 428 459 459 415 459 354 c 0
 459 250 384 175 258 175 c 0
 234 175 213 178 191 185 c 1
 176 174 165 155 165 136 c 0
 165 112 180 93 234 93 c 2xecc0
 318 93 l 2
 426 93 498 31 498 -53 c 0
 498 -155 414 -213 251 -213 c 0
 79 -213 25 -160 25 -53 c 1
 108 -53 l 1xf620
 108 -113 135 -141 251 -141 c 0
 365 -141 405 -112 405 -59 c 0
 405 -9 365 16 299 16 c 2
 216 16 l 2
 122 16 80 63 80 116 c 0xf4a0
 80 150 100 184 138 209 c 1
 77 241 49 287 49 355 c 0
 49 463 136 539 252 539 c 1
 383 536 431 558 493 586 c 1
 520 503 l 1
252 473 m 0
 181 473 143 424 143 355 c 0
 143 285 182 236 254 236 c 0
 326 236 365 280 365 356 c 0
 365 433 327 473 252 473 c 0
EndSplineSet
Validated: 33
Substitution2: "'smcp' Lowercase to Small Capitals lookup 24 subtable" gbreve.sc
Substitution2: "'aalt' Access All Alternates lookup 0 subtable" gbreve.sc
EndChar

StartChar: gcircumflex
Encoding: 285 285 170
Width: 520
GlyphClass: 2
Flags: MW
HStem: -213 72<193 308 193 332.5> 16 77<169 318 234 299> 175 61<246 290 218 321> 473 66<216.5 252 194 289.5> 487 52 718 74<257 257>
VStem: 25 83<-83 -53 -83 -53> 49 94<321 389.5 320 409> 80 85<124 133> 365 94<318 384.5 302 394.5> 405 93<-85.5 -34>
AnchorPoint: "Anchor-11" 0 0 basechar 0
AnchorPoint: "Anchor-10" 0 0 basechar 0
AnchorPoint: "Anchor-9" 257 527 basechar 0
AnchorPoint: "Anchor-8" 0 0 basechar 0
LayerCount: 2
Fore
SplineSet
91 679 m 1xf540
 226 792 l 1
 287 792 l 1
 423 679 l 1
 383 634 l 1
 257 718 l 1
 130 634 l 1
 91 679 l 1xf540
520 503 m 1
 476 489 426 487 366 487 c 1
 428 459 459 415 459 354 c 0
 459 250 384 175 258 175 c 0
 234 175 213 178 191 185 c 1
 176 174 165 155 165 136 c 0
 165 112 180 93 234 93 c 2xecc0
 318 93 l 2
 426 93 498 31 498 -53 c 0
 498 -155 414 -213 251 -213 c 0
 79 -213 25 -160 25 -53 c 1
 108 -53 l 1xf620
 108 -113 135 -141 251 -141 c 0
 365 -141 405 -112 405 -59 c 0
 405 -9 365 16 299 16 c 2
 216 16 l 2
 122 16 80 63 80 116 c 0xf4a0
 80 150 100 184 138 209 c 1
 77 241 49 287 49 355 c 0
 49 463 136 539 252 539 c 1
 383 536 431 558 493 586 c 1
 520 503 l 1
252 473 m 0
 181 473 143 424 143 355 c 0
 143 285 182 236 254 236 c 0
 326 236 365 280 365 356 c 0
 365 433 327 473 252 473 c 0
EndSplineSet
Validated: 33
Substitution2: "'smcp' Lowercase to Small Capitals lookup 24 subtable" gcircumflex.sc
Substitution2: "'aalt' Access All Alternates lookup 0 subtable" gcircumflex.sc
EndChar

StartChar: gcommaaccent
Encoding: 291 291 171
Width: 520
GlyphClass: 2
Flags: MW
HStem: -213 72<193 308 193 332.5> 16 77<169 318 234 299> 175 61<246 290 218 321> 473 66<216.5 252 194 289.5> 487 52
VStem: 25 83<-83 -53 -83 -53> 49 94<321 389.5 320 409> 80 85<124 133> 197 115<644 668.5> 365 94<318 384.5 302 394.5> 405 93<-85.5 -34>
AnchorPoint: "Anchor-11" 0 0 basechar 0
AnchorPoint: "Anchor-10" 0 0 basechar 0
AnchorPoint: "Anchor-9" 257 527 basechar 0
AnchorPoint: "Anchor-8" 0 0 basechar 0
LayerCount: 2
Fore
SplineSet
254 604 m 0xf2c0
 222 604 197 628 197 660 c 0
 197 677 202 693 223 737 c 2
 264 823 l 1
 317 823 l 1
 288 707 l 1
 302 695 312 679 312 660 c 0
 312 628 286 604 254 604 c 0xf2c0
520 503 m 1
 476 489 426 487 366 487 c 1
 428 459 459 415 459 354 c 0
 459 250 384 175 258 175 c 0
 234 175 213 178 191 185 c 1
 176 174 165 155 165 136 c 0
 165 112 180 93 234 93 c 2xe9c0
 318 93 l 2
 426 93 498 31 498 -53 c 0
 498 -155 414 -213 251 -213 c 0
 79 -213 25 -160 25 -53 c 1
 108 -53 l 1xf4a0
 108 -113 135 -141 251 -141 c 0
 365 -141 405 -112 405 -59 c 0
 405 -9 365 16 299 16 c 2
 216 16 l 2
 122 16 80 63 80 116 c 0xf1a0
 80 150 100 184 138 209 c 1
 77 241 49 287 49 355 c 0
 49 463 136 539 252 539 c 1
 383 536 431 558 493 586 c 1
 520 503 l 1
252 473 m 0
 181 473 143 424 143 355 c 0
 143 285 182 236 254 236 c 0
 326 236 365 280 365 356 c 0
 365 433 327 473 252 473 c 0
EndSplineSet
Validated: 33
Substitution2: "'smcp' Lowercase to Small Capitals lookup 24 subtable" gcommaaccent.sc
Substitution2: "'aalt' Access All Alternates lookup 0 subtable" gcommaaccent.sc
EndChar

StartChar: gdotaccent
Encoding: 289 289 172
Width: 520
GlyphClass: 2
Flags: MW
HStem: -213 72<193 308 193 332.5> 16 77<169 318 234 299> 175 61<246 290 218 321> 473 66<216.5 252 194 289.5> 487 52 655 125<237 275.5>
VStem: 25 83<-83 -53 -83 -53> 49 94<321 389.5 320 409> 80 85<124 133> 192 129<699.5 735> 365 94<318 384.5 302 394.5> 405 93<-85.5 -34>
AnchorPoint: "Anchor-11" 0 0 basechar 0
AnchorPoint: "Anchor-10" 0 0 basechar 0
AnchorPoint: "Anchor-9" 257 527 basechar 0
AnchorPoint: "Anchor-8" 0 0 basechar 0
LayerCount: 2
Fore
SplineSet
256 780 m 0xf560
 295 780 321 753 321 717 c 0
 321 682 295 655 256 655 c 0
 218 655 192 682 192 717 c 0
 192 753 218 780 256 780 c 0xf560
520 503 m 1
 476 489 426 487 366 487 c 1
 428 459 459 415 459 354 c 0
 459 250 384 175 258 175 c 0
 234 175 213 178 191 185 c 1
 176 174 165 155 165 136 c 0
 165 112 180 93 234 93 c 2xece0
 318 93 l 2
 426 93 498 31 498 -53 c 0
 498 -155 414 -213 251 -213 c 0
 79 -213 25 -160 25 -53 c 1
 108 -53 l 1xf650
 108 -113 135 -141 251 -141 c 0
 365 -141 405 -112 405 -59 c 0
 405 -9 365 16 299 16 c 2
 216 16 l 2
 122 16 80 63 80 116 c 0xf4d0
 80 150 100 184 138 209 c 1
 77 241 49 287 49 355 c 0
 49 463 136 539 252 539 c 1
 383 536 431 558 493 586 c 1
 520 503 l 1
252 473 m 0
 181 473 143 424 143 355 c 0
 143 285 182 236 254 236 c 0
 326 236 365 280 365 356 c 0
 365 433 327 473 252 473 c 0
EndSplineSet
Validated: 33
Substitution2: "'smcp' Lowercase to Small Capitals lookup 24 subtable" gdotaccent.sc
Substitution2: "'aalt' Access All Alternates lookup 0 subtable" gdotaccent.sc
EndChar

StartChar: h
Encoding: 104 104 173
Width: 586
GlyphClass: 2
Flags: MW
HStem: 0 21G<95 187 95 95 404 496 404 404> 467 72<310 345> 718 20G<95 95> 728 20G<187 187>
VStem: 95 92<0 375 0 454 454 738 738 738> 404 92<0 365 365 378 0 404.5>
AnchorPoint: "Anchor-11" 0 0 basechar 0
AnchorPoint: "Anchor-10" 0 0 basechar 0
AnchorPoint: "Anchor-9" 292 739 basechar 0
AnchorPoint: "Anchor-8" 0 0 basechar 0
LayerCount: 2
Fore
SplineSet
343 539 m 0xdc
 439 539 496 477 496 378 c 2
 496 0 l 1
 404 0 l 1
 404 365 l 2
 404 444 370 467 320 467 c 0
 263 467 222 430 187 375 c 1
 187 0 l 1
 95 0 l 1
 95 738 l 1xec
 187 748 l 1
 187 454 l 1
 225 506 277 539 343 539 c 0xdc
EndSplineSet
Validated: 1
Substitution2: "'smcp' Lowercase to Small Capitals lookup 24 subtable" h.sc
Substitution2: "'aalt' Access All Alternates lookup 0 subtable" h.sc
EndChar

StartChar: hbar
Encoding: 295 295 174
Width: 592
GlyphClass: 2
Flags: MW
HStem: 0 21G<101 193 101 101 410 502 410 410> 467 72<316 351> 606 70<25 101 25 101 193 339> 718 20G<101 101> 728 20G<193 193>
VStem: 101 92<0 375 0 454 454 606 676 738 738 738> 410 92<0 365 365 378 0 404.5>
AnchorPoint: "Anchor-11" 0 0 basechar 0
AnchorPoint: "Anchor-10" 0 0 basechar 0
AnchorPoint: "Anchor-9" 298 739 basechar 0
AnchorPoint: "Anchor-8" 0 0 basechar 0
LayerCount: 2
Fore
SplineSet
349 539 m 0xee
 445 539 502 477 502 378 c 2
 502 0 l 1
 410 0 l 1
 410 365 l 2
 410 444 376 467 326 467 c 0
 269 467 228 430 193 375 c 1
 193 0 l 1
 101 0 l 1
 101 606 l 1
 25 606 l 1
 25 676 l 1
 101 676 l 1
 101 738 l 1xf6
 193 748 l 1
 193 676 l 1
 349 676 l 1
 339 606 l 1
 193 606 l 1
 193 454 l 1
 231 506 283 539 349 539 c 0xee
EndSplineSet
Validated: 1
Substitution2: "'smcp' Lowercase to Small Capitals lookup 24 subtable" hbar.sc
Substitution2: "'aalt' Access All Alternates lookup 0 subtable" hbar.sc
EndChar

StartChar: hcircumflex
Encoding: 293 293 175
Width: 586
GlyphClass: 2
Flags: MW
HStem: 0 21G<95 187 95 95 404 496 404 404> 467 72<310 345> 718 20G<95 95> 728 20G<187 187> 890 74<292 292>
VStem: 95 92<0 375 0 454 454 738 738 738> 404 92<0 365 365 378 0 404.5>
AnchorPoint: "Anchor-11" 0 0 basechar 0
AnchorPoint: "Anchor-10" 0 0 basechar 0
AnchorPoint: "Anchor-9" 292 739 basechar 0
AnchorPoint: "Anchor-8" 0 0 basechar 0
LayerCount: 2
Fore
SplineSet
166 809 m 1xde
 126 854 l 1
 262 964 l 1
 323 964 l 1
 458 854 l 1
 419 809 l 1
 292 890 l 1
 166 809 l 1xde
343 539 m 0
 439 539 496 477 496 378 c 2
 496 0 l 1
 404 0 l 1
 404 365 l 2
 404 444 370 467 320 467 c 0
 263 467 222 430 187 375 c 1
 187 0 l 1
 95 0 l 1
 95 738 l 1xee
 187 748 l 1
 187 454 l 1
 225 506 277 539 343 539 c 0
EndSplineSet
Validated: 1
Substitution2: "'smcp' Lowercase to Small Capitals lookup 24 subtable" hcircumflex.sc
Substitution2: "'aalt' Access All Alternates lookup 0 subtable" hcircumflex.sc
EndChar

StartChar: i
Encoding: 105 105 176
Width: 282
GlyphClass: 2
Flags: MW
HStem: 0 21G<95 187 95 95> 507 20G<95 187 187 187> 655 125<121 159.5>
VStem: 76 129<699.5 735> 95 92<0 527>
AnchorPoint: "Anchor-11" 0 0 basechar 0
AnchorPoint: "Anchor-10" 0 0 basechar 0
AnchorPoint: "Anchor-9" 141 527 basechar 0
AnchorPoint: "Anchor-8" 197 0 basechar 0
LayerCount: 2
Fore
SplineSet
140 780 m 0xf0
 179 780 205 753 205 717 c 0
 205 682 179 655 140 655 c 0
 102 655 76 682 76 717 c 0
 76 753 102 780 140 780 c 0xf0
187 0 m 1xe8
 95 0 l 1
 95 527 l 1
 187 527 l 1
 187 0 l 1xe8
EndSplineSet
Validated: 1
Substitution2: "'smcp' Lowercase to Small Capitals lookup 24 subtable" i.sc
Substitution2: "'locl' Localized Forms in Latin lookup 10 subtable" i.loclTRK
Substitution2: "'locl' Localized Forms in Latin lookup 8 subtable" i.loclTRK
Substitution2: "'locl' Localized Forms in Latin lookup 6 subtable" i.loclTRK
Substitution2: "'locl' Localized Forms in Latin lookup 3 subtable" i.loclTRK
Substitution2: "'locl' Localized Forms in Latin lookup 2 subtable" i.loclTRK
AlternateSubs2: "'aalt' Access All Alternates lookup 1 subtable" i.loclTRK i.sc
EndChar

StartChar: dotlessi
Encoding: 305 305 177
Width: 282
GlyphClass: 2
Flags: MW
HStem: 0 21G<95 187 95 95> 507 20G<95 187 187 187>
VStem: 95 92<0 527>
AnchorPoint: "Anchor-11" 0 0 basechar 0
AnchorPoint: "Anchor-10" 0 0 basechar 0
AnchorPoint: "Anchor-9" 141 527 basechar 0
AnchorPoint: "Anchor-8" 197 0 basechar 0
LayerCount: 2
Fore
SplineSet
187 0 m 1
 95 0 l 1
 95 527 l 1
 187 527 l 1
 187 0 l 1
EndSplineSet
Validated: 1
Substitution2: "'smcp' Lowercase to Small Capitals lookup 24 subtable" dotlessi.sc
Substitution2: "'aalt' Access All Alternates lookup 0 subtable" dotlessi.sc
EndChar

StartChar: iacute
Encoding: 237 237 178
Width: 282
GlyphClass: 2
Flags: MW
HStem: 0 21G<95 187 95 95> 507 20G<95 187 187 187>
VStem: 95 92<0 527>
AnchorPoint: "Anchor-11" 0 0 basechar 0
AnchorPoint: "Anchor-10" 0 0 basechar 0
AnchorPoint: "Anchor-9" 141 527 basechar 0
AnchorPoint: "Anchor-8" 197 0 basechar 0
LayerCount: 2
Fore
SplineSet
251 724 m 1
 39 638 l 1
 11 687 l 1
 210 801 l 1
 251 724 l 1
187 0 m 1
 95 0 l 1
 95 527 l 1
 187 527 l 1
 187 0 l 1
EndSplineSet
Validated: 1
Substitution2: "'smcp' Lowercase to Small Capitals lookup 24 subtable" iacute.sc
Substitution2: "'aalt' Access All Alternates lookup 0 subtable" iacute.sc
EndChar

StartChar: ibreve
Encoding: 301 301 179
Width: 282
GlyphClass: 2
Flags: MW
HStem: 0 21G<95 187 95 95> 507 20G<95 187 187 187> 643 70<115.5 162.5 115.5 179.5>
VStem: 95 92<0 527>
AnchorPoint: "Anchor-11" 0 0 basechar 0
AnchorPoint: "Anchor-10" 0 0 basechar 0
AnchorPoint: "Anchor-9" 141 527 basechar 0
AnchorPoint: "Anchor-8" 197 0 basechar 0
LayerCount: 2
Fore
SplineSet
139 643 m 0
 59 643 -3 692 -11 776 c 1
 50 789 l 1
 64 739 92 713 139 713 c 0
 186 713 217 739 231 789 c 1
 292 776 l 1
 284 692 220 643 139 643 c 0
187 0 m 1
 95 0 l 1
 95 527 l 1
 187 527 l 1
 187 0 l 1
EndSplineSet
Validated: 1
Substitution2: "'smcp' Lowercase to Small Capitals lookup 24 subtable" ibreve.sc
Substitution2: "'aalt' Access All Alternates lookup 0 subtable" ibreve.sc
EndChar

StartChar: icircumflex
Encoding: 238 238 180
Width: 282
GlyphClass: 2
Flags: MW
HStem: 0 21G<95 187 95 95> 507 20G<95 187 187 187> 718 74<141 141>
VStem: 95 92<0 527>
AnchorPoint: "Anchor-11" 0 0 basechar 0
AnchorPoint: "Anchor-10" 0 0 basechar 0
AnchorPoint: "Anchor-9" 141 527 basechar 0
AnchorPoint: "Anchor-8" 197 0 basechar 0
LayerCount: 2
Fore
SplineSet
-25 679 m 1
 110 792 l 1
 171 792 l 1
 307 679 l 1
 267 634 l 1
 141 718 l 1
 14 634 l 1
 -25 679 l 1
187 0 m 1
 95 0 l 1
 95 527 l 1
 187 527 l 1
 187 0 l 1
EndSplineSet
Validated: 1
Substitution2: "'smcp' Lowercase to Small Capitals lookup 24 subtable" icircumflex.sc
Substitution2: "'aalt' Access All Alternates lookup 0 subtable" icircumflex.sc
EndChar

StartChar: idieresis
Encoding: 239 239 181
Width: 282
GlyphClass: 2
Flags: MW
HStem: 0 21G<95 187 95 95> 507 20G<95 187 187 187> 654 114<19.5 52 229 261.5>
VStem: -22 115<695 727> 95 92<0 527> 188 115<695 727>
AnchorPoint: "Anchor-11" 0 0 basechar 0
AnchorPoint: "Anchor-10" 0 0 basechar 0
AnchorPoint: "Anchor-9" 141 677 basechar 0
AnchorPoint: "Anchor-8" 197 0 basechar 0
LayerCount: 2
Fore
SplineSet
36 768 m 0
 68 768 93 743 93 711 c 0
 93 679 68 654 36 654 c 0
 3 654 -22 679 -22 711 c 0
 -22 743 3 768 36 768 c 0
245 768 m 0
 278 768 303 743 303 711 c 0
 303 679 278 654 245 654 c 0
 213 654 188 679 188 711 c 0
 188 743 213 768 245 768 c 0
187 0 m 1xe8
 95 0 l 1
 95 527 l 1
 187 527 l 1
 187 0 l 1xe8
EndSplineSet
Validated: 1
Substitution2: "'smcp' Lowercase to Small Capitals lookup 24 subtable" idieresis.sc
Substitution2: "'aalt' Access All Alternates lookup 0 subtable" idieresis.sc
EndChar

StartChar: i.loclTRK
Encoding: 1114119 -1 182
Width: 282
GlyphClass: 2
Flags: MW
HStem: 0 21G<95 187 95 95> 507 20G<95 187 187 187> 655 125<121 159.5>
VStem: 76 129<699.5 735> 95 92<0 527>
AnchorPoint: "Anchor-11" 0 0 basechar 0
AnchorPoint: "Anchor-10" 0 0 basechar 0
AnchorPoint: "Anchor-9" 141 527 basechar 0
AnchorPoint: "Anchor-8" 197 0 basechar 0
LayerCount: 2
Fore
SplineSet
140 780 m 0xf0
 179 780 205 753 205 717 c 0
 205 682 179 655 140 655 c 0
 102 655 76 682 76 717 c 0
 76 753 102 780 140 780 c 0xf0
187 0 m 1xe8
 95 0 l 1
 95 527 l 1
 187 527 l 1
 187 0 l 1xe8
EndSplineSet
Validated: 1
Substitution2: "'smcp' Lowercase to Small Capitals lookup 24 subtable" i.sc.loclTRK
Substitution2: "'aalt' Access All Alternates lookup 0 subtable" i.sc.loclTRK
EndChar

StartChar: igrave
Encoding: 236 236 183
Width: 282
GlyphClass: 2
Flags: MW
HStem: 0 21G<95 187 95 95> 507 20G<95 187 187 187>
VStem: 95 92<0 527>
AnchorPoint: "Anchor-11" 0 0 basechar 0
AnchorPoint: "Anchor-10" 0 0 basechar 0
AnchorPoint: "Anchor-9" 141 527 basechar 0
AnchorPoint: "Anchor-8" 197 0 basechar 0
LayerCount: 2
Fore
SplineSet
271 687 m 1
 243 638 l 1
 31 724 l 1
 72 801 l 1
 271 687 l 1
187 0 m 1
 95 0 l 1
 95 527 l 1
 187 527 l 1
 187 0 l 1
EndSplineSet
Validated: 1
Substitution2: "'smcp' Lowercase to Small Capitals lookup 24 subtable" igrave.sc
Substitution2: "'aalt' Access All Alternates lookup 0 subtable" igrave.sc
EndChar

StartChar: ij
Encoding: 307 307 184
Width: 562
GlyphClass: 2
Flags: MW
HStem: -212 21G<300 300> 0 21G<95 187 95 95> 507 20G<95 187 187 187 375 467 467 467> 655 125<121 159.5 402 440.5>
VStem: 76 129<699.5 735> 95 92<0 527> 357 129<699.5 735> 375 92<26 32 32 527>
AnchorPoint: "Anchor-11" 0 0 basechar 0
AnchorPoint: "Anchor-10" 0 0 basechar 0
AnchorPoint: "Anchor-9" 422 527 basechar 0
AnchorPoint: "Anchor-8" 197 0 basechar 0
LayerCount: 2
Fore
SplineSet
140 780 m 0xfa
 179 780 205 753 205 717 c 0
 205 682 179 655 140 655 c 0
 102 655 76 682 76 717 c 0
 76 753 102 780 140 780 c 0xfa
421 780 m 0
 460 780 486 753 486 717 c 0
 486 682 460 655 421 655 c 0
 383 655 357 682 357 717 c 0
 357 753 383 780 421 780 c 0
187 0 m 1xf5
 95 0 l 1
 95 527 l 1
 187 527 l 1
 187 0 l 1xf5
467 32 m 2
 467 -117 412 -162 300 -212 c 1
 273 -145 l 1
 342 -113 375 -87 375 26 c 2
 375 527 l 1
 467 527 l 1
 467 32 l 2
EndSplineSet
Validated: 1
Substitution2: "'smcp' Lowercase to Small Capitals lookup 24 subtable" ij.sc
Substitution2: "'aalt' Access All Alternates lookup 0 subtable" ij.sc
EndChar

StartChar: imacron
Encoding: 299 299 185
Width: 282
GlyphClass: 2
Flags: MW
HStem: 0 21G<95 187 95 95> 507 20G<95 187 187 187> 667 69<4 277 4 277>
VStem: 95 92<0 527>
AnchorPoint: "Anchor-11" 0 0 basechar 0
AnchorPoint: "Anchor-10" 0 0 basechar 0
AnchorPoint: "Anchor-9" 141 527 basechar 0
AnchorPoint: "Anchor-8" 197 0 basechar 0
LayerCount: 2
Fore
SplineSet
4 667 m 1
 4 736 l 1
 277 736 l 1
 277 667 l 1
 4 667 l 1
187 0 m 1
 95 0 l 1
 95 527 l 1
 187 527 l 1
 187 0 l 1
EndSplineSet
Validated: 1
Substitution2: "'smcp' Lowercase to Small Capitals lookup 24 subtable" imacron.sc
Substitution2: "'aalt' Access All Alternates lookup 0 subtable" imacron.sc
EndChar

StartChar: iogonek
Encoding: 303 303 186
Width: 282
GlyphClass: 2
Flags: MW
HStem: -232 70<99.5 122> 0 21G<187 187> 507 20G<95 187 187 187> 655 125<121 159.5>
VStem: -16 80<-129 -102.5> 76 129<699.5 735> 95 92<5 527 0 527>
AnchorPoint: "Anchor-11" 0 0 basechar 0
AnchorPoint: "Anchor-10" 0 0 basechar 0
AnchorPoint: "Anchor-9" 141 527 basechar 0
AnchorPoint: "Anchor-8" 197 0 basechar 0
LayerCount: 2
Fore
SplineSet
140 780 m 0xf4
 179 780 205 753 205 717 c 0
 205 682 179 655 140 655 c 0
 102 655 76 682 76 717 c 0
 76 753 102 780 140 780 c 0xf4
95 527 m 1xfa
 187 527 l 1
 187 0 l 1
 85 -44 64 -78 64 -114 c 0
 64 -144 79 -162 120 -162 c 0
 141 -162 157 -160 181 -155 c 1
 172 -225 l 1
 152 -229 135 -232 109 -232 c 0
 32 -232 -16 -189 -16 -131 c 0
 -16 -74 20 -30 95 5 c 1
 95 527 l 1xfa
EndSplineSet
Validated: 1
Substitution2: "'smcp' Lowercase to Small Capitals lookup 24 subtable" iogonek.sc
Substitution2: "'aalt' Access All Alternates lookup 0 subtable" iogonek.sc
EndChar

StartChar: itilde
Encoding: 297 297 187
Width: 282
GlyphClass: 2
Flags: MW
HStem: 0 21G<95 187 95 95> 507 20G<95 187 187 187> 656 70<180.5 209 180.5 223> 704 70<71.5 101> 722 20G<308 308>
VStem: 95 92<0 527>
AnchorPoint: "Anchor-11" 0 0 basechar 0
AnchorPoint: "Anchor-10" 0 0 basechar 0
AnchorPoint: "Anchor-9" 141 527 basechar 0
AnchorPoint: "Anchor-8" 197 0 basechar 0
LayerCount: 2
Fore
SplineSet
202 656 m 0xe4
 143 656 119 704 83 704 c 0
 60 704 46 688 30 658 c 1
 -26 686 l 1
 -3 735 33 774 84 774 c 0xd4
 138 774 162 726 199 726 c 0
 219 726 234 740 252 770 c 1xe4
 308 742 l 1xcc
 282 685 244 656 202 656 c 0xe4
187 0 m 1xcc
 95 0 l 1
 95 527 l 1
 187 527 l 1
 187 0 l 1xcc
EndSplineSet
Validated: 1
Substitution2: "'smcp' Lowercase to Small Capitals lookup 24 subtable" itilde.sc
Substitution2: "'aalt' Access All Alternates lookup 0 subtable" itilde.sc
EndChar

StartChar: j
Encoding: 106 106 188
Width: 280
GlyphClass: 2
Flags: MW
HStem: -212 21G<18 18> 507 20G<93 185 185 185> 655 125<120 158.5>
VStem: 75 129<699.5 735> 93 92<26 32 32 527>
AnchorPoint: "Anchor-11" 0 0 basechar 0
AnchorPoint: "Anchor-10" 0 0 basechar 0
AnchorPoint: "Anchor-9" 140 527 basechar 0
AnchorPoint: "Anchor-8" 0 0 basechar 0
LayerCount: 2
Fore
SplineSet
139 780 m 0xf0
 178 780 204 753 204 717 c 0
 204 682 178 655 139 655 c 0
 101 655 75 682 75 717 c 0
 75 753 101 780 139 780 c 0xf0
185 32 m 2xe8
 185 -117 130 -162 18 -212 c 1
 -9 -145 l 1
 60 -113 93 -87 93 26 c 2
 93 527 l 1
 185 527 l 1
 185 32 l 2xe8
EndSplineSet
Validated: 1
Substitution2: "'smcp' Lowercase to Small Capitals lookup 24 subtable" j.sc
Substitution2: "'aalt' Access All Alternates lookup 0 subtable" j.sc
EndChar

StartChar: jdotless
Encoding: 567 567 189
Width: 280
GlyphClass: 2
Flags: MW
HStem: -212 21G<18 18> 507 20G<93 185 185 185>
VStem: 93 92<26 32 32 527>
AnchorPoint: "Anchor-11" 0 0 basechar 0
AnchorPoint: "Anchor-10" 0 0 basechar 0
AnchorPoint: "Anchor-9" 140 527 basechar 0
AnchorPoint: "Anchor-8" 0 0 basechar 0
LayerCount: 2
Fore
SplineSet
185 32 m 2
 185 -117 130 -162 18 -212 c 1
 -9 -145 l 1
 60 -113 93 -87 93 26 c 2
 93 527 l 1
 185 527 l 1
 185 32 l 2
EndSplineSet
Validated: 1
Substitution2: "'smcp' Lowercase to Small Capitals lookup 24 subtable" dotlessj.sc
Substitution2: "'aalt' Access All Alternates lookup 0 subtable" dotlessj.sc
EndChar

StartChar: jcircumflex
Encoding: 309 309 190
Width: 280
GlyphClass: 2
Flags: MW
HStem: -212 21G<18 18> 507 20G<93 185 185 185> 718 74<140 140>
VStem: 93 92<26 32 32 527>
AnchorPoint: "Anchor-11" 0 0 basechar 0
AnchorPoint: "Anchor-10" 0 0 basechar 0
AnchorPoint: "Anchor-9" 140 527 basechar 0
AnchorPoint: "Anchor-8" 0 0 basechar 0
LayerCount: 2
Fore
SplineSet
-26 679 m 1
 109 792 l 1
 170 792 l 1
 306 679 l 1
 266 634 l 1
 140 718 l 1
 13 634 l 1
 -26 679 l 1
185 32 m 2
 185 -117 130 -162 18 -212 c 1
 -9 -145 l 1
 60 -113 93 -87 93 26 c 2
 93 527 l 1
 185 527 l 1
 185 32 l 2
EndSplineSet
Validated: 1
Substitution2: "'smcp' Lowercase to Small Capitals lookup 24 subtable" jcircumflex.sc
Substitution2: "'aalt' Access All Alternates lookup 0 subtable" jcircumflex.sc
EndChar

StartChar: k
Encoding: 107 107 191
Width: 512
GlyphClass: 2
Flags: MW
HStem: 0 21G<95 187 95 95 402 402 402 512> 507 20G<387 490 490 490> 719 20G<95 95> 730 20G<187 187>
VStem: 95 92<0 739 739 739>
AnchorPoint: "Anchor-11" 255 0 basechar 0
AnchorPoint: "Anchor-10" 0 0 basechar 0
AnchorPoint: "Anchor-9" 0 0 basechar 0
AnchorPoint: "Anchor-8" 0 0 basechar 0
LayerCount: 2
Fore
SplineSet
187 0 m 1xd8
 95 0 l 1
 95 739 l 1xe8
 187 750 l 1
 187 0 l 1xd8
296 294 m 1
 512 0 l 1
 402 0 l 1
 193 288 l 1
 387 527 l 1
 490 527 l 1
 296 294 l 1
EndSplineSet
Validated: 1
Substitution2: "'smcp' Lowercase to Small Capitals lookup 24 subtable" k.sc
Substitution2: "'aalt' Access All Alternates lookup 0 subtable" k.sc
EndChar

StartChar: kcommaaccent
Encoding: 311 311 192
Width: 512
GlyphClass: 2
Flags: MW
HStem: 0 21G<95 187 95 95 402 402 402 512> 507 20G<387 490 490 490> 719 20G<95 95> 730 20G<187 187>
VStem: 95 92<0 739 739 739> 200 115<-141.5 -117 -141.5 -117>
AnchorPoint: "Anchor-11" 255 0 basechar 0
AnchorPoint: "Anchor-10" 0 0 basechar 0
AnchorPoint: "Anchor-9" 0 0 basechar 0
AnchorPoint: "Anchor-8" 0 0 basechar 0
LayerCount: 2
Fore
SplineSet
187 0 m 1xd8
 95 0 l 1
 95 739 l 1xe8
 187 750 l 1
 187 0 l 1xd8
296 294 m 1
 512 0 l 1
 402 0 l 1
 193 288 l 1
 387 527 l 1
 490 527 l 1
 296 294 l 1
258 -77 m 0xdc
 290 -77 315 -101 315 -133 c 0
 315 -150 310 -166 289 -210 c 2
 248 -296 l 1
 195 -296 l 1
 224 -180 l 1
 210 -168 200 -152 200 -133 c 0
 200 -101 226 -77 258 -77 c 0xdc
EndSplineSet
Validated: 1
Substitution2: "'smcp' Lowercase to Small Capitals lookup 24 subtable" kcommaaccent.sc
Substitution2: "'aalt' Access All Alternates lookup 0 subtable" kcommaaccent.sc
EndChar

StartChar: kgreenlandic
Encoding: 312 312 193
Width: 509
GlyphClass: 2
Flags: MW
HStem: 0 21G<95 187 95 95 399 399 399 509> 507 20G<95 187 187 187 384 487 487 487>
VStem: 95 92<0 527>
LayerCount: 2
Fore
SplineSet
187 0 m 1
 95 0 l 1
 95 527 l 1
 187 527 l 1
 187 0 l 1
293 284 m 1
 509 0 l 1
 399 0 l 1
 190 278 l 1
 384 527 l 1
 487 527 l 1
 293 284 l 1
EndSplineSet
Validated: 1
Substitution2: "'smcp' Lowercase to Small Capitals lookup 24 subtable" kgreenlandic.sc
Substitution2: "'aalt' Access All Alternates lookup 0 subtable" kgreenlandic.sc
EndChar

StartChar: l
Encoding: 108 108 194
Width: 293
GlyphClass: 2
Flags: MW
HStem: -12 76<203 208.5> 719 20G<90 90> 730 20G<182 182>
VStem: 90 92<104 106 106 739 739 739>
AnchorPoint: "Anchor-11" 147 0 basechar 0
AnchorPoint: "Anchor-10" 0 0 basechar 0
AnchorPoint: "Anchor-9" 136 739 basechar 0
AnchorPoint: "Anchor-8" 0 0 basechar 0
LayerCount: 2
Fore
SplineSet
182 106 m 2xb0
 182 78 191 64 215 64 c 0
 228 64 239 66 249 70 c 1
 273 6 l 1
 248 -6 222 -12 195 -12 c 0
 128 -12 90 28 90 104 c 2
 90 739 l 1xd0
 182 750 l 1
 182 106 l 2xb0
EndSplineSet
Validated: 1
Substitution2: "'smcp' Lowercase to Small Capitals lookup 24 subtable" l.sc
Substitution2: "'aalt' Access All Alternates lookup 0 subtable" l.sc
EndChar

StartChar: lacute
Encoding: 314 314 195
Width: 293
GlyphClass: 2
Flags: MW
HStem: -12 76<203 208.5> 719 20G<90 90> 730 20G<182 182>
VStem: 90 92<104 106 106 739 739 739>
AnchorPoint: "Anchor-11" 147 0 basechar 0
AnchorPoint: "Anchor-10" 0 0 basechar 0
AnchorPoint: "Anchor-9" 136 739 basechar 0
AnchorPoint: "Anchor-8" 0 0 basechar 0
LayerCount: 2
Fore
SplineSet
258 884 m 1xb0
 42 805 l 1
 18 854 l 1
 218 961 l 1
 258 884 l 1xb0
182 106 m 2
 182 78 191 64 215 64 c 0
 228 64 239 66 249 70 c 1
 273 6 l 1
 248 -6 222 -12 195 -12 c 0
 128 -12 90 28 90 104 c 2
 90 739 l 1xd0
 182 750 l 1
 182 106 l 2
EndSplineSet
Validated: 1
Substitution2: "'smcp' Lowercase to Small Capitals lookup 24 subtable" lacute.sc
Substitution2: "'aalt' Access All Alternates lookup 0 subtable" lacute.sc
EndChar

StartChar: lcaron
Encoding: 318 318 196
Width: 293
GlyphClass: 2
Flags: MW
HStem: -12 76<203 208.5> 543 20G<239 239> 719 20G<90 90 338 338> 729 20G<255 255> 730 20G<182 182>
VStem: 90 92<104 106 106 739 739 739>
AnchorPoint: "Anchor-11" 147 0 basechar 0
AnchorPoint: "Anchor-10" 0 0 basechar 0
AnchorPoint: "Anchor-9" 136 739 basechar 0
AnchorPoint: "Anchor-8" 0 0 basechar 0
LayerCount: 2
Fore
SplineSet
182 106 m 2xcc
 182 78 191 64 215 64 c 0
 228 64 239 66 249 70 c 1
 273 6 l 1
 248 -6 222 -12 195 -12 c 0
 128 -12 90 28 90 104 c 2
 90 739 l 1xe4
 182 750 l 1
 182 106 l 2xcc
338 739 m 1xe4
 292 555 l 1
 239 563 l 1
 255 749 l 1xd4
 338 739 l 1xe4
EndSplineSet
Validated: 1
Substitution2: "'smcp' Lowercase to Small Capitals lookup 24 subtable" lcaron.sc
Substitution2: "'aalt' Access All Alternates lookup 0 subtable" lcaron.sc
EndChar

StartChar: lcommaaccent
Encoding: 316 316 197
Width: 293
GlyphClass: 2
Flags: MW
HStem: -12 76<203 208.5> 719 20G<90 90> 730 20G<182 182>
VStem: 90 92<104 106 106 739 739 739> 92 115<-141.5 -117 -141.5 -117>
AnchorPoint: "Anchor-11" 147 0 basechar 0
AnchorPoint: "Anchor-10" 0 0 basechar 0
AnchorPoint: "Anchor-9" 136 739 basechar 0
AnchorPoint: "Anchor-8" 0 0 basechar 0
LayerCount: 2
Fore
SplineSet
182 106 m 2xb0
 182 78 191 64 215 64 c 0
 228 64 239 66 249 70 c 1
 273 6 l 1
 248 -6 222 -12 195 -12 c 0
 128 -12 90 28 90 104 c 2
 90 739 l 1xd0
 182 750 l 1
 182 106 l 2xb0
150 -77 m 0xa8
 182 -77 207 -101 207 -133 c 0
 207 -150 202 -166 181 -210 c 2
 140 -296 l 1
 87 -296 l 1
 116 -180 l 1
 102 -168 92 -152 92 -133 c 0
 92 -101 118 -77 150 -77 c 0xa8
EndSplineSet
Validated: 1
Substitution2: "'smcp' Lowercase to Small Capitals lookup 24 subtable" lcommaaccent.sc
Substitution2: "'aalt' Access All Alternates lookup 0 subtable" lcommaaccent.sc
EndChar

StartChar: ldot
Encoding: 320 320 198
Width: 337
GlyphClass: 2
Flags: MW
HStem: -12 76<203 208.5> 315 125<278 316.5> 719 20G<90 90> 730 20G<182 182>
VStem: 90 92<104 106 106 739 739 739> 233 129<359.5 395>
AnchorPoint: "Anchor-11" 147 0 basechar 0
AnchorPoint: "Anchor-10" 0 0 basechar 0
AnchorPoint: "Anchor-9" 136 739 basechar 0
AnchorPoint: "Anchor-8" 0 0 basechar 0
LayerCount: 2
Fore
SplineSet
182 106 m 2xd8
 182 78 191 64 215 64 c 0
 228 64 239 66 249 70 c 1
 273 6 l 1
 248 -6 222 -12 195 -12 c 0
 128 -12 90 28 90 104 c 2
 90 739 l 1xe8
 182 750 l 1
 182 106 l 2xd8
297 440 m 0xdc
 336 440 362 413 362 377 c 0
 362 342 336 315 297 315 c 0
 259 315 233 342 233 377 c 0
 233 413 259 440 297 440 c 0xdc
EndSplineSet
Validated: 1
Ligature2: "Ligature Substitution lookup 29 subtable" l periodcentered
Substitution2: "'smcp' Lowercase to Small Capitals lookup 24 subtable" ldot.sc
Substitution2: "'aalt' Access All Alternates lookup 0 subtable" ldot.sc
EndChar

StartChar: lslash
Encoding: 322 322 199
Width: 302
GlyphClass: 2
Flags: MW
HStem: -12 76<210 215.5> 719 20G<97 97> 730 20G<189 189>
VStem: 97 92<104 106 106 307 307 307 448 739 739 739>
AnchorPoint: "Anchor-11" 154 0 basechar 0
AnchorPoint: "Anchor-10" 0 0 basechar 0
AnchorPoint: "Anchor-9" 143 739 basechar 0
AnchorPoint: "Anchor-8" 0 0 basechar 0
LayerCount: 2
Fore
SplineSet
222 64 m 0xb0
 235 64 246 66 256 70 c 1
 280 6 l 1
 255 -6 229 -12 202 -12 c 0
 135 -12 97 28 97 104 c 2
 97 307 l 1
 45 275 l 1
 14 341 l 1
 97 392 l 1
 97 739 l 1xd0
 189 750 l 1
 189 448 l 1
 259 491 l 1
 290 425 l 1
 189 363 l 1
 189 106 l 2
 189 78 198 64 222 64 c 0xb0
EndSplineSet
Validated: 1
Substitution2: "'smcp' Lowercase to Small Capitals lookup 24 subtable" lslash.sc
Substitution2: "'aalt' Access All Alternates lookup 0 subtable" lslash.sc
EndChar

StartChar: m
Encoding: 109 109 200
Width: 857
GlyphClass: 2
Flags: MW
HStem: 0 21G<95 187 95 95 385 477 385 385 675 767 675 675> 467 72<299.5 331 588.5 621> 507 20G<95 174 174 174>
VStem: 95 92<0 374 0 527> 385 92<0 365 365 374 0 404.5> 675 92<0 365 365 378 0 404.5>
LayerCount: 2
Fore
SplineSet
624 539 m 0xdc
 710 539 767 477 767 378 c 2
 767 0 l 1
 675 0 l 1
 675 365 l 2
 675 444 641 467 601 467 c 0
 544 467 513 430 477 374 c 1
 477 0 l 1
 385 0 l 1
 385 365 l 2
 385 444 351 467 311 467 c 0
 254 467 222 430 187 374 c 1xdc
 187 0 l 1
 95 0 l 1
 95 527 l 1
 174 527 l 1xbc
 182 450 l 1
 217 503 265 539 334 539 c 0
 399 539 447 504 467 444 c 1
 505 501 553 539 624 539 c 0xdc
EndSplineSet
Validated: 1
Substitution2: "'smcp' Lowercase to Small Capitals lookup 24 subtable" m.sc
Substitution2: "'aalt' Access All Alternates lookup 0 subtable" m.sc
EndChar

StartChar: n
Encoding: 110 110 201
Width: 586
GlyphClass: 2
Flags: MW
HStem: 0 21G<95 187 95 95 404 496 404 404> 467 72<308.5 346.5> 507 20G<95 174 174 174>
VStem: 95 92<0 374 0 527> 404 92<0 365 365 378 0 404.5>
AnchorPoint: "Anchor-11" 293 0 basechar 0
AnchorPoint: "Anchor-10" 85 527 basechar 0
AnchorPoint: "Anchor-9" 298 527 basechar 0
AnchorPoint: "Anchor-8" 0 0 basechar 0
LayerCount: 2
Fore
SplineSet
343 539 m 0xd8
 440 539 496 478 496 378 c 2
 496 0 l 1
 404 0 l 1
 404 365 l 2
 404 444 372 467 321 467 c 0
 262 467 222 430 187 374 c 1xd8
 187 0 l 1
 95 0 l 1
 95 527 l 1
 174 527 l 1xb8
 182 449 l 1
 218 503 274 539 343 539 c 0xd8
EndSplineSet
Validated: 1
Substitution2: "'smcp' Lowercase to Small Capitals lookup 24 subtable" n.sc
Substitution2: "'aalt' Access All Alternates lookup 0 subtable" n.sc
EndChar

StartChar: nacute
Encoding: 324 324 202
Width: 586
GlyphClass: 2
Flags: MW
HStem: 0 21G<95 187 95 95 404 496 404 404> 467 72<308.5 346.5> 507 20G<95 174 174 174>
VStem: 95 92<0 374 0 527> 404 92<0 365 365 378 0 404.5>
AnchorPoint: "Anchor-11" 293 0 basechar 0
AnchorPoint: "Anchor-10" 85 527 basechar 0
AnchorPoint: "Anchor-9" 298 527 basechar 0
AnchorPoint: "Anchor-8" 0 0 basechar 0
LayerCount: 2
Fore
SplineSet
196 638 m 1xd8
 168 687 l 1
 367 801 l 1
 408 724 l 1
 196 638 l 1xd8
343 539 m 0
 440 539 496 478 496 378 c 2
 496 0 l 1
 404 0 l 1
 404 365 l 2
 404 444 372 467 321 467 c 0
 262 467 222 430 187 374 c 1xd8
 187 0 l 1
 95 0 l 1
 95 527 l 1
 174 527 l 1xb8
 182 449 l 1
 218 503 274 539 343 539 c 0
EndSplineSet
Validated: 1
Substitution2: "'smcp' Lowercase to Small Capitals lookup 24 subtable" nacute.sc
Substitution2: "'locl' Localized Forms in Latin lookup 7 subtable" nacute.loclPLK
AlternateSubs2: "'aalt' Access All Alternates lookup 1 subtable" nacute.loclPLK nacute.sc
EndChar

